<svg xmlns="http://www.w3.org/2000/svg" viewBox="0 0 672.88 443.87"><defs><style>.cls-1{fill:#ebebeb;}.cls-2{fill:#fafafa;}.cls-3{fill:#e0e0e0;}.cls-4{fill:#263238;}.cls-5{fill:#e8505b;}.cls-6{opacity:0.6;}.cls-7{fill:#fff;}.cls-8{opacity:0.3;}.cls-9{fill:#455a64;}.cls-10{fill:#ffbe9d;}.cls-11{fill:#eb996e;}.cls-12{opacity:0.4;}</style></defs><g id="Layer_2" data-name="Layer 2"><g id="Background_Complete" data-name="Background Complete"><rect class="cls-1" x="490.49" y="15.29" width="130.6" height="234.61"/><rect class="cls-2" x="495.71" y="22.1" width="118.81" height="220.81"/><polygon class="cls-3" points="626.61 252.01 621.09 249.9 621.09 11.31 626.61 11.31 626.61 252.01"/><rect class="cls-3" x="495.71" y="85.62" width="121.39" height="2.35"/><rect class="cls-3" x="495.71" y="138.2" width="121.39" height="2.35"/><rect class="cls-3" x="495.71" y="190.79" width="121.39" height="2.35"/><rect class="cls-3" x="473.93" y="164.98" width="162.38" height="6" transform="translate(387.14 723.1) rotate(-90)"/><rect class="cls-3" x="518.59" y="22.1" width="2.72" height="64.7"/><rect class="cls-3" x="542.05" y="22.1" width="2.72" height="64.7"/><rect class="cls-3" x="565.5" y="22.1" width="2.72" height="64.7"/><rect class="cls-3" x="588.96" y="22.1" width="2.72" height="64.7"/><rect class="cls-3" x="484.97" y="11.31" width="5.52" height="240.04"/><rect class="cls-3" x="484.97" y="8.89" width="141.64" height="6.4"/><rect class="cls-3" x="481.05" y="252.8" width="149.3" height="5.96"/><polygon class="cls-3" points="621.09 249.9 630.35 252.8 481.05 252.8 490.5 249.9 621.09 249.9"/><rect class="cls-1" x="24.16" y="307.49" width="40.36" height="10.68"/><path class="cls-3" d="M47.46,329.41a.76.76,0,0,1,0-.19v-.55q0-.75,0-2.1c0-1.84,0-4.49-.07-7.84l.13.13-40.36.08c.09-.09-.21.21.2-.21h0v10.66l-.2-.2,28.76.09,8.49.06,2.29,0h.63l-.58,0-2.25,0-8.44.06-28.9.09H6.9v-.2c0-1.72,0-3.47,0-5.25v-5.41h0c.41-.41.12-.11.21-.2l40.36.08h.12v.12c0,3.38,0,6-.07,7.91,0,.89,0,1.58,0,2.08,0,.21,0,.38,0,.52S47.46,329.42,47.46,329.41Z"/><path class="cls-3" d="M56.18,31.52a.76.76,0,0,1,0-.19v-.55q0-.75,0-2.1c0-1.85,0-4.49-.07-7.84l.13.13-40.36.08c.09-.09-.21.2.2-.21h0V31.52l-.2-.2,28.76.09,8.49.06,2.29,0h.82s-.06,0-.19,0l-.58,0-2.25,0-8.44.06-28.9.09h-.2v-.2c0-1.72,0-3.47,0-5.25V20.86h0c.41-.41.12-.11.21-.2l40.36.08h.12v.12c0,3.38,0,6.05-.07,7.91,0,.89,0,1.58,0,2.08,0,.21,0,.38,0,.52A.86.86,0,0,1,56.18,31.52Z"/><path class="cls-3" d="M672.76,312.84a.91.91,0,0,1,0-.2v-.54q0-.77,0-2.1c0-1.85,0-4.5-.07-7.84l.13.13-40.36.08c.09-.09-.21.2.2-.21h0v10.66l-.2-.2,28.76.09,8.49.06,2.29,0,.6,0H672l-2.25,0-8.44.06-28.9.09h-.21V302.18h0c.41-.41.12-.11.21-.2l40.36.08h.12v.12c0,3.37,0,6-.07,7.91q0,1.33,0,2.07c0,.22,0,.39,0,.53S672.76,312.84,672.76,312.84Z"/><path class="cls-3" d="M135.33,93.66s0-.07,0-.19v-.55c0-.5,0-1.21,0-2.1,0-1.85,0-4.5-.07-7.84l.12.13L95,83.19c.09-.09-.21.2.2-.21h0v5.41c0,1.78,0,3.53,0,5.25l-.2-.2,28.77.09,8.48.06,2.3,0,.6,0h0l-.58,0-2.25,0-8.44.06L95,93.86h-.2V83h0c.41-.41.11-.11.21-.2l40.35.08h.13V83c0,3.38-.05,6-.07,7.91q0,1.33,0,2.07c0,.22,0,.39,0,.53S135.34,93.66,135.33,93.66Z"/><path class="cls-3" d="M140.81,83a.8.8,0,0,1,0-.2c0-.15,0-.34,0-.57,0-.52,0-1.24,0-2.14,0-1.87-.05-4.51-.08-7.76l.15.14-24.25.06c-.19.18.25-.25.2-.2h0v5.5c0,1.78,0,3.51,0,5.17l-.19-.19,17.34.09,5.06.05,1.36,0,.49,0-.44,0L139,83l-5,0-17.48.1h-.2V83c0-1.66,0-3.39,0-5.17v-5.5h0l.21-.21,24.25.06H141v.15c0,3.28-.06,6-.08,7.85,0,.89,0,1.59,0,2.11A6,6,0,0,1,140.81,83Z"/><path class="cls-3" d="M667.18,90.16a1.31,1.31,0,0,1,0-.19c0-.14,0-.32,0-.55q0-.75,0-2.1c0-1.84,0-4.49-.07-7.83l.13.12-40.36.08.21-.2h0v1.35c0,.45,0,.91,0,1.36v7.94l-.2-.2,28.76.1,8.49,0,2.3,0h.81s-.06,0-.19,0h-.57l-2.26,0-8.44,0-28.9.1h-.2v-.21c0-1.71,0-3.46,0-5.25v-5.4h0l.21-.21,40.36.08h.13v.13c0,3.37,0,6.05-.06,7.91,0,.88,0,1.57,0,2.07V90A.79.79,0,0,1,667.18,90.16Z"/><path class="cls-3" d="M672.65,79.49s0-.08,0-.21l0-.56c0-.53,0-1.24,0-2.14,0-1.87,0-4.52-.08-7.77l.15.15L648.4,69l.21-.21h0v2.76c0,.92,0,1.83,0,2.72v5.18l-.2-.2,17.35.1,5,0,1.36,0,.49,0a3.32,3.32,0,0,1-.44,0l-1.32,0-5,0-17.48.09h-.19v-.19c0-1.66,0-3.39,0-5.18V68.83h0l.2-.2,24.25,0h.15v.15c0,3.29-.06,6-.08,7.86,0,.89,0,1.59,0,2.11A6.19,6.19,0,0,1,672.65,79.49Z"/><rect class="cls-3" x="23.96" y="168.04" width="40.36" height="10.68"/><rect class="cls-1" x="52.98" y="146.12" width="40.36" height="10.68"/><path class="cls-3" d="M76.27,168a1.49,1.49,0,0,1,0-.19v-.55q0-.75,0-2.1c0-1.84,0-4.49-.07-7.83l.12.12-40.36.08c.1-.09-.2.21.21-.2h0v5.4c0,1.78,0,3.54,0,5.25l-.2-.2,28.76.09,8.49.06,2.3,0h.81s-.06,0-.18,0h-.58l-2.25,0-8.45.05-28.9.1h-.2V157.39h0c.41-.41.11-.12.2-.21l40.36.08h.13v.13c0,3.37-.06,6-.07,7.91q0,1.32,0,2.07c0,.21,0,.39,0,.52S76.28,168.05,76.27,168Z"/><rect class="cls-3" x="441.3" y="318.04" width="40.36" height="10.68"/><rect class="cls-1" x="470.31" y="296.11" width="40.36" height="10.68"/><path class="cls-3" d="M493.61,318a.91.91,0,0,1,0-.2v-.55q0-.75,0-2.1c0-1.84,0-4.49-.07-7.83l.13.12-40.36.08.2-.2h0V318l-.2-.2,28.76.1,8.49.05,2.29,0h.6l.22,0h-.77l-2.25,0-8.44.05-28.9.1h-.2V318c0-1.71,0-3.46,0-5.25v-5.4h0l.21-.21,40.36.08h.12v.13c0,3.37-.05,6.05-.07,7.91q0,1.32,0,2.07c0,.22,0,.39,0,.53A1.15,1.15,0,0,1,493.61,318Z"/><path class="cls-3" d="M169.89,257.44s0-.07,0-.19v-.55q0-.75,0-2.1c0-1.84,0-4.49-.07-7.83l.12.12-40.35.08.2-.2h0v5.42c0,1.78,0,3.54,0,5.25l-.2-.2,28.77.09,8.48.06,2.3,0h.81s-.06,0-.18,0h-.58l-2.25,0-8.44.05-28.91.09h-.2V246.77h0l.21-.21,40.35.08H170v.13c0,3.37-.05,6-.07,7.91q0,1.32,0,2.07v.52C169.9,257.39,169.9,257.45,169.89,257.44Z"/><path class="cls-3" d="M175.37,246.77a1.07,1.07,0,0,1,0-.21c0-.15,0-.34,0-.56,0-.53,0-1.24,0-2.14,0-1.88-.05-4.52-.08-7.77l.15.15-24.25.06c-.19.18.25-.26.2-.21h0v5.48c0,1.79,0,3.52,0,5.18l-.19-.2,17.34.09,5.06.06,1.36,0,.49,0-.44,0-1.33,0-5,.05-17.48.09h-.2v-.19c0-1.66,0-3.39,0-5.18v-5.48h0l.21-.21,24.25.06h.15v.15c0,3.29-.06,6-.08,7.86,0,.88,0,1.59,0,2.1A6.29,6.29,0,0,1,175.37,246.77Z"/></g><g id="Floor"><path class="cls-4" d="M663.13,432.75c0,.14-148.46.26-331.55.26S0,432.89,0,432.75s148.43-.26,331.58-.26S663.13,432.6,663.13,432.75Z"/></g><g id="Character"><path class="cls-5" d="M627.93,395.58l6.43,25.5,10.9,18.71a2.7,2.7,0,0,1-1.14,3.77h0a2.64,2.64,0,0,1-2.46,0c-4.9-2.64-22.85-12.44-23.22-14.33-.42-2.2-8.56-26.46-8.56-26.46Z"/><g class="cls-6"><path class="cls-7" d="M644.12,443.56,618,427.48l.29,1.07a4.1,4.1,0,0,0,1.63,2.28c2.14,1.45,8.11,5.31,21.69,12.72a2.69,2.69,0,0,0,2.54,0Z"/></g><g class="cls-6"><path class="cls-7" d="M620.91,417.86a1.63,1.63,0,0,1,1,1.93,1.57,1.57,0,0,1-1.91,1,1.73,1.73,0,0,1-1-2.05,1.62,1.62,0,0,1,2.1-.83"/></g><path class="cls-4" d="M635.27,434.09A8.17,8.17,0,0,1,637,431.5a8,8,0,0,1,2.76-1.36c0-.07-.37-.18-1-.1a4.29,4.29,0,0,0-2.16,1,4.18,4.18,0,0,0-1.27,2C635.14,433.7,635.2,434.09,635.27,434.09Z"/><path class="cls-4" d="M638,437c.15.08.74-1,2-1.71a23.88,23.88,0,0,1,2.38-1,3,3,0,0,0-2.69.51C638.28,435.63,637.86,437,638,437Z"/><path class="cls-4" d="M630.7,430.67a27.77,27.77,0,0,1,2.83-2.85,26.72,26.72,0,0,1,3.51-1.91,7.36,7.36,0,0,0-6.34,4.76Z"/><path class="cls-4" d="M628.1,423.08c.11.13,1.35-.84,3.15-1.41s3.37-.53,3.39-.71a6.72,6.72,0,0,0-6.54,2.12Z"/><path class="cls-4" d="M626,415.64a8.49,8.49,0,0,1,6.83-1.64c0-.07-.33-.31-1-.48a5.76,5.76,0,0,0-2.72,0,5.83,5.83,0,0,0-2.42,1.23C626.19,415.21,626,415.59,626,415.64Z"/><path class="cls-4" d="M628.83,412.68a2.25,2.25,0,0,0-.23-1,6.82,6.82,0,0,0-1.45-2.3,3.14,3.14,0,0,0-1.66-1.06,1.08,1.08,0,0,0-1.11.56,1.75,1.75,0,0,0-.09,1.25,3.8,3.8,0,0,0,4.16,2.51,4.42,4.42,0,0,0,3.57-3.38,1.58,1.58,0,0,0-.27-1.25,1.08,1.08,0,0,0-1.23-.25,3.86,3.86,0,0,0-1.43,1.33,7.7,7.7,0,0,0-1.18,2.45,2.44,2.44,0,0,0-.15,1,12.63,12.63,0,0,1,1.66-3.18,3.52,3.52,0,0,1,1.27-1.13.56.56,0,0,1,.67.13,1.06,1.06,0,0,1,.13.83,3.93,3.93,0,0,1-3.13,2.9A3.32,3.32,0,0,1,624.8,410a1.25,1.25,0,0,1,0-.88.59.59,0,0,1,.61-.31,2.8,2.8,0,0,1,1.42.87A10.12,10.12,0,0,1,628.83,412.68Z"/><path class="cls-5" d="M542,399.61,543.44,421S522.11,428.11,522,432.1l41.66.3-.84-33.48Z"/><g class="cls-6"><path class="cls-7" d="M556.26,418.84a1.69,1.69,0,0,1,1.23,1.9,1.62,1.62,0,0,1-1.87,1.24,1.79,1.79,0,0,1-1.3-2,1.68,1.68,0,0,1,2.09-1.07"/></g><g class="cls-6"><path class="cls-7" d="M563.65,432.4l-.08-3.38-40.25,1.11a2.9,2.9,0,0,0-1.55,2.27Z"/></g><path class="cls-4" d="M542.75,420.84c0,.2,1,.27,2.06.89s1.58,1.46,1.76,1.38-.15-1.26-1.4-2S542.7,420.66,542.75,420.84Z"/><path class="cls-4" d="M538.44,422.78c0,.2.85.52,1.57,1.36s.94,1.74,1.14,1.73.3-1.17-.61-2.2S538.44,422.59,538.44,422.78Z"/><path class="cls-4" d="M536.12,428.08c.18,0,.44-1-.12-2.08s-1.52-1.51-1.6-1.34.53.75,1,1.66S535.92,428.07,536.12,428.08Z"/><path class="cls-4" d="M543,415.92c.09.19,1-.12,2.17-.08s2.06.38,2.16.2-.78-.88-2.14-.91S542.87,415.77,543,415.92Z"/><g class="cls-8"><polygon points="542.3 403.85 542.55 407.67 563.01 406.86 562.93 403.42 542.3 403.85"/></g><path class="cls-4" d="M542.77,411.59a3.78,3.78,0,0,0,2.08-.07,9.08,9.08,0,0,0,2.16-.74,8.83,8.83,0,0,0,1.18-.67,2.68,2.68,0,0,0,.62-.51.88.88,0,0,0,.06-1.08,1.16,1.16,0,0,0-.91-.44,2.88,2.88,0,0,0-.78.13,7.74,7.74,0,0,0-1.28.49A7.3,7.3,0,0,0,544,410c-.93.92-1.24,1.69-1.17,1.73s.54-.59,1.51-1.36a8.11,8.11,0,0,1,1.82-1.1,8.32,8.32,0,0,1,1.19-.41c.44-.13.81-.14.93.05s.05.11,0,.24a2,2,0,0,1-.45.37,10.44,10.44,0,0,1-1.08.66,12.46,12.46,0,0,1-2,.84A13.21,13.21,0,0,0,542.77,411.59Z"/><path class="cls-4" d="M543,411.88a3.38,3.38,0,0,0,.49-2,7.08,7.08,0,0,0-.35-2.28,8.1,8.1,0,0,0-.57-1.25,1.76,1.76,0,0,0-1.37-1,1,1,0,0,0-.85.61,2.7,2.7,0,0,0-.19.77,4.65,4.65,0,0,0,0,1.4,4.72,4.72,0,0,0,1,2.13c.84,1.06,1.7,1.27,1.71,1.2s-.65-.47-1.31-1.49a4.94,4.94,0,0,1-.72-1.94,4.47,4.47,0,0,1,0-1.21c.05-.44.2-.8.37-.76s.57.31.75.66a6.35,6.35,0,0,1,.55,1.11,7.77,7.77,0,0,1,.47,2.07C543.12,411.08,542.93,411.85,543,411.88Z"/><polygon class="cls-4" points="541.91 212.78 605.4 212.31 636.08 413.81 609.73 417.15 575.96 251.47 565.85 417.74 565.83 418.24 537.33 417.74 541.91 212.78"/><path class="cls-9" d="M573.83,247.13a13.11,13.11,0,0,0-.16-2.46c-.14-1.51-.31-3.59-.38-5.9s0-4.41,0-5.93a14.83,14.83,0,0,0,0-2.46,9.89,9.89,0,0,0-.39,2.44,49.38,49.38,0,0,0,.36,11.9A10.63,10.63,0,0,0,573.83,247.13Z"/><path class="cls-9" d="M568.6,231s-.11-.12-.37-.15a1.69,1.69,0,0,0-1.05.32,1.85,1.85,0,0,0-.8,1.45,1.85,1.85,0,0,0,3.22,1.09,1.89,1.89,0,0,0,.25-1.64,1.65,1.65,0,0,0-.65-.89c-.22-.13-.37-.14-.38-.11s.51.3.67,1.1a1.55,1.55,0,0,1-.27,1.24,1.39,1.39,0,0,1-2.35-.8,1.51,1.51,0,0,1,.54-1.15A2.17,2.17,0,0,1,568.6,231Z"/><path class="cls-9" d="M584.86,226.9s.19.22.58.53a11.19,11.19,0,0,0,1.81,1.14,14.68,14.68,0,0,0,3,1.12,15.49,15.49,0,0,0,7.73,0,14.11,14.11,0,0,0,3-1.12,11.27,11.27,0,0,0,1.81-1.13c.4-.32.6-.5.58-.53s-.94.6-2.55,1.33a15.91,15.91,0,0,1-2.93,1,17.55,17.55,0,0,1-3.75.43,18.23,18.23,0,0,1-3.76-.43,17,17,0,0,1-2.93-1C585.8,227.5,584.92,226.82,584.86,226.9Z"/><path class="cls-9" d="M545.56,231.17a4.29,4.29,0,0,0,1.74.36,12.32,12.32,0,0,0,8.14-2.32,4.36,4.36,0,0,0,1.29-1.23,22.12,22.12,0,0,1-5.3,2.61A21.72,21.72,0,0,1,545.56,231.17Z"/><path class="cls-9" d="M626,415.64a1.63,1.63,0,0,1-.19-.43c-.09-.3-.21-.74-.36-1.33-.28-1.18-.66-2.94-1.11-5.2-.91-4.53-2.15-11.1-3.62-19.22-3-16.25-6.91-38.73-11.25-63.55s-8.32-47.29-11.19-63.58c-1.47-8.11-2.65-14.68-3.48-19.25-.42-2.25-.75-4-1-5.22-.12-.58-.21-1-.27-1.36s-.11-.46-.11-.46,0,.16.06.47l.21,1.37c.21,1.22.51,3,.89,5.24.79,4.58,1.92,11.16,3.31,19.28,2.83,16.29,6.73,38.77,11,63.6s8.35,47.29,11.4,63.53c1.53,8.11,2.82,14.67,3.79,19.19S625.83,415.72,626,415.64Z"/><path class="cls-9" d="M545.11,413.37s0-.16,0-.47,0-.78,0-1.36c0-1.23,0-3,.05-5.24s0-5.07.09-8.3.08-6.92.19-11c.15-8.14.47-17.83.93-28.58s1.18-22.57,2.1-35,2-24.17,3.15-34.88,2.27-20.33,3.33-28.41c.5-4,1-7.68,1.46-10.89s.82-6,1.15-8.21.56-4,.73-5.2q.12-.85.18-1.35a3.89,3.89,0,0,0,0-.46s0,.15-.09.45-.13.78-.23,1.35c-.19,1.21-.47,2.95-.83,5.18s-.79,5-1.24,8.2-1,6.85-1.54,10.88c-1.1,8.07-2.28,17.7-3.45,28.41S548.93,311,548,323.43s-1.58,24.22-2,35-.71,20.45-.83,28.6c-.08,4.07-.08,7.75-.1,11s0,6,0,8.29,0,4,0,5.25c0,.58,0,1,0,1.36S545.11,413.37,545.11,413.37Z"/><path class="cls-10" d="M479.47,135.12l39.67,11.58,22.22-13.12,16.87,20L526.77,167.2a16.36,16.36,0,0,1-14-.47l-39-20Z"/><path class="cls-2" d="M470.42,131.29l-4.91-2.55-13.66-7.1a1.27,1.27,0,0,0-1.58,1.8L459,130.6,455.34,132a3.07,3.07,0,0,0-1.66,1.51l-1.94,3.85s-2.21.23-2.43,1.67,1.43,1.93,1.43,1.93l-.41,1.68a2.85,2.85,0,0,0,.4,2.29h0c2.12.87,3.8-3.56,3.8-3.56l2.25.24,2.46,5c3.13.75,1.65-4.18,1.65-4.18l1.38.35c1.38.34,2.1,1.32,4.25,2.42s6.37,1.49,6.37,1.49L476,149,485.47,136Z"/><path class="cls-4" d="M470.42,131.29l.27.06.78.22,3,.88,11.07,3.39.23.07-.14.19c-2.65,3.65-5.85,8.05-9.42,13l-.14.19-.18-.14-3.12-2.29.12,0a22.33,22.33,0,0,1-6.16-1.36,18.77,18.77,0,0,1-2.85-1.72,5.48,5.48,0,0,0-1.41-.75c-.5-.14-1.08-.27-1.62-.41l.3-.32a8.27,8.27,0,0,1,.34,2.84,2.06,2.06,0,0,1-.68,1.44,2,2,0,0,1-1.61.22l-.11,0-.06-.12c-.78-1.58-1.62-3.26-2.46-5l.2.15-2-.21-.28,0,.27-.17a11.63,11.63,0,0,1-1.2,2.26,3.4,3.4,0,0,1-2.09,1.57h-.37a2.49,2.49,0,0,1-.35-.08l-.08,0,0,0h0s-.22-.18-.12-.09h0l-.08-.15a1.59,1.59,0,0,1-.15-.29,3.06,3.06,0,0,1-.28-1.29,5.34,5.34,0,0,1,.22-1.25l.29-1.17.19.31a2.43,2.43,0,0,1-1.35-.9,1.85,1.85,0,0,1-.19-1.63,2.12,2.12,0,0,1,1.12-1.14,4.41,4.41,0,0,1,1.45-.43l-.2.13c.42-.81.82-1.62,1.23-2.42l.6-1.2a3.53,3.53,0,0,1,.8-1.14,3.32,3.32,0,0,1,1.18-.73l1.21-.46,2.37-.9-.07.4-8.69-7.18,0,0,0,0a1.48,1.48,0,0,1,1.83-2.09h0l13.54,7.14,3.67,2,1,.53.31.19a1.89,1.89,0,0,1-.34-.14l-1-.48-3.73-1.87-13.62-7h0a1,1,0,0,0-1.18.27,1.07,1.07,0,0,0-.15,1.25l-.05-.06,8.73,7.14.32.26-.38.14-2.37.91-1.2.46a2.82,2.82,0,0,0-1,.63,3.09,3.09,0,0,0-.7,1l-.6,1.19L452,137.46l0,.12-.14,0c-.85.12-1.87.48-2.16,1.24a1.38,1.38,0,0,0,.14,1.17,2,2,0,0,0,1.05.69l.25.08L451,141l-.29,1.16a4.9,4.9,0,0,0-.2,1.13,2.69,2.69,0,0,0,.23,1.08l.12.24.08.12v0h0c.11.08-.14-.12-.11-.1h0l.06,0a1.83,1.83,0,0,1,.25.06h.25a2.87,2.87,0,0,0,1.72-1.35,10.45,10.45,0,0,0,1.14-2.14l.08-.19.19,0,.29,0,2,.21H457l.06.13,2.47,5-.18-.13a1.5,1.5,0,0,0,1.18-.13,1.54,1.54,0,0,0,.48-1.09,7.72,7.72,0,0,0-.31-2.63l-.12-.43.42.11c.56.14,1.09.26,1.66.42a6.13,6.13,0,0,1,1.54.82,18.51,18.51,0,0,0,2.76,1.68,22.11,22.11,0,0,0,6,1.34H473l0,0,3.11,2.3-.32.05,9.51-12.91.09.27-11-3.54-2.95-1-.76-.26A1.06,1.06,0,0,1,470.42,131.29Z"/><path class="cls-4" d="M461.22,142.47a27.28,27.28,0,0,1-2.94-.41c-1.85-.27-4.47-.61-7.56-.86h0a1.72,1.72,0,0,1-1.59-2.39,3.27,3.27,0,0,1,2.64-1.85c1.17-.19,2.25-.25,3.32-.44s2.07-.39,3-.63,1.86-.51,2.69-.79a2.68,2.68,0,0,0,1-.54.71.71,0,0,0,.21-.85,2.51,2.51,0,0,0-.62-.77l-.68-.68a14.73,14.73,0,0,0-1.09-1.06c-.62-.55-1-.78-1-.82a3.68,3.68,0,0,1,1.13.66,14.51,14.51,0,0,1,1.16,1l.7.65a2.76,2.76,0,0,1,.74.86,1.11,1.11,0,0,1-.27,1.29,3.18,3.18,0,0,1-1.19.66c-.83.3-1.74.59-2.7.85s-2,.48-3.07.66-2.22.27-3.31.45a2.8,2.8,0,0,0-2.25,1.52,1.23,1.23,0,0,0,1,1.72h.05c3.1.3,5.73.7,7.57,1.06.92.18,1.64.34,2.14.47A3.32,3.32,0,0,1,461.22,142.47Z"/><path class="cls-4" d="M460.85,135.47a4.72,4.72,0,0,1-2.61.35,8.57,8.57,0,0,1-1.39-.18l.24-.14c-.29.68-.54,1.11-.62,1.08s0-.52.2-1.23l.05-.16.19,0,1.36.09A11.72,11.72,0,0,1,460.85,135.47Z"/><polygon class="cls-5" points="550.41 119.05 524.85 138.66 542.77 162.26 564.63 149.85 550.41 119.05"/><path class="cls-5" d="M550.41,119.05h0c3.7-2.28,16.5-5.08,16.5-5.08l24.73-2.69,21.46,9.85-8.82,36.93L612,227.69l-73.65,4Z"/><rect class="cls-2" x="579.77" y="149.94" width="12.69" height="3.42"/><path class="cls-4" d="M592.48,153.39H579.75v-3.47h12.73Zm-12.68,0h12.63V150H579.8Z"/><path class="cls-4" d="M547.33,140.42a31,31,0,0,1-.36-5.67,30.12,30.12,0,0,1,.16-5.68,32.2,32.2,0,0,1,.36,5.67A30,30,0,0,1,547.33,140.42Z"/><path class="cls-10" d="M593.73,77.39,591,115.74a12,12,0,0,1-11.93,11.11h0a12,12,0,0,1-11.93-12.74c.24-3.65.46-6.64.46-6.64s-9.29-1.44-9.4-10.72c-.07-5.36.86-17.53,1.65-26.85A12.17,12.17,0,0,1,572,58.77h5.61A17.17,17.17,0,0,1,593.73,77.39Z"/><path class="cls-11" d="M567.61,107.34a21.54,21.54,0,0,0,12.1-3.44s-2.86,6.68-12.12,5.84Z"/><path class="cls-4" d="M561.77,81.63A1.33,1.33,0,0,0,563.05,83a1.25,1.25,0,0,0,1.36-1.19,1.32,1.32,0,0,0-1.27-1.34A1.26,1.26,0,0,0,561.77,81.63Z"/><path class="cls-4" d="M561.48,79.21c.17.17,1.17-.57,2.6-.57s2.47.72,2.62.55-.09-.39-.55-.72a3.56,3.56,0,0,0-2.1-.65,3.47,3.47,0,0,0-2.06.66C561.55,78.82,561.4,79.13,561.48,79.21Z"/><path class="cls-4" d="M575.48,81.63A1.33,1.33,0,0,0,576.76,83a1.27,1.27,0,0,0,1.37-1.19,1.33,1.33,0,0,0-1.28-1.34A1.27,1.27,0,0,0,575.48,81.63Z"/><path class="cls-4" d="M575.5,79.48c.17.17,1.17-.57,2.6-.57s2.47.72,2.62.54-.09-.39-.55-.72a3.63,3.63,0,0,0-2.1-.65,3.54,3.54,0,0,0-2.06.67C575.57,79.09,575.42,79.4,575.5,79.48Z"/><path class="cls-4" d="M570.46,89.7a9.93,9.93,0,0,0-2.32-.42c-.36,0-.71-.11-.77-.35a1.85,1.85,0,0,1,.24-1.08c.35-.88.7-1.81,1.08-2.78,1.5-3.95,2.58-7.19,2.42-7.25s-1.5,3.09-3,7l-1,2.79a2.13,2.13,0,0,0-.19,1.43.92.92,0,0,0,.6.53,2.5,2.5,0,0,0,.62.09A9.15,9.15,0,0,0,570.46,89.7Z"/><path class="cls-4" d="M575.13,74.53c.14.39,1.57.2,3.24.41s3,.65,3.25.31c.1-.17-.14-.53-.68-.91a5.37,5.37,0,0,0-2.41-.84,5.51,5.51,0,0,0-2.53.29C575.38,74,575.07,74.35,575.13,74.53Z"/><path class="cls-4" d="M561.5,76.41c.25.33,1.23,0,2.41,0s2.18.22,2.41-.12c.1-.16-.05-.49-.49-.79a3.26,3.26,0,0,0-2-.53,3.3,3.3,0,0,0-1.93.65C561.52,75.92,561.39,76.25,561.5,76.41Z"/><path class="cls-10" d="M590.6,84.36c.16-.07,6.38-1.89,6.18,4.46s-6.53,4.83-6.54,4.65S590.6,84.36,590.6,84.36Z"/><path class="cls-11" d="M592.26,91.13s.11.08.29.17a1.11,1.11,0,0,0,.82,0,2.73,2.73,0,0,0,1.35-2.41,3.77,3.77,0,0,0-.26-1.6,1.28,1.28,0,0,0-.8-.87.58.58,0,0,0-.67.28c-.09.18,0,.3-.08.31s-.14-.11-.08-.37a.74.74,0,0,1,.26-.39.86.86,0,0,1,.62-.14,1.55,1.55,0,0,1,1.12,1,3.71,3.71,0,0,1,.33,1.78,2.86,2.86,0,0,1-1.7,2.69,1.19,1.19,0,0,1-1-.2C592.26,91.28,592.23,91.14,592.26,91.13Z"/><path class="cls-4" d="M594.13,84.14a3.34,3.34,0,0,0-3,1.57c-.41.9-.5,1.93-.92,2.84A2.24,2.24,0,0,1,587.85,90a2,2,0,0,1-1.32-1.44,5.65,5.65,0,0,1,0-2c.38-3,1-5.9,1.12-8.89A15.27,15.27,0,0,0,585.76,69a8.34,8.34,0,0,0-7.43-4.18c-2,.16-3.78,1.19-5.74,1.46a7.72,7.72,0,0,1-6.44-2.15,14.7,14.7,0,0,0-1.2-.86,3.59,3.59,0,0,1,.67-2c3.88-3.6,10.89-4.6,16-3.31a18.51,18.51,0,0,1,12.16,9.73c2.21,4.81,1.55,11.5.33,16.37"/><path class="cls-5" d="M559.78,68.47s24.35-7.83,34.88,13.23c0,0,1.58-5.27,1.58-8.09,0-1.89-1.13-13.13-12.7-16.67C583.54,56.94,566.11,50.29,559.78,68.47Z"/><path class="cls-4" d="M580.7,69a5.3,5.3,0,0,1-8.43.76,3.12,3.12,0,0,1-5.9-.31A7,7,0,0,1,564,71.18a2.43,2.43,0,0,1-2.71-.56,2.35,2.35,0,0,1,.17-2.79,5.81,5.81,0,0,1,2.47-1.67,17.92,17.92,0,0,1,9.19-1.39,12.38,12.38,0,0,1,8,4.39"/><g class="cls-12"><path d="M559.78,68.47A11.27,11.27,0,0,1,567.52,65c7.18-.32,20.63,3.72,27.14,16.74,0,0,1.58-5.27,1.58-8.09,0-1.89-1.13-13.13-12.7-16.67C583.54,56.94,566.11,50.29,559.78,68.47Z"/></g><path class="cls-5" d="M593.64,79.24a45.88,45.88,0,0,0-14.18-13.59c-5.6-3.5-14.85-7-21.23-8.65a13.84,13.84,0,0,0-5.87-.61A5.28,5.28,0,0,0,548,59.94c-.6,2.41,3.67,6.12,5.67,7.58a66.12,66.12,0,0,0,6.1,3.6s-.06-4.46,7.08-5.38C576.57,64.49,593.64,79.24,593.64,79.24Z"/><path class="cls-3" d="M573.67,61a22.84,22.84,0,0,0-7-2.39,9.15,9.15,0,0,1,1.91-1.15A18.27,18.27,0,0,1,574,59.34Z"/><path class="cls-1" d="M592.25,84.58a13.27,13.27,0,0,1-1.31,1l-3.2,2.34A34.13,34.13,0,0,1,583.08,91a27.74,27.74,0,0,1,4.35-3.56C589.93,85.64,592.15,84.37,592.25,84.58Z"/><path class="cls-1" d="M592.9,93.83a19.36,19.36,0,0,1-8.51,7.23c-.08-.14,2.11-1.38,4.45-3.38S592.78,93.74,592.9,93.83Z"/><path class="cls-2" d="M558,90.76a20.43,20.43,0,0,0,3.18.69c4.59-.25,6.21-1.8,13.71-.2a10.4,10.4,0,0,0,3.69.11,31.56,31.56,0,0,1,4.5-.32l1.44,10s-8.91,7.79-16.93,6.92C557.22,106.86,556,94.76,558,90.76Z"/><path class="cls-4" d="M558,90.76s-.09.27-.27.74a11.34,11.34,0,0,0-.43,2.18,15.83,15.83,0,0,0,1.45,8,10.85,10.85,0,0,0,9.63,6.27,17,17,0,0,0,7-1.39,34.18,34.18,0,0,0,6.73-3.74c.82-.58,1.62-1.18,2.36-1.81l0,.1c-.5-3.52-1-6.89-1.44-10l.1.08a39.31,39.31,0,0,0-5.31.4,10.44,10.44,0,0,1-2.51-.13c-.8-.15-1.56-.33-2.32-.44a24.15,24.15,0,0,0-4.28-.36A22,22,0,0,0,565,91c-1.11.19-2.1.34-3,.42a6.31,6.31,0,0,1-1.22,0c-.37,0-.7-.13-1-.2-1.18-.28-1.81-.5-1.81-.5a12,12,0,0,0,7,.13,23,23,0,0,1,3.67-.42,24.4,24.4,0,0,1,4.31.33c.76.11,1.53.29,2.32.43a10.11,10.11,0,0,0,2.47.13,40.54,40.54,0,0,1,5.32-.42h.08V91c.46,3.14,1,6.51,1.46,10v0l0,0c-.75.64-1.55,1.24-2.38,1.82a33.79,33.79,0,0,1-6.77,3.76,17.13,17.13,0,0,1-7.06,1.39,11.69,11.69,0,0,1-6.16-2,11.46,11.46,0,0,1-3.6-4.37,15.77,15.77,0,0,1-1.4-8,10.94,10.94,0,0,1,.47-2.19Z"/><path class="cls-3" d="M558.84,96.61a24.47,24.47,0,0,0,22.27-.41,16.11,16.11,0,0,1-4.73,4.29c-2.2,1.12-4.76,1.17-7.22,1.17a12.9,12.9,0,0,1-5.76-.92,13.23,13.23,0,0,1-4.31-4.15"/><path class="cls-3" d="M580.05,94.08a12.49,12.49,0,0,1-2.87.76,46.41,46.41,0,0,1-14.31.51A13.54,13.54,0,0,1,560,94.8a23.19,23.19,0,0,1,3,.18,64.37,64.37,0,0,0,7.12.15,64.92,64.92,0,0,0,7.09-.65A26.73,26.73,0,0,1,580.05,94.08Z"/><path class="cls-3" d="M581.78,98.26a8.55,8.55,0,0,1-2,2,16.8,16.8,0,0,1-6,3.08,17,17,0,0,1-6.75.46,8.12,8.12,0,0,1-2.71-.7c0-.09,1,.19,2.75.33A18.4,18.4,0,0,0,579.59,100C581,99,581.71,98.2,581.78,98.26Z"/><path class="cls-4" d="M581.93,96a3.6,3.6,0,0,1-.8.52,19,19,0,0,1-2.35,1.09,24.64,24.64,0,0,1-3.69,1.09,25,25,0,0,1-9.4.15,23.91,23.91,0,0,1-3.72-1,18,18,0,0,1-2.38-1,3.37,3.37,0,0,1-.82-.49c0-.09,1.25.52,3.31,1.15a27.79,27.79,0,0,0,3.69.86,30.38,30.38,0,0,0,4.62.32,29.31,29.31,0,0,0,4.6-.47,27.26,27.26,0,0,0,3.66-1C580.7,96.51,581.89,95.87,581.93,96Z"/><path class="cls-4" d="M574.48,96a18.67,18.67,0,0,1-6,.45,19,19,0,0,1-5.89-.93c0-.15,2.65.29,5.91.41S574.46,95.81,574.48,96Z"/><polygon class="cls-5" points="464.05 220.64 464.05 139.55 576.85 139.55 576.85 220.64 517.07 221.14 464.05 220.64"/><g class="cls-12"><rect x="464.05" y="139.55" width="112.8" height="81.09"/></g><polygon class="cls-5" points="517.07 221.14 464.05 220.64 464.05 139.55 516.89 139.55 517.07 221.14"/><rect class="cls-4" x="485.6" y="139.55" width="7.03" height="14.07"/><rect class="cls-2" x="467.81" y="202.74" width="14" height="14"/><path class="cls-4" d="M481.84,216.77h-14V202.72h14Zm-14-.05h14V202.77h-14Z"/><path class="cls-10" d="M603.25,158.16,605.58,177l-35,20.77,5.44,12,39.78-16.07c4.82-2.44,9-6.06,8.61-11.49l-1.92-26.4Z"/><path class="cls-5" d="M613.1,121.13a19,19,0,0,1,6.39,11.37c1.34,7.31,5.89,27.75,5.89,27.75l-24,2.83,0-5.61c0-.08-2.23-10.54-2.23-10.54l4.47-14.43Z"/><path class="cls-4" d="M624.43,160.33a9.85,9.85,0,0,1-1.64.3l-4.49.62c-3.8.5-9,1.16-14.84,1.85l-2,.24-.27,0,0-.27c-.4-5.35-.84-10.1-1.17-13.52-.16-1.64-.29-3-.39-4a8.2,8.2,0,0,1-.08-1.48,8.75,8.75,0,0,1,.27,1.45c.15.95.34,2.32.55,4,.42,3.41.92,8.16,1.33,13.53l-.29-.24,2-.25c5.8-.69,11.06-1.29,14.86-1.69l4.51-.46A10.86,10.86,0,0,1,624.43,160.33Z"/><path class="cls-4" d="M611.14,122.44c0,.09-.87.46-2.2,1.28a19.11,19.11,0,0,0-7.73,9.14c-.58,1.45-.8,2.4-.89,2.38a7.82,7.82,0,0,1,.55-2.51,16.94,16.94,0,0,1,7.88-9.33A7.82,7.82,0,0,1,611.14,122.44Z"/><path class="cls-2" d="M570,196.76l-5.14,2.35-2.21-.85-11.21-.7-7,1.55-.2.4c0,3.81,7.22,2.31,9.42,2.91s.2,5.31.2,5.31-9.92,12.93-11.65,16c-.86,1.56-.58,2.41-.08,2.87a1.48,1.48,0,0,0,1.87.07l3.67-2.59s10.07.59,10.77.24a10.53,10.53,0,0,0,2.44-2.59,76.42,76.42,0,0,1,16-11.77Z"/><path class="cls-4" d="M570,196.76l.12.2c.1.17.21.39.36.66l1.37,2.58c1.22,2.3,3,5.6,5.11,9.71l.08.15-.15.08a77,77,0,0,0-15.88,11.79l0,0a10.7,10.7,0,0,1-2.34,2.58,1.23,1.23,0,0,1-.51.18l-.45,0-.89,0c-.6,0-1.2,0-1.8,0-2.41-.06-4.89-.18-7.43-.32l.16,0L545.45,226l-1.21.86a1.85,1.85,0,0,1-1.62.33,1.65,1.65,0,0,1-1.16-1.23,2.76,2.76,0,0,1,.2-1.62,16.71,16.71,0,0,1,1.59-2.66c3.49-5,7.07-9.7,10.42-14.1l0,0a11.8,11.8,0,0,0,.66-2.09,4.66,4.66,0,0,0,.07-2.06,1.13,1.13,0,0,0-.5-.71,2.59,2.59,0,0,0-.93-.23c-.69-.06-1.39,0-2.09-.06a20.79,20.79,0,0,1-4.11-.29,4.3,4.3,0,0,1-1.87-.82,2.46,2.46,0,0,1-.83-1.86v0l0,0,.2-.4,0-.1.1,0,7-1.53h0l11.21.76h0l2.2.87h-.09l3.88-1.71,1-.42a1.61,1.61,0,0,1,.33-.12l-.35.18-1,.47-3.77,1.8,0,0,0,0-2.21-.83h0l-11.22-.64h.06l-7,1.58.14-.11c-.06.13-.13.26-.2.4l0-.1a2.07,2.07,0,0,0,.68,1.52,4,4,0,0,0,1.69.72,20.24,20.24,0,0,0,4,.26c.7,0,1.41,0,2.14.06a2.89,2.89,0,0,1,1.13.28,1.68,1.68,0,0,1,.72,1,5.09,5.09,0,0,1-.06,2.3,13.39,13.39,0,0,1-.68,2.18v0l0,0c-3.34,4.41-6.92,9.09-10.39,14.09a16.18,16.18,0,0,0-1.53,2.56,2.19,2.19,0,0,0-.18,1.31,1.14,1.14,0,0,0,.79.85,1.34,1.34,0,0,0,1.19-.26l1.2-.85,2.38-1.68.07-.05h.09c2.54.15,5,.27,7.41.34.6,0,1.2,0,1.78,0h.88l.41,0a.73.73,0,0,0,.31-.11,10.45,10.45,0,0,0,2.21-2.43l0,0h0a75.87,75.87,0,0,1,16-11.75l-.07.23-4.9-9.72-1.32-2.64c-.13-.29-.25-.52-.33-.7A1,1,0,0,1,570,196.76Z"/><path class="cls-4" d="M557.17,215.38a50.45,50.45,0,0,1-4.63,4.49c-1.31,1.21-2.5,2.29-3.38,3.06a8.61,8.61,0,0,1-1.48,1.18c-.12-.12,1.89-2.2,4.51-4.62A33.29,33.29,0,0,1,557.17,215.38Z"/><path class="cls-4" d="M560.22,217.89a14.68,14.68,0,0,1-2.91,3.52,17.68,17.68,0,0,1-3.45,3,23.1,23.1,0,0,1,3.08-3.36A32.22,32.22,0,0,1,560.22,217.89Z"/></g><g id="Plant"><path class="cls-5" d="M88.66,409.83c.84-3.26-1.29-6.52-3.68-8.88s-5.25-4.47-6.49-7.59c-2-5.06.69-11.6-2.74-15.82-2-2.48-5.65-3.31-7.45-6a13.59,13.59,0,0,1-1.61-4.74,48.09,48.09,0,0,0-12-22.38A41.64,41.64,0,0,0,59.42,366c1.39,2.65,3.1,5.24,3.56,8.2.75,4.8-1.93,9.75-.75,14.47,1.35,5.4,7.41,9,7.7,14.56.24,4.7-3.85,8.82-3.55,13.51a12.71,12.71,0,0,0,2.09,5.57c3.63,6,9,10.19,17,10.06l9.9.34Z"/><g class="cls-8"><path d="M88.66,409.83c.84-3.26-1.29-6.52-3.68-8.88s-5.25-4.47-6.49-7.59c-2-5.06.69-11.6-2.74-15.82-2-2.48-5.65-3.31-7.45-6a13.59,13.59,0,0,1-1.61-4.74,48.09,48.09,0,0,0-12-22.38A41.64,41.64,0,0,0,59.42,366c1.39,2.65,3.1,5.24,3.56,8.2.75,4.8-1.93,9.75-.75,14.47,1.35,5.4,7.41,9,7.7,14.56.24,4.7-3.85,8.82-3.55,13.51a12.71,12.71,0,0,0,2.09,5.57c3.63,6,9,10.19,17,10.06l9.9.34Z"/></g><path class="cls-4" d="M97.42,433a7.91,7.91,0,0,0,2.73-.06,16.23,16.23,0,0,0,3.22-.81,13.68,13.68,0,0,0,4-2.17,5.59,5.59,0,0,0,1.64-2.18,10.24,10.24,0,0,0,.46-3c.06-1,.06-2.11.23-3.2a9,9,0,0,1,1.21-3.19c1.17-2.05,3.11-4,3.74-6.77s.19-5.71-.27-8.68-.91-6.21.23-9.3,3.23-5.9,4.32-9.39.57-7.32.8-11.06a14.79,14.79,0,0,1,1.29-5.49c.8-1.76,1.92-3.41,2.78-5.25,1.76-3.74,2.07-8,2.55-12.11.24-2.08.47-4.19.71-6.32a31.54,31.54,0,0,1,1.1-6.33,56.08,56.08,0,0,1,2.37-6.13,20.56,20.56,0,0,0,1.15-3.2A33.27,33.27,0,0,0,132,325a40.3,40.3,0,0,0-.26-6.85c-.27-2.29-.69-4.55-.93-6.84,0-.14,0-.27-.05-.4l0-.45-.4.2a15.19,15.19,0,0,0-5.33,4.5,24.39,24.39,0,0,0-3.28,6c-1.65,4.26-2.25,8.72-3.08,13s-1.89,8.44-4.07,12c-1.08,1.77-2.4,3.38-3.55,5.1a14,14,0,0,0-2.45,5.64c-.59,4.19,1.72,7.87,1.24,11.58a12.92,12.92,0,0,1-1.81,5.14c-.9,1.58-2,3-3,4.52a28.71,28.71,0,0,0-2.65,4.57,14.34,14.34,0,0,0-1.22,5c-.24,3.34.23,6.51,0,9.5a21.91,21.91,0,0,1-2.45,8.14c-1.19,2.43-2.53,4.64-3.64,6.77a34.61,34.61,0,0,0-1.5,3.16,15,15,0,0,0-.87,3.13,19.59,19.59,0,0,0-.08,5.65,14.25,14.25,0,0,0,2.84,7.21,6.84,6.84,0,0,0,.8.86,4.26,4.26,0,0,0,.65.56c.37.27.56.39.56.39a12.76,12.76,0,0,1-1.91-1.89A14.38,14.38,0,0,1,92.82,424a19.51,19.51,0,0,1,.13-5.57,14.83,14.83,0,0,1,.87-3.06c.42-1,1-2.06,1.51-3.11,1.13-2.12,2.47-4.31,3.7-6.76a22.47,22.47,0,0,0,2.53-8.29c.26-3.05-.2-6.23,0-9.49a13.88,13.88,0,0,1,1.19-4.8,29.19,29.19,0,0,1,2.63-4.47c1-1.47,2.07-2.94,3-4.56a13.14,13.14,0,0,0,1.89-5.34c.48-4-1.81-7.66-1.21-11.55a13.35,13.35,0,0,1,2.37-5.4c1.13-1.69,2.45-3.3,3.57-5.11,2.25-3.63,3.34-7.9,4.16-12.17s1.44-8.69,3.06-12.86a23.78,23.78,0,0,1,3.19-5.88,14.68,14.68,0,0,1,5.11-4.31l-.46-.25c0,.12,0,.26.05.4.25,2.31.66,4.58.92,6.84a40.22,40.22,0,0,1,.27,6.75,31.57,31.57,0,0,1-.31,3.3,19.05,19.05,0,0,1-1.11,3.09,58.28,58.28,0,0,0-2.39,6.2,32.09,32.09,0,0,0-1.11,6.43q-.36,3.21-.7,6.34c-.48,4.16-.79,8.32-2.48,11.92-.83,1.79-1.94,3.45-2.77,5.26a15.26,15.26,0,0,0-1.33,5.7c-.21,3.82.29,7.55-.75,10.94s-3.18,6.18-4.28,9.37-.68,6.58-.21,9.54,1,5.88.32,8.51-2.45,4.59-3.64,6.69a9.12,9.12,0,0,0-1.23,3.32,26.26,26.26,0,0,0-.21,3.24,10,10,0,0,1-.42,2.87,5.26,5.26,0,0,1-1.54,2.09A13.73,13.73,0,0,1,103.3,432a17.6,17.6,0,0,1-3.17.86,12.17,12.17,0,0,1-2,.19C97.66,433,97.42,433,97.42,433Z"/><path class="cls-4" d="M128.71,316.35a1.61,1.61,0,0,0-.1.3c-.05.24-.13.53-.21.9-.2.77-.43,1.95-.8,3.42s-1.29,3.13-2.06,5.17a73,73,0,0,0-2.35,7c-.76,2.64-1.43,5.57-2.13,8.71a36.48,36.48,0,0,1-3.17,9.67c-.81,1.61-1.72,3.24-2.45,5a23.53,23.53,0,0,0-1.42,5.68,115.82,115.82,0,0,1-2.14,12c-2,8.11-3.88,15.84-5.6,22.88l-4.69,18.66c-1.3,5.28-2.36,9.57-3.11,12.59-.34,1.45-.62,2.6-.81,3.44-.08.36-.15.65-.2.89a1.43,1.43,0,0,0,0,.31s0-.09.11-.29.16-.53.26-.88c.23-.83.54-2,.93-3.41.79-3,1.92-7.28,3.31-12.54s3-11.63,4.82-18.63,3.65-14.76,5.65-22.88a112.36,112.36,0,0,0,2.13-12A22.72,22.72,0,0,1,116,356.8c.69-1.74,1.59-3.36,2.41-5a37.35,37.35,0,0,0,3.16-9.82c.68-3.15,1.32-6.08,2-8.71s1.49-5,2.25-7,1.6-3.72,2-5.23.54-2.67.69-3.47c.06-.37.12-.66.16-.9A1.27,1.27,0,0,0,128.71,316.35Z"/><path class="cls-5" d="M99.17,433c6.47-3.84,8.33-15.51,5.63-22.53s-7.42-13.44-8.15-20.93c-.56-5.76,1.33-11.67,0-17.29-1.8-7.6-9.22-13.48-9.13-21.28,0-4.38,2.54-8.5,2.34-12.88-.24-5.36-4.36-9.62-6.91-14.35-3.91-7.23-4.17-15.79-5.5-23.9S73,283.07,65.81,279.08c-1.06,6.89-2.87,11.6-2.3,20.94.2,3.35,4.09,9.76,4.62,17.11.32,4.39.54,8.78.81,13.18s.53,8.62,2.07,12.62c1.17,3.07,3.06,5.85,3.93,9,1.64,5.95-.51,12.4.81,18.43,1.12,5.11,4.66,9.5,5.38,14.69,1,7.28-3.7,14.84-1.28,21.78,1.19,3.45,4,6.22,4.83,9.77.63,2.77-.05,5.69.51,8.46.91,4.47,9.43,7.94,14,7.66"/><path class="cls-4" d="M67.59,285.92a1.92,1.92,0,0,0,0,.39c0,.28.09.66.15,1.13.15,1,.31,2.45.65,4.34s1.34,4,2.12,6.62,1.65,5.53,2.37,8.85,1.36,7,2,10.95,1.35,8.26,3.31,12.37c.91,2.07,1.93,4.14,2.69,6.34a28.58,28.58,0,0,1,1.36,7A143.68,143.68,0,0,0,84.18,359l5.59,28.77,4.81,23.44c1.39,6.64,2.51,12,3.3,15.79q.6,2.75.93,4.29c.1.46.19.82.26,1.11a2.18,2.18,0,0,0,.1.37,1.56,1.56,0,0,0,0-.38c0-.29-.12-.66-.2-1.13-.19-1-.46-2.47-.81-4.31-.74-3.78-1.8-9.18-3.1-15.83s-2.92-14.64-4.68-23.46l-5.53-28.77a142.12,142.12,0,0,1-1.9-15,29.28,29.28,0,0,0-1.42-7.13c-.78-2.25-1.81-4.32-2.72-6.38-2-4.05-2.64-8.28-3.33-12.22s-1.32-7.63-2.09-10.95-1.61-6.3-2.47-8.87-1.83-4.71-2.22-6.56-.58-3.33-.77-4.31c-.08-.47-.15-.84-.2-1.12A1.26,1.26,0,0,0,67.59,285.92Z"/></g><g id="Doorbell"><rect class="cls-9" x="404.99" y="101.29" width="32.14" height="45.05"/><rect class="cls-4" x="404.99" y="101.29" width="32.14" height="5.22"/><rect class="cls-4" x="404.99" y="141.12" width="32.14" height="5.22"/><rect class="cls-4" x="411.26" y="109.72" width="19.53" height="10.18"/><path class="cls-9" d="M425.65,114.81s0-.41-.24-1.09a4.59,4.59,0,0,0-1.68-2.41,4.44,4.44,0,0,0-4.15-.58,4.35,4.35,0,0,0,0,8.16,4.44,4.44,0,0,0,4.15-.58,4.59,4.59,0,0,0,1.68-2.41c.2-.68.19-1.09.24-1.09s0,.1,0,.3a3.66,3.66,0,0,1-.08.84A4.63,4.63,0,0,1,424,118.6a4.76,4.76,0,0,1-4.53.74,4.81,4.81,0,0,1,0-9.06A4.76,4.76,0,0,1,424,111a4.63,4.63,0,0,1,1.66,2.65,3.66,3.66,0,0,1,.08.84C425.68,114.71,425.67,114.81,425.65,114.81Z"/><path class="cls-4" d="M413.51,123.81a.76.76,0,1,1-1.51,0,.76.76,0,0,1,1.51,0Z"/><path class="cls-4" d="M419.25,123.81a.76.76,0,0,1-1.52,0,.76.76,0,0,1,1.52,0Z"/><path class="cls-4" d="M425,123.81a.76.76,0,0,1-1.52,0,.76.76,0,0,1,1.52,0Z"/><circle class="cls-4" cx="412.75" cy="128.67" r="0.76"/><path class="cls-4" d="M419.25,128.67a.76.76,0,1,1-.76-.76A.76.76,0,0,1,419.25,128.67Z"/><circle class="cls-4" cx="424.22" cy="128.67" r="0.76"/><circle class="cls-4" cx="412.75" cy="133.53" r="0.76"/><path class="cls-4" d="M419.25,133.53a.76.76,0,1,1-.76-.76A.76.76,0,0,1,419.25,133.53Z"/><circle class="cls-4" cx="424.22" cy="133.53" r="0.76"/><circle class="cls-5" cx="430.18" cy="128.67" r="2.75"/></g><g id="Door"><rect class="cls-4" x="372.68" width="18.6" height="432.74"/><rect class="cls-9" x="187.46" y="18.26" width="185.21" height="414.49"/><rect class="cls-4" x="175.52" width="17.14" height="432.74"/><rect class="cls-4" x="175.52" width="215.76" height="18.26"/><path class="cls-9" d="M391.28,0a3.82,3.82,0,0,1-.7.73l-2,1.84-6.66,6c-2.59,2.37-4.9,4.55-6.48,6.21a19.79,19.79,0,0,0-1.77,2,4.78,4.78,0,0,0-.38.61c0,.15-.08.24-.1.24s0-.09,0-.27a2.91,2.91,0,0,1,.31-.69,15.55,15.55,0,0,1,1.67-2.18,89.66,89.66,0,0,1,6.4-6.35c2.59-2.37,5-4.45,6.77-5.92.89-.74,1.61-1.32,2.12-1.72A3.55,3.55,0,0,1,391.28,0Z"/><path class="cls-9" d="M192.65,18.63c-.1.1-4-4-8.76-9.13S175.41.1,175.52,0s4,4,8.76,9.14S192.76,18.54,192.65,18.63Z"/><rect class="cls-4" x="197.52" y="206.86" width="12.46" height="55.36" rx="5.97"/><path class="cls-9" d="M206.28,248.62a2.1,2.1,0,1,0-3.05,1.87v2.44a1,1,0,0,0,1,.94h0a.94.94,0,0,0,.94-.94v-2.44A2.11,2.11,0,0,0,206.28,248.62Z"/><rect class="cls-4" x="203.58" y="225.5" width="34.31" height="6.62" rx="3.17"/><path class="cls-9" d="M216.05,232.31a4.15,4.15,0,0,1-1,.09l-2.84.12a25.38,25.38,0,0,1-4.25-.14,9.36,9.36,0,0,1-2.47-.63,4.36,4.36,0,0,1-2.12-1.81,3.17,3.17,0,0,1-.13-2.81,2.32,2.32,0,0,1,1-1,6.45,6.45,0,0,1,1.16-.5,13.71,13.71,0,0,1,4.24-.5c1.2,0,2.17.06,2.84.1a4.28,4.28,0,0,1,1.05.12,32.67,32.67,0,0,1-3.89.15,14,14,0,0,0-4.08.59,2.74,2.74,0,0,0-1.81,1.29,2.69,2.69,0,0,0,.13,2.34,4,4,0,0,0,1.87,1.6,8.91,8.91,0,0,0,2.33.61,27.87,27.87,0,0,0,4.17.25A21.15,21.15,0,0,1,216.05,232.31Z"/><path class="cls-4" d="M275,111.06s0-.11,0-.33,0-.54,0-1c0-.85,0-2.08,0-3.68,0-3.23,0-7.92-.06-13.86,0-11.89-.07-28.78-.12-48.87l.24.23-55,0h0l.27-.26c0,25,0,48.33-.05,67.69l-.22-.21,39.85.11L271,111l2.94,0,1,0-1,0-2.91,0-11.1.06-40,.11h-.21v-.22c0-19.36,0-42.65,0-67.69v-.26H220l55,0h.23v.24c-.05,20.15-.09,37.09-.12,49,0,5.92,0,10.59-.06,13.81,0,1.57,0,2.79,0,3.63,0,.4,0,.7,0,.93A2.86,2.86,0,0,1,275,111.06Z"/><path class="cls-4" d="M265.92,102.69a1.61,1.61,0,0,1,0-.26c0-.19,0-.43,0-.74,0-.66,0-1.61,0-2.82,0-2.49,0-6.08-.06-10.61,0-9.09-.07-22-.12-37.19l.24.24-37.87,0c-.06,0,.49-.49.26-.26V65.23c0,4.61,0,9.1,0,13.44,0,8.68,0,16.77,0,24l-.21-.22,27.48.11,7.66.06,2,0,.71,0-.66,0-2,0-7.61.06-27.61.11h-.21v-.21c0-7.25,0-15.34,0-24,0-4.34,0-8.83,0-13.44V51.08l.26-.27,37.87,0h.23v.23c0,15.3-.08,28.22-.11,37.34C266,92.93,266,96.5,266,99c0,1.19,0,2.12,0,2.78l0,.71A2.07,2.07,0,0,1,265.92,102.69Z"/><path class="cls-4" d="M275,254s0-.22,0-.63,0-1,0-1.82c0-1.61,0-4,0-7,0-6.14,0-15.07-.07-26.3,0-22.43-.07-54-.12-90.78l.25.25H220l.27-.26c0,49.29-.06,94-.08,126.57l-.19-.19,40.16.1,11,0,2.86,0,1,0-1,0-2.83,0-10.91.05-40.28.1h-.18V254c0-32.58,0-77.28-.08-126.57v-.26h55.48v.25c-.05,36.81-.09,68.47-.12,91,0,11.21-.06,20.12-.07,26.24,0,3,0,5.39,0,7,0,.78,0,1.38,0,1.79S275,254,275,254Z"/><path class="cls-4" d="M265.92,247s0-.2,0-.57,0-.92,0-1.62c0-1.45,0-3.55,0-6.28,0-5.46,0-13.4-.07-23.34,0-19.89-.07-47.79-.11-79.95l.25.25H228.05l.26-.26c0,44.68-.07,84.78-.09,111.76l-.17-.18,27.78.1,7.48,0,1.94,0,.67,0h-.64l-1.91,0-7.43,0-27.89.1h-.17V247c0-27-.06-67.08-.09-111.76v-.26h38.38v.25c-.05,32.23-.09,60.19-.12,80.12,0,9.92-.05,17.84-.07,23.29,0,2.7,0,4.79,0,6.22,0,.69,0,1.22,0,1.6S265.92,247,265.92,247Z"/><path class="cls-4" d="M275,414.26s0-.22,0-.63,0-1,0-1.82c0-1.61,0-4,0-7,0-6.14,0-15.07-.07-26.3,0-22.44-.07-54-.12-90.78l.25.25H220l.27-.26c0,49.29-.06,94-.08,126.57l-.19-.19,40.16.1,11,.05,2.86,0,1,0-1,0-2.83,0-10.91.05-40.28.1h-.18v-.19c0-32.58,0-77.28-.08-126.57v-.26h55.48v.25c-.05,36.8-.09,68.47-.12,90.95,0,11.21-.06,20.12-.07,26.24,0,3,0,5.39,0,7,0,.78,0,1.38,0,1.79S275,414.26,275,414.26Z"/><path class="cls-4" d="M265.92,407.25s0-.2,0-.57,0-.92,0-1.63c0-1.44,0-3.54,0-6.27,0-5.46,0-13.4-.07-23.35,0-19.88-.07-47.78-.11-79.94l.25.25H228.05l.26-.26c0,44.68-.07,84.78-.09,111.76l-.17-.18,27.78.1,7.48,0,1.94,0c.44,0,.67,0,.67,0h-.64l-1.91,0-7.43,0-27.89.1h-.17v-.17c0-27-.06-67.08-.09-111.76v-.26h38.38v.25c-.05,32.23-.09,60.19-.12,80.12,0,9.92-.05,17.83-.07,23.29,0,2.7,0,4.79,0,6.22,0,.69,0,1.22,0,1.59S265.92,407.25,265.92,407.25Z"/><path class="cls-4" d="M228.93,102.66a37.33,37.33,0,0,1-4.7,4.16,37.82,37.82,0,0,1-5,3.76,38.28,38.28,0,0,1,4.7-4.16A37.82,37.82,0,0,1,228.93,102.66Z"/><path class="cls-4" d="M275.28,110.07a22.41,22.41,0,0,1-4.82-3.27,22,22,0,0,1-4.17-4.07c.1-.1,2,1.65,4.5,3.66S275.36,109.94,275.28,110.07Z"/><path class="cls-4" d="M274.15,45A27.34,27.34,0,0,1,270,48.31a28.39,28.39,0,0,1-4.45,2.92,26.92,26.92,0,0,1,4.14-3.34A27.68,27.68,0,0,1,274.15,45Z"/><path class="cls-4" d="M228.21,50.22a18.68,18.68,0,0,1-4.55-2.56,18.6,18.6,0,0,1-4-3.34A45.85,45.85,0,0,1,224,47.23,44.65,44.65,0,0,1,228.21,50.22Z"/><path class="cls-4" d="M227.85,135.35a14.72,14.72,0,0,1-4.61-3.76,15,15,0,0,1-3.18-5c.15-.08,1.41,2.27,3.57,4.69S227.94,135.22,227.85,135.35Z"/><path class="cls-4" d="M274.28,127.33a28.27,28.27,0,0,1-3.9,3.77,27.73,27.73,0,0,1-4.24,3.38,29,29,0,0,1,3.9-3.77A27.73,27.73,0,0,1,274.28,127.33Z"/><path class="cls-4" d="M227.83,247.52c.09.13-1.74,1.45-3.81,3.29s-3.61,3.48-3.73,3.38a15.26,15.26,0,0,1,3.39-3.77A15.5,15.5,0,0,1,227.83,247.52Z"/><path class="cls-4" d="M273.42,253.84a22.81,22.81,0,0,1-3.81-3.17,24,24,0,0,1-3.47-3.55,24.4,24.4,0,0,1,3.82,3.17A24.1,24.1,0,0,1,273.42,253.84Z"/><path class="cls-4" d="M228.76,297a79.45,79.45,0,0,1-8.86-9.23,38.46,38.46,0,0,1,4.62,4.44A37.83,37.83,0,0,1,228.76,297Z"/><path class="cls-4" d="M274.78,287.37a72,72,0,0,1-8.78,8.45,35.59,35.59,0,0,1,4.21-4.41A34.48,34.48,0,0,1,274.78,287.37Z"/><path class="cls-4" d="M226.93,406.59a24.83,24.83,0,0,1-3.23,4,25.11,25.11,0,0,1-3.62,3.62,25.27,25.27,0,0,1,3.24-4A26,26,0,0,1,226.93,406.59Z"/><path class="cls-4" d="M274.06,414.26a20.59,20.59,0,0,1-4.27-3.36,19.94,19.94,0,0,1-3.63-4,46,46,0,0,1,4,3.67A45.79,45.79,0,0,1,274.06,414.26Z"/><path class="cls-4" d="M348.12,111.06s0-.11,0-.33,0-.54,0-1c0-.85,0-2.08,0-3.68,0-3.23,0-7.92-.06-13.86,0-11.89-.07-28.78-.12-48.87l.24.23-55,0h0l.26-.26c0,25,0,48.33-.05,67.69l-.21-.21L333,111l11.15.06,2.94,0,1,0-1,0-2.91,0-11.1.06-40,.11h-.22v-.22c0-19.36,0-42.65-.05-67.69v-.26h.27l55,0h.23v.24c-.05,20.15-.09,37.09-.12,49,0,5.92,0,10.59-.06,13.81,0,1.57,0,2.79,0,3.63,0,.4,0,.7,0,.93A2.86,2.86,0,0,1,348.12,111.06Z"/><path class="cls-4" d="M339.07,102.69a1.61,1.61,0,0,1,0-.26c0-.19,0-.43,0-.74,0-.66,0-1.61,0-2.82,0-2.49,0-6.08-.06-10.61,0-9.09-.07-22-.12-37.19l.24.24-37.87,0c-.06,0,.49-.49.26-.26V65.23c0,4.61,0,9.1,0,13.44,0,8.68,0,16.77,0,24l-.21-.22,27.48.11,7.66.06,2,0,.71,0-.66,0-2,0-7.61.06-27.61.11H301v-.21c0-7.25,0-15.34,0-24,0-4.34,0-8.83,0-13.44V51.08l.26-.27,37.87,0h.24v.23c0,15.3-.08,28.22-.11,37.34,0,4.52-.05,8.09-.07,10.56,0,1.19,0,2.12,0,2.78l0,.71A2.07,2.07,0,0,1,339.07,102.69Z"/><path class="cls-4" d="M348.12,254s0-.22,0-.63,0-1,0-1.82c0-1.61,0-4,0-7,0-6.14,0-15.07-.07-26.3,0-22.43-.07-54-.12-90.78l.25.25h-55l.26-.26c0,49.29-.06,94-.08,126.57l-.18-.19,40.16.1,10.95,0,2.86,0,1,0-.95,0-2.83,0-10.91.05-40.27.1H293V254c0-32.58-.05-77.28-.08-126.57v-.26h55.48v.25c-.05,36.81-.09,68.47-.12,91,0,11.21-.06,20.12-.07,26.24,0,3,0,5.39,0,7,0,.78,0,1.38,0,1.79S348.12,254,348.12,254Z"/><path class="cls-4" d="M339.07,247s0-.2,0-.57,0-.92,0-1.62c0-1.45,0-3.55,0-6.28,0-5.46,0-13.4-.07-23.34,0-19.89-.07-47.79-.11-79.95l.25.25H301.2l.26-.26c0,44.68-.07,84.78-.09,111.76l-.17-.18,27.78.1,7.48,0,1.94,0,.67,0h-.64l-1.91,0-7.43,0-27.89.1H301V247c0-27-.06-67.08-.09-111.76v-.26h38.38v.25c-.05,32.23-.09,60.19-.12,80.12,0,9.92-.05,17.84-.07,23.29,0,2.7,0,4.79,0,6.22,0,.69,0,1.22,0,1.6S339.07,247,339.07,247Z"/><path class="cls-4" d="M348.12,414.26s0-.22,0-.63,0-1,0-1.82c0-1.61,0-4,0-7,0-6.14,0-15.07-.07-26.3,0-22.44-.07-54-.12-90.78l.25.25h-55l.26-.26c0,49.29-.06,94-.08,126.57l-.18-.19,40.16.1,10.95.05,2.86,0,1,0-.95,0-2.83,0-10.91.05-40.27.1H293v-.19c0-32.58-.05-77.28-.08-126.57v-.26h55.48v.25c-.05,36.8-.09,68.47-.12,90.95,0,11.21-.06,20.12-.07,26.24,0,3,0,5.39,0,7,0,.78,0,1.38,0,1.79S348.12,414.26,348.12,414.26Z"/><path class="cls-4" d="M339.07,407.25s0-.2,0-.57,0-.92,0-1.63c0-1.44,0-3.54,0-6.27,0-5.46,0-13.4-.07-23.35,0-19.88-.07-47.78-.11-79.94l.25.25H301.2l.26-.26c0,44.68-.07,84.78-.09,111.76l-.17-.18,27.78.1,7.48,0,1.94,0c.44,0,.67,0,.67,0h-.64l-1.91,0-7.43,0-27.89.1H301v-.17c0-27-.06-67.08-.09-111.76v-.26h38.38v.25c-.05,32.23-.09,60.19-.12,80.12,0,9.92-.05,17.83-.07,23.29,0,2.7,0,4.79,0,6.22,0,.69,0,1.22,0,1.59S339.07,407.25,339.07,407.25Z"/><path class="cls-4" d="M302.08,102.66a37.33,37.33,0,0,1-4.7,4.16,37.82,37.82,0,0,1-5,3.76,38.28,38.28,0,0,1,4.7-4.16A37.82,37.82,0,0,1,302.08,102.66Z"/><path class="cls-4" d="M348.43,110.07a22.41,22.41,0,0,1-4.82-3.27,22,22,0,0,1-4.17-4.07c.1-.1,2,1.65,4.5,3.66S348.51,109.94,348.43,110.07Z"/><path class="cls-4" d="M347.3,45a27.34,27.34,0,0,1-4.15,3.34,28.39,28.39,0,0,1-4.45,2.92,26.92,26.92,0,0,1,4.14-3.34A27.68,27.68,0,0,1,347.3,45Z"/><path class="cls-4" d="M301.36,50.22a18.89,18.89,0,0,1-4.55-2.56,18.6,18.6,0,0,1-4-3.34,44.39,44.39,0,0,1,4.31,2.91A44.65,44.65,0,0,1,301.36,50.22Z"/><path class="cls-4" d="M301,135.35a18.38,18.38,0,0,1-7.78-8.8c.14-.08,1.4,2.27,3.56,4.69S301.09,135.22,301,135.35Z"/><path class="cls-4" d="M347.43,127.33a28.27,28.27,0,0,1-3.9,3.77,27.73,27.73,0,0,1-4.24,3.38,29,29,0,0,1,3.9-3.77A27.73,27.73,0,0,1,347.43,127.33Z"/><path class="cls-4" d="M301,247.52c.09.13-1.74,1.45-3.81,3.29s-3.61,3.48-3.73,3.38a15.26,15.26,0,0,1,3.39-3.77A15.5,15.5,0,0,1,301,247.52Z"/><path class="cls-4" d="M346.57,253.84a23.28,23.28,0,0,1-3.81-3.17,24,24,0,0,1-3.47-3.55,24.4,24.4,0,0,1,3.82,3.17A24.1,24.1,0,0,1,346.57,253.84Z"/><path class="cls-4" d="M301.92,297a38.82,38.82,0,0,1-4.62-4.43,40,40,0,0,1-4.25-4.8,38.46,38.46,0,0,1,4.62,4.44A39.48,39.48,0,0,1,301.92,297Z"/><path class="cls-4" d="M347.93,287.37a72,72,0,0,1-8.78,8.45,35.59,35.59,0,0,1,4.21-4.41A34.48,34.48,0,0,1,347.93,287.37Z"/><path class="cls-4" d="M300.08,406.59a24.83,24.83,0,0,1-3.23,4,25.11,25.11,0,0,1-3.62,3.62,25.27,25.27,0,0,1,3.24-4A26,26,0,0,1,300.08,406.59Z"/><path class="cls-4" d="M347.21,414.26a20.59,20.59,0,0,1-4.27-3.36,19.94,19.94,0,0,1-3.63-4,46,46,0,0,1,4,3.67A45.79,45.79,0,0,1,347.21,414.26Z"/></g><g id="Box"><rect class="cls-5" x="333.31" y="344.57" width="122.66" height="88.18"/><path class="cls-4" d="M366.21,344.57c.18,0,0,18.61,0,18.61h-9.08V344.57Z"/><g class="cls-12"><rect x="394.64" y="344.57" width="61.33" height="88.18" transform="translate(850.61 777.31) rotate(180)"/></g><rect class="cls-2" x="337.05" y="415.48" width="16.42" height="11.62"/><path class="cls-4" d="M353.5,427.13H337V415.46H353.5Zm-16.42-.05h16.37V415.51H337.08Z"/><rect class="cls-2" x="356.5" y="415.48" width="8.21" height="11.62"/><path class="cls-4" d="M364.74,427.13h-8.26V415.46h8.26Zm-8.21-.05h8.16V415.51h-8.16Z"/></g></g></svg>