<?xml version="1.0" encoding="utf-8"?>
<!-- Generator: Adobe Illustrator 19.0.0, SVG Export Plug-In . SVG Version: 6.00 Build 0)  -->
<svg version="1.1" id="Capa_1" xmlns="http://www.w3.org/2000/svg" xmlns:xlink="http://www.w3.org/1999/xlink" x="0px" y="0px"
	 viewBox="-127.5 75.7 838.5 444.5" style="enable-background:new -127.5 75.7 838.5 444.5;" xml:space="preserve">
<style type="text/css">
	.st0{fill:#53AA2C;}
	.st1{fill:#A2D18D;}
	.st2{fill:#C8E4BB;}
</style>
<g>
	<path class="st0" d="M34.2,298.2L-116,159.4c-7.6-7-11.4-15.7-11.4-25.8c0-10.2,3.8-18.8,11.4-25.8l23.2-21.4
		c7.6-7,16.9-10.6,28-10.6s20.3,3.5,28,10.6l201.5,185.9c7.6,7,11.4,15.7,11.4,25.8s-3.8,18.8-11.4,25.8L-36.9,509.7
		c-7.6,7-17,10.6-28,10.6s-20.3-3.5-28-10.6l-23.2-21.4c-7.6-7-11.4-15.6-11.4-25.7c0-10.1,3.8-18.7,11.4-26L34.2,298.2z"/>
</g>
<g>
	<path class="st1" d="M312.7,298.2L162.5,159.4c-7.6-7-11.4-15.7-11.4-25.8c0-10.2,3.8-18.8,11.4-25.8l23.2-21.4
		c7.6-7,16.9-10.6,28-10.6s20.3,3.5,28,10.6l201.5,185.9c7.6,7,11.4,15.7,11.4,25.8s-3.8,18.8-11.4,25.8L241.6,509.7
		c-7.6,7-17,10.6-28,10.6c-11,0-20.3-3.5-28-10.6l-23.2-21.4c-7.6-7-11.4-15.6-11.4-25.7c0-10.1,3.8-18.7,11.4-26L312.7,298.2z"/>
</g>
<g>
	<path class="st2" d="M569.1,298.2L419,159.4c-7.6-7-11.4-15.7-11.4-25.8c0-10.2,3.8-18.8,11.4-25.8l23.2-21.4
		c7.6-7,16.9-10.6,28-10.6c11,0,20.3,3.5,28,10.6l201.5,185.9c7.6,7,11.4,15.7,11.4,25.8s-3.8,18.8-11.4,25.8L498.1,509.7
		c-7.6,7-17,10.6-28,10.6s-20.3-3.5-28-10.6L419,488.3c-7.6-7-11.4-15.6-11.4-25.7c0-10.1,3.8-18.7,11.4-26L569.1,298.2z"/>
</g>
</svg>
