<?xml version="1.0" encoding="utf-8"?>
<!-- Generator: Adobe Illustrator 19.0.0, SVG Export Plug-In . SVG Version: 6.00 Build 0)  -->
<svg version="1.1" id="Layer_1" xmlns="http://www.w3.org/2000/svg" xmlns:xlink="http://www.w3.org/1999/xlink" x="0px" y="0px"
	 viewBox="-164 84.6 512 427.7" style="enable-background:new -164 84.6 512 427.7;height:45px;width:45px" xml:space="preserve">
<g>
	<g>
		<path fill="#FFF" d="M232.4,330.7c0-13.2-6.9-24.8-17.2-31.4c4.2-6,6.7-13.4,6.7-21.4c0-12-5.6-22.6-14.3-29.4c1.4-4.1,2.2-8.6,2.2-13.2
			C209.8,213,192,195,170,195c-4.4,0-8.7,0.7-12.7,2.1c-4.1-14.4-17.2-25-32.7-25c-11.9,0-22.3,6.1-28.4,15.4
			c-6.1-9.3-16.5-15.4-28.4-15.4c-15.6,0-28.7,10.6-32.7,25c-4-1.4-8.3-2.1-12.7-2.1c-22,0-39.8,18-39.8,40.3c0,4.6,0.8,9,2.2,13.2
			c-8.7,6.7-14.3,17.4-14.3,29.4c0,8,2.5,15.4,6.7,21.4c-10.3,6.5-17.2,18.1-17.2,31.4c0,11.5,5.2,21.8,13.3,28.5
			c-1.3,4.5-1.9,9.3-1.9,14.2c0,28.3,22.4,51.3,50.3,51.7c7.1,13.7,21.3,23,37.7,23c15.8,0,29.5-8.7,36.9-21.6
			c7.3,12.9,21.1,21.6,36.9,21.6c16.3,0,30.5-9.3,37.7-23c27.8-0.4,50.3-23.4,50.3-51.7c0-4.9-0.7-9.7-1.9-14.2
			C227.2,352.5,232.4,342.2,232.4,330.7z M90.5,264.2L90.5,264.2c-0.1,3.1-2.6,5.6-5.7,5.6s-5.7,2.6-5.7,5.8s2.5,5.7,5.7,5.7
			c2,0,3.9-0.3,5.7-1v47.1c0,9.5-7.6,17.2-17,17.2c-3.1,0-5.7,2.6-5.7,5.8s2.5,5.7,5.7,5.7c6.4,0,12.3-2.1,17-5.7V405
			c0,17.4-14,31.6-31.2,31.6S28.1,422.4,28.1,405c0-8.8,3.8-17.1,9.6-22.8c1.1-1,1.7-2.5,1.7-4.1c0-3.2-2.5-5.8-5.7-5.8
			c-1.5,0-3,0.6-4,1.7c-8.3,7.9-13.1,18.6-13.1,31c0,2.8,0.3,5.6,0.8,8.3c-8.8-1.1-16.9-5.1-23.2-11.5c-7.5-7.6-11.6-17.7-11.6-28.5
			c0-10.7,4.1-20.9,11.6-28.4c7.5-7.6,17.5-11.8,28.1-11.8c3.4,0,6.7,0.4,9.9,1.2c0.5,0.1,1,0.2,1.5,0.2c3.1,0,5.7-2.6,5.7-5.8
			c0-2.8-2-5.1-4.6-5.6c-4-1-8.1-1.5-12.4-1.5c-19,0-35.7,10.6-44.4,26.2c-4.1-4.5-6.6-10.6-6.6-17.2c0-8.8,4.4-16.9,11.8-21.6
			l5.2-3.3c1.5-1,2.6-2.8,2.6-4.8c0-1.2-0.4-2.4-1-3.3l-3.5-5c-3-4.3-4.6-9.4-4.6-14.7c0-7.5,3.2-14.3,8.3-18.9
			c7.2,10.1,19,16.7,32.2,16.7c3.1,0,5.7-2.6,5.7-5.7c0-3.2-2.6-5.7-5.7-5.7C6.7,264.3-6,251.4-6,235.5s12.7-28.9,28.4-28.9
			c4.1,0,8,0.9,11.5,2.5c1.2,17.9,15.9,32.1,34,32.1c3.1,0,5.7-2.6,5.7-5.7c0-3.2-2.5-5.7-5.7-5.7c-12.5,0-22.7-10.3-22.7-23
			s10.2-23,22.7-23s22.7,10.3,22.7,23L90.5,264.2L90.5,264.2z M214.4,347.9c-8.8-15.7-25.4-26.2-44.4-26.2c-4.3,0-8.4,0.5-12.4,1.5
			c-2.6,0.5-4.6,2.8-4.6,5.6c0,3.2,2.5,5.8,5.7,5.8c0.5,0,1-0.1,1.4-0.2c3.2-0.8,6.5-1.2,9.9-1.2c10.6,0,20.6,4.2,28.1,11.8
			c7.5,7.6,11.6,17.7,11.6,28.4c0,10.8-4.1,20.9-11.6,28.5c-6.3,6.4-14.4,10.4-23.2,11.5c0.5-2.7,0.8-5.5,0.8-8.3
			c0-12.4-4.8-23.2-13.1-31c-1-1-2.4-1.7-4-1.7c-3.1,0-5.7,2.6-5.7,5.8c0,1.6,0.7,3.1,1.7,4.1c5.8,5.7,9.6,14,9.6,22.8
			c0,17.4-14,31.6-31.2,31.6s-31.2-14.2-31.2-31.6v-54.6c4.7,3.6,10.6,5.7,17,5.7c3.1,0,5.7-2.6,5.7-5.7s-2.5-5.8-5.7-5.8
			c-9.4,0-17-7.7-17-17.2v-47.1c1.8,0.6,3.7,1,5.7,1c3.1,0,5.7-2.6,5.7-5.7c0-3.2-2.5-5.8-5.7-5.8c-3.1,0-5.6-2.5-5.7-5.6l0,0v-57.5
			c0-12.7,10.2-23,22.7-23s22.7,10.3,22.7,23s-10.2,23-22.7,23c-3.1,0-5.7,2.6-5.7,5.7c0,3.2,2.5,5.7,5.7,5.7
			c18,0,32.8-14.2,34-32.1c3.5-1.6,7.4-2.5,11.5-2.5c15.7,0,28.4,12.9,28.4,28.8s-12.8,28.8-28.4,28.8c-3.1,0-5.7,2.6-5.7,5.7
			c0,3.2,2.6,5.7,5.7,5.7c13.3,0,25-6.6,32.3-16.7c5.1,4.7,8.3,11.4,8.3,18.9c0,5.3-1.6,10.4-4.6,14.7l-3.5,5c-0.6,0.9-1,2.1-1,3.3
			c0,2,1,3.8,2.6,4.8l5.2,3.3c7.4,4.7,11.8,12.8,11.8,21.6C221,337.4,218.5,343.4,214.4,347.9z"/>
	</g>
</g>
<rect fill="#FFF" x="66.6" y="486.2" width="60.4" height="14.3"/>
<g>
	<rect fill="#FFF" x="-151.1" y="288.1" width="77" height="12.9"/>
	<rect fill="#FFF" x="-119.2" y="258.2" width="13.3" height="72.7"/>
</g>
<g>
	<polygon fill="#FFF" points="125.9,148.3 71.8,93.6 80.7,84.6 134.7,139.4 	"/>
	<polygon fill="#FFF" points="71.8,139.4 125.9,84.6 134.7,93.6 80.7,148.3 	"/>
</g>
<g>
	<rect fill="#FFF" x="262.8" y="289.5" width="72.3" height="14.3"/>
	<path fill="#FFF" d="M298.9,279.8L298.9,279.8c-4.9,0-8.2-3.3-8.2-8.3l0,0c0-4.9,3.2-8.3,8.2-8.3l0,0c4.9,0,8.2,3.3,8.2,8.3l0,0
		C307.1,275.7,303.8,279.8,298.9,279.8z"/>
	<path fill="#FFF" d="M298.9,329.8L298.9,329.8c-4.9,0-8.2-3.3-8.2-8.3l0,0c0-4.9,3.2-8.3,8.2-8.3l0,0c4.9,0,8.2,3.3,8.2,8.3l0,0
		C307.1,325.7,303.8,329.8,298.9,329.8z"/>
</g>
</svg>
