<?xml version="1.0" encoding="utf-8"?>
<!-- Generator: Adobe Illustrator 19.0.0, SVG Export Plug-In . SVG Version: 6.00 Build 0)  -->
<svg version="1.1" id="Layer_1" xmlns="http://www.w3.org/2000/svg" xmlns:xlink="http://www.w3.org/1999/xlink" x="0px" y="0px"
	 viewBox="-164 42.3 512 512" style="enable-background:new -164 42.3 512 512;height:38px;width:38px;" xml:space="preserve">
<g>
	<path d="M293.9,299.6c-5.7-4.9-26.2-34-30.9-43.2c-4.6-9-6-11.7-1.1-22.2c8.1-17.5,4-31.3-1.6-43.6c-2.2-4.9-4.9-13.5-7.9-23.4
		c-6.3-20.8-14.2-46.6-25.6-61.9c-12.8-17.2-28.2-30.5-47-40.5c-28.2-15-64-22.6-106.4-22.6c-26.1,0-54.1,1.3-82,10.8
		c-27.6,9.4-52.2,25.7-77.6,51.4c-28.6,29-45.1,68.4-45.1,108.3c0,41,11.8,85.3,35.1,131.9c16.6,33.3,22.1,78.7,23.8,102.8
		c1.2,16.9,12.2,31.8,28,38.2l167,66.8c3.2,1.3,6.5,1.9,9.9,1.9c5,0,10.1-1.4,14.4-4.2c7.3-4.7,11.8-12.4,12.2-21
		c2-40.4,6.8-46.7,6.9-46.9c6.7-6.7,23.7-5.9,40.1-5.2c3.8,0.2,7.8,0.3,11.7,0.4c0.4,0,0.9,0,1.3,0c27.5,0,42.6-20.8,44.5-35.9
		c1.1-8.9-0.7-16.3-2.3-22.2c-0.8-3.1-1.6-6.1-1.4-7.9c0.2-3.4,1.1-4.1,3.6-6.3c2.1-1.8,5-4.2,6.8-8.4c2.1-4.7,1.8-9.8-0.8-14.7
		c4.5-3.7,6.4-7.7,7.1-10.7c1.3-4.9,0.4-10.2-2.5-14.7c-2.1-3.3-2.2-5.8-1.8-8.4c1.1-0.3,2.5-0.7,3.7-1c4.2-1,9.3-2.3,14.3-4.8
		c7.3-3.7,11.8-10.1,12.8-18.1C304.2,315.3,300.4,305.2,293.9,299.6z M287.2,322.2c-0.3,2.6-1.6,4.4-4.1,5.7
		c-3.3,1.7-7.3,2.7-10.8,3.5c-6.1,1.5-13,3.2-14.8,9.9c-1.1,3.9-3.6,13,3.1,23.6c0.2,0.4,0.8,1.4,0.6,2.2c-0.3,1.2-1.9,2.6-4.2,3.9
		c-2.8,1.5-4.7,4.2-5.2,7.4c-0.6,3.2,0.3,6.5,2.4,9c1.2,1.4,1.5,2.3,1.6,2.7c-0.4,0.7-1.2,1.4-2.5,2.6c-3.4,2.9-8.5,7.3-9.2,17.4
		c-0.3,4.3,0.8,8.5,1.9,12.9c1.3,5.1,2.6,10.4,1.9,16.3c-1.2,9.1-11.4,22.3-29.5,21.9c-3.7-0.1-7.6-0.3-11.3-0.4
		c-20.8-0.9-40.4-1.8-52.1,9.9c-2.8,2.8-9.2,9.2-11.6,57.5c-0.2,3.4-1.9,6.5-4.8,8.3c-2.9,1.9-6.4,2.2-9.7,0.9l-167-66.8
		c-10.1-4.1-17.2-13.7-18-24.4c-4.1-55.9-16.1-90-25.5-108.8c-22.1-44.3-33.4-86.2-33.4-124.7c0-35.6,14.7-71,40.4-97
		c23.6-23.9,46.3-39,71.4-47.5c25.6-8.7,52.1-10,76.8-10c66.3,0,112.3,18.5,140.5,56.6c9.7,13.1,17.1,37.5,23.1,57.1
		c3.2,10.5,6,19.5,8.6,25.4c4.9,10.7,6.7,19.1,1.6,30.2c-7.6,16.4-4.5,24.6,1.4,36.2c4.7,9.1,26.4,40.9,34.7,48
		C285.6,313.6,287.7,318.2,287.2,322.2z"/>
	<path d="M154.5,147.4c-20.1-19.8-46.3-32.6-73.8-35.9C41.2,106.7,2.5,120-25.5,148c-27.9,27.9-41.2,66.6-36.5,106.2
		c3.3,27.5,16.1,53.8,35.9,73.8c19.8,20.1,45.9,33.2,73.4,36.9c5.9,0.8,11.8,1.2,17.6,1.2c21.9,0,43.3-5.6,62.6-16.6l38,11.3
		c6.2,1.8,12.8,0.1,17.4-4.4c4.5-4.5,6.2-11.2,4.4-17.4L176,301c13.9-24.5,19.2-52.1,15.4-80.2C187.7,193.3,174.6,167.3,154.5,147.4
		z M160.5,295.8c-1.2,1.9-1.5,4.3-0.8,6.4l12.3,41.3c0.2,0.6,0,1.1-0.4,1.5c-0.4,0.4-0.9,0.5-1.5,0.4l-41.3-12.3
		c-2.2-0.6-4.5-0.3-6.4,0.8c-22.1,13.3-47.3,18.5-72.8,15c-24-3.3-46.8-14.7-64.1-32.3C-31.9,299-43,276.1-45.9,252.1
		c-4.2-34.6,7.4-68.5,31.9-92.9c21-21,49.3-32.6,79-32.6c4.6,0,9.2,0.3,13.8,0.8c24,2.9,46.9,14,64.5,31.4
		c17.6,17.3,29,40.1,32.3,64.1C179,248.6,173.8,273.8,160.5,295.8z"/>
	<path d="M64.9,280.5c4.4,0,8-3.6,8-8V169.9c0-4.4-3.6-8-8-8c-4.4,0-8,3.6-8,8v102.6C56.9,276.9,60.5,280.5,64.9,280.5z"/>
	<circle cx="64.9" cy="306.7" r="8"/>
</g>
</svg>
