<svg xmlns="http://www.w3.org/2000/svg" xmlns:xlink="http://www.w3.org/1999/xlink" width="52.39" height="52.39" viewBox="0 0 52.39 52.39">
  <defs>
    <filter id="Tracé_1652" x="0" y="0" width="52.39" height="52.39" filterUnits="userSpaceOnUse">
      <feOffset dy="3" input="SourceAlpha"/>
      <feGaussianBlur stdDeviation="3.5" result="blur"/>
      <feFlood flood-color="#ffcc4d" flood-opacity="0.671"/>
      <feComposite operator="in" in2="blur"/>
      <feComposite in="SourceGraphic"/>
    </filter>
  </defs>
  <g id="Grave" transform="translate(10.5 7.5)">
    <g id="Face">
      <g transform="matrix(1, 0, 0, 1, -10.5, -7.5)" filter="url(#Tracé_1652)">
        <path id="Tracé_1652-2" data-name="Tracé 1652" d="M15.695,0A15.695,15.695,0,1,1,0,15.695,15.695,15.695,0,0,1,15.695,0Z" transform="translate(10.5 7.5)" fill="#ffc200"/>
      </g>
      <g id="Groupe_444" data-name="Groupe 444" transform="translate(14.429)">
        <path id="Tracé_1642" data-name="Tracé 1642" d="M229.266,0c-.427,0-.848.022-1.266.055a15.69,15.69,0,0,1,0,31.279c.418.034.839.055,1.266.055a15.695,15.695,0,0,0,0-31.39Z" transform="translate(-228)" fill="#f2b800"/>
      </g>
      <g id="Groupe_447" data-name="Groupe 447" transform="translate(14.636 25.986) rotate(-169)">
        <path id="Tracé_1643" data-name="Tracé 1643" d="M7.648.475A1.3,1.3,0,0,1,9.541.355a1.431,1.431,0,0,1,.448.97,1.442,1.442,0,0,1-.336,1.019A12.624,12.624,0,0,1,0,6.865V4.047A9.992,9.992,0,0,0,7.648.475Z" transform="translate(0 0)" fill="#f2b800"/>
        <path id="Tracé_1644" data-name="Tracé 1644" d="M8.12.237a.644.644,0,0,1,.943-.06.732.732,0,0,1,.056.994A11.906,11.906,0,0,1,0,5.457V4.048A10.6,10.6,0,0,0,8.12.237Z" transform="translate(0.001 0.705)" fill="#f5f5f5"/>
      </g>
      <g id="Groupe_445" data-name="Groupe 445" transform="translate(24.692 14.054) rotate(180)">
        <path id="Tracé_1645" data-name="Tracé 1645" d="M6.073,4.049A.675.675,0,0,1,5.4,3.374a2.024,2.024,0,0,0-4.049,0,.675.675,0,1,1-1.35,0,3.374,3.374,0,1,1,6.748,0A.675.675,0,0,1,6.073,4.049Z" fill="#263740"/>
        <path id="Tracé_1646" data-name="Tracé 1646" d="M6.073,4.049A.675.675,0,0,1,5.4,3.374a2.024,2.024,0,0,0-4.049,0,.675.675,0,1,1-1.35,0,3.374,3.374,0,1,1,6.748,0A.675.675,0,0,1,6.073,4.049Z" transform="translate(11.247)" fill="#263740"/>
      </g>
    </g>
    <g id="Like" transform="translate(29.175 34.748) rotate(180)">
      <path id="Tracé_1647" data-name="Tracé 1647" d="M2.131,17.843A2.114,2.114,0,0,1,0,15.736V8.545A2.133,2.133,0,0,1,2.131,6.414H4.52a2.128,2.128,0,0,1,1.154.343c.08-.184.158-.4.255-.675a16.111,16.111,0,0,1,.995-2.334V1.2L7.22.9A2.874,2.874,0,0,1,9.281,0a2.709,2.709,0,0,1,2.265,1.227c.5.747.939,2.093.325,4.363h4.108a2.778,2.778,0,0,1,2.663,2.748,3.671,3.671,0,0,1-.291,1.578,2.946,2.946,0,0,1-.484,2.5,2.971,2.971,0,0,1-.944,2.4,3.245,3.245,0,0,1-.764,1.671,2.254,2.254,0,0,1-1.684.839H6.353a2.4,2.4,0,0,1-.392-.031,2.069,2.069,0,0,1-1.434.542Z" transform="translate(0 0)" fill="#455c91"/>
      <path id="Tracé_1648" data-name="Tracé 1648" d="M0,7.453c1.373-.964,1.031-2,2.4-4.5V.566C3.778-.869,6.932.289,4.8,5.59h5.593a1.715,1.715,0,0,1,1.6,1.683c0,.717-.155,1.313-.448,1.38a1.853,1.853,0,0,1-.346,2.3,2.078,2.078,0,0,1-.912,2.245c.118.86-.6,2.009-1.4,2.009H.767C.18,15.2,0,14.929,0,14.473V7.453Z" transform="translate(5.585 1.065)" fill="#f5f5f5"/>
      <g id="Groupe_446" data-name="Groupe 446" transform="translate(8.612 1.066)">
        <path id="Tracé_1649" data-name="Tracé 1649" d="M.451,5.589H1.775C3.624.988,1.493-.49,0,.137,1.06.606,1.773,2.3.451,5.589Z" transform="translate(0 0)" fill="#e6e6e6"/>
        <path id="Tracé_1650" data-name="Tracé 1650" d="M4.428,1.683A1.715,1.715,0,0,0,2.83,0H1.505A1.715,1.715,0,0,1,3.1,1.683C3.1,2.4,2.948,3,2.655,3.063a1.853,1.853,0,0,1-.346,2.3A2.078,2.078,0,0,1,1.4,7.6c.118.861-.6,2.009-1.4,2.009H1.324c.793,0,1.515-1.148,1.4-2.009a2.078,2.078,0,0,0,.912-2.245,1.853,1.853,0,0,0,.346-2.3C4.272,3,4.428,2.4,4.428,1.683Z" transform="translate(4.538 5.589)" fill="#e6e6e6"/>
      </g>
      <path id="Tracé_1651" data-name="Tracé 1651" d="M4.52,8.256A1.069,1.069,0,0,1,3.455,9.321H1.065A1.068,1.068,0,0,1,0,8.256V1.065A1.068,1.068,0,0,1,1.065,0h2.39A1.069,1.069,0,0,1,4.52,1.065Z" transform="translate(1.065 7.48)" fill="#6e7fb3"/>
    </g>
  </g>
</svg>
