<?xml version="1.0" encoding="iso-8859-1"?>
<!-- Generator: Adobe Illustrator 19.0.0, SVG Export Plug-In . SVG Version: 6.00 Build 0)  -->
<svg version="1.1" id="Layer_1" xmlns="http://www.w3.org/2000/svg" xmlns:xlink="http://www.w3.org/1999/xlink" x="0px" y="0px"
	 viewBox="0 0 512 512" style="enable-background:new 0 0 512 512;" xml:space="preserve">
<path style="fill:#E9495B;" d="M256,512L256,512C115.2,512,0,396.8,0,256l0,0C0,115.2,115.2,0,256,0l0,0c140.8,0,256,115.2,256,256
	l0,0C512,396.8,396.8,512,256,512z"/>
<path style="fill:#AB2D3D;" d="M286.596,510.092C413.104,494.84,512,386.444,512,256l0,0c0-16.572-1.652-32.772-4.696-48.488
	L300.296,110.6l-18.58,13.732l-8.52-23.904l-15.744,19.836l-15.956-19.836l-7.156,20.852l-20.112-7.12l0.344,19.664l-23.184-5.424
	l7.84,22.04l-26.248,1.692l12.612,20.008l-21.476,6.784l17.728,16.612l-17.728,14.24l21.136,9.492L171.62,237.92l9.544,28.48
	l23.52,72.56l-6.648,41.2L286.596,510.092z"/>
<g>
	<polygon style="fill:#5BC1ED;" points="297.592,271.692 294.86,275.404 277.716,262.968 270.756,287.2 268.484,288.44 
		264.176,317.124 263.9,317.496 264.056,317.908 263.9,318.948 264.28,318.508 300.276,414.188 313.036,378.764 343.704,396.084 	
		"/>
</g>
<g>
	<polygon style="fill:#0F95BC;" points="297.108,272.66 294.38,276.372 277.232,263.936 271.48,284.78 311.824,376.532 
		343.22,397.052 	"/>
</g>
<g>
	<polyline style="fill:#5BC1ED;" points="270.264,267.784 254.636,381.804 231.776,352.104 199.168,376.088 215.052,260.216 	"/>
</g>
<g>
	<polygon style="fill:#F7BE15;" points="254.704,121.288 269.472,100.664 277.144,124.84 297.56,109.792 297.388,135.156 
		321.456,127.152 313.452,151.22 338.816,151.044 323.768,171.464 347.944,179.136 327.32,193.904 347.944,208.672 323.768,216.344 
		338.816,236.76 313.452,236.588 321.456,260.656 297.388,252.652 297.56,278.016 277.144,262.964 269.472,287.144 254.704,266.52 
		239.936,287.144 232.264,262.964 211.848,278.016 212.02,252.652 187.952,260.656 195.956,236.588 170.592,236.76 185.64,216.344 
		161.464,208.672 182.088,193.904 161.464,179.136 185.64,171.464 170.592,151.044 195.956,151.22 187.952,127.152 212.02,135.156 
		211.848,109.792 232.264,124.84 239.936,100.664 	"/>
</g>
<g>
	<g>
		<path style="fill:#474341;" d="M239.936,290.204c-0.156,0-0.316-0.012-0.476-0.036c-1.144-0.18-2.088-0.996-2.436-2.1
			l-6.384-20.108l-16.98,12.516c-0.936,0.692-2.176,0.792-3.204,0.264c-1.032-0.528-1.68-1.588-1.668-2.748l0.144-21.092
			l-20.016,6.656c-1.104,0.364-2.312,0.072-3.128-0.744c-0.82-0.816-1.104-2.028-0.74-3.128l6.656-20.012l-21.092,0.148h-0.02
			c-1.152,0-2.204-0.644-2.728-1.672c-0.528-1.032-0.424-2.272,0.264-3.204l12.516-16.98l-20.104-6.38
			c-1.104-0.352-1.916-1.296-2.096-2.436c-0.18-1.148,0.3-2.292,1.24-2.968l17.148-12.28l-17.148-12.28
			c-0.94-0.672-1.42-1.82-1.24-2.968c0.18-1.144,0.992-2.088,2.096-2.436l20.104-6.38l-12.516-16.976
			c-0.684-0.936-0.788-2.176-0.264-3.204c0.528-1.032,1.46-1.668,2.748-1.676l21.092,0.148l-6.656-20.012
			c-0.364-1.1-0.08-2.312,0.74-3.128c0.816-0.816,2.028-1.108,3.128-0.74l20.016,6.656l-0.144-21.096
			c-0.008-1.156,0.64-2.22,1.668-2.748c1.028-0.524,2.272-0.424,3.204,0.264l16.98,12.516l6.38-20.104
			c0.352-1.104,1.292-1.92,2.436-2.1c1.156-0.18,2.292,0.3,2.964,1.244l12.28,17.148l12.28-17.148
			c0.676-0.944,1.812-1.42,2.964-1.244c1.144,0.18,2.088,0.996,2.436,2.1l6.38,20.104l16.98-12.516
			c0.932-0.688,2.172-0.788,3.204-0.264c1.032,0.528,1.68,1.588,1.668,2.748l-0.144,21.096l20.012-6.656
			c1.096-0.372,2.312-0.076,3.128,0.74c0.82,0.82,1.104,2.028,0.74,3.128l-6.656,20.012l21.088-0.148
			c1.048-0.06,2.22,0.64,2.748,1.676c0.528,1.028,0.424,2.268-0.264,3.204l-12.516,16.976l20.104,6.38
			c1.104,0.352,1.916,1.296,2.096,2.436c0.18,1.148-0.3,2.296-1.24,2.968L332.56,193.9l17.148,12.28
			c0.94,0.676,1.42,1.82,1.24,2.968c-0.18,1.144-0.992,2.088-2.096,2.436l-20.104,6.38l12.516,16.98
			c0.684,0.932,0.788,2.172,0.264,3.204c-0.528,1.032-1.636,1.484-2.748,1.672l-21.088-0.148l6.656,20.012
			c0.364,1.1,0.08,2.312-0.74,3.128c-0.82,0.816-2.028,1.112-3.128,0.744l-20.012-6.656l0.144,21.092
			c0.008,1.16-0.64,2.22-1.668,2.748c-1.032,0.528-2.272,0.424-3.204-0.264l-16.98-12.516l-6.38,20.104
			c-0.352,1.104-1.292,1.916-2.436,2.1c-1.156,0.176-2.292-0.3-2.964-1.244l-12.28-17.148l-12.28,17.148
			C241.844,289.736,240.916,290.204,239.936,290.204 M254.704,263.46c0.988,0,1.912,0.476,2.488,1.28l11.212,15.656l5.828-18.36
			c0.296-0.94,1.032-1.676,1.968-1.984c0.932-0.308,1.964-0.136,2.76,0.448l15.504,11.428l-0.136-19.256
			c-0.008-0.988,0.464-1.912,1.26-2.492c0.796-0.58,1.824-0.724,2.764-0.428l18.276,6.072l-6.08-18.268
			c-0.312-0.936-0.152-1.964,0.428-2.768c0.58-0.796,1.636-1.424,2.492-1.26l19.256,0.136L321.3,218.168
			c-0.588-0.796-0.752-1.824-0.448-2.764c0.304-0.94,1.044-1.672,1.984-1.972l18.352-5.824l-15.656-11.212
			c-0.804-0.572-1.276-1.504-1.276-2.488c0-0.988,0.472-1.912,1.276-2.488l15.656-11.216l-18.352-5.824
			c-0.94-0.3-1.68-1.032-1.984-1.972c-0.304-0.936-0.14-1.964,0.448-2.764l11.424-15.496l-19.256,0.136h-0.02
			c-0.98,0-1.9-0.468-2.476-1.26c-0.58-0.8-0.74-1.828-0.428-2.764l6.08-18.272l-18.276,6.076c-0.94,0.3-1.968,0.148-2.764-0.428
			c-0.8-0.584-1.268-1.512-1.26-2.496l0.136-19.252l-15.504,11.424c-0.796,0.588-1.832,0.752-2.76,0.448
			c-0.94-0.304-1.676-1.04-1.968-1.984l-5.828-18.36l-11.212,15.656c-0.572,0.808-1.5,1.28-2.488,1.28s-1.916-0.476-2.488-1.28
			L241,107.416l-5.828,18.36c-0.3,0.94-1.032,1.68-1.968,1.984c-0.94,0.308-1.964,0.14-2.76-0.448l-15.504-11.424l0.136,19.252
			c0.008,0.988-0.464,1.912-1.26,2.496c-0.796,0.58-1.82,0.732-2.764,0.428l-18.276-6.076l6.08,18.272
			c0.312,0.936,0.152,1.964-0.428,2.764c-0.572,0.792-1.496,1.26-2.476,1.26h-0.02l-19.26-0.136l11.428,15.496
			c0.588,0.796,0.752,1.824,0.448,2.764s-1.044,1.676-1.984,1.972l-18.356,5.824l15.656,11.216c0.804,0.572,1.276,1.5,1.276,2.488
			s-0.476,1.916-1.276,2.488l-15.656,11.212l18.356,5.824c0.94,0.3,1.68,1.032,1.984,1.972c0.304,0.936,0.14,1.964-0.448,2.764
			l-11.428,15.496l19.26-0.136h0.02c0.98,0,1.9,0.468,2.476,1.26c0.58,0.804,0.74,1.832,0.428,2.768l-6.08,18.268l18.276-6.072
			c0.932-0.308,1.964-0.152,2.764,0.428c0.8,0.58,1.268,1.508,1.26,2.492l-0.136,19.256l15.504-11.428
			c0.792-0.588,1.824-0.756,2.76-0.448c0.94,0.304,1.672,1.044,1.968,1.984l5.828,18.36l11.212-15.656
			C252.788,263.936,253.716,263.46,254.704,263.46"/>
		<path style="fill:#DD9D00;" d="M314.596,193.904c0,33.076-26.816,59.888-59.892,59.888s-59.888-26.812-59.888-59.888
			s26.816-59.892,59.888-59.892C287.78,134.012,314.596,160.828,314.596,193.904"/>
		<g>
			<path style="fill:#474341;" d="M254.704,256.856c-34.708,0-62.948-28.244-62.948-62.952c0-34.712,28.24-62.952,62.948-62.952
				c34.712,0,62.952,28.24,62.952,62.952C317.652,228.612,289.416,256.856,254.704,256.856 M254.704,137.072
				c-31.336,0-56.832,25.492-56.832,56.832c0,31.336,25.496,56.828,56.832,56.828s56.832-25.492,56.832-56.828
				S286.04,137.072,254.704,137.072"/>
			<path style="fill:#474341;" d="M254.12,387.98c-0.948,0-1.86-0.444-2.444-1.224l-21.036-27.952l-30.116,22.632
				c-0.988,0.744-2.324,0.816-3.388,0.192c-1.064-0.628-1.648-1.832-1.48-3.056l14.028-102.356c0.232-1.676,1.76-2.872,3.448-2.612
				c1.676,0.228,2.844,1.772,2.616,3.448l-13.032,95.084l26.7-20.06c1.348-1.008,3.264-0.744,4.284,0.608l18.408,24.46
				l12.792-93.356c0.228-1.676,1.78-2.868,3.448-2.616c1.676,0.228,2.848,1.772,2.616,3.452L257.16,385.34
				c-0.168,1.228-1.06,2.232-2.26,2.54C254.636,387.944,254.376,387.98,254.12,387.98"/>
			<path style="fill:#474341;" d="M299.952,418.216c-1.276,0-2.416-0.788-2.86-1.984l-36.376-96.692
				c-0.596-1.584,0.204-3.344,1.788-3.94c1.58-0.6,3.344,0.208,3.94,1.78l33.448,88.92l9.948-27.608
				c0.304-0.848,0.968-1.516,1.812-1.828c0.844-0.316,1.784-0.24,2.568,0.2l23.388,13.208L294.4,273.724
				c-0.588-1.584,0.22-3.344,1.804-3.928c1.576-0.588,3.344,0.216,3.932,1.804l46.112,124.388c0.448,1.204,0.092,2.56-0.884,3.392
				c-0.976,0.84-2.376,0.968-3.492,0.336l-27.512-15.54l-11.54,32.016c-0.432,1.208-1.576,2.016-2.856,2.024L299.952,418.216
				L299.952,418.216z"/>
		</g>
		<g>
			<path style="fill:#0F95BC;" d="M217.14,346.968c-0.132,0-0.26-0.008-0.396-0.024c-1.676-0.216-2.86-1.752-2.644-3.428
				l1.272-9.892c0.212-1.684,1.752-2.868,3.424-2.648c1.676,0.212,2.86,1.748,2.644,3.424l-1.276,9.904
				C219.972,345.844,218.656,346.968,217.14,346.968"/>
			<path style="fill:#0F95BC;" d="M220.304,322.352c-0.132,0-0.26-0.008-0.396-0.024c-1.676-0.216-2.86-1.752-2.644-3.428
				l4.132-32.144c0.22-1.68,1.752-2.844,3.424-2.648c1.676,0.216,2.86,1.752,2.644,3.424l-4.136,32.152
				C223.136,321.224,221.82,322.352,220.304,322.352"/>
		</g>
		<g>
			<path style="fill:#B47B18;" d="M299.312,183.56c2.164,8.688,2.34,17.236-0.204,25.86c-0.788,2.672,3.38,3.812,4.164,1.148
				c2.756-9.336,2.544-18.756,0.204-28.156C302.804,179.716,298.636,180.86,299.312,183.56"/>
			<path style="fill:#B47B18;" d="M275.92,149.644c9.492,7.48,16.996,16.908,21.516,28.168c1.024,2.548,5.2,1.432,4.164-1.148
				c-4.808-11.976-12.492-22.084-22.624-30.072C276.812,144.888,273.736,147.924,275.92,149.644"/>
		</g>
	</g>
</g>
<g>
</g>
<g>
</g>
<g>
</g>
<g>
</g>
<g>
</g>
<g>
</g>
<g>
</g>
<g>
</g>
<g>
</g>
<g>
</g>
<g>
</g>
<g>
</g>
<g>
</g>
<g>
</g>
<g>
</g>
</svg>
