<?xml version="1.0" encoding="utf-8"?>
<!-- Generator: Adobe Illustrator 19.0.0, SVG Export Plug-In . SVG Version: 6.00 Build 0)  -->
<svg version="1.1" id="Calque_1" xmlns="http://www.w3.org/2000/svg" xmlns:xlink="http://www.w3.org/1999/xlink" x="0px" y="0px"
	 viewBox="-280.7 389 119.8 25" style="enable-background:new -280.7 389 119.8 25;" xml:space="preserve">
<style type="text/css">
	.st0{fill:url(#XMLID_2_);}
	.st1{fill:#94C648;}
	.st2{fill:#E57A32;}
	.st3{fill:#231F20;}
	.st4{font-family:'HelveticaNeue-Medium';}
	.st5{font-size:13.7303px;}
	.st6{fill:none;stroke:#231F20;stroke-linecap:round;stroke-linejoin:round;stroke-miterlimit:10;}
</style>
<g id="XMLID_95_">
	<linearGradient id="XMLID_2_" gradientUnits="userSpaceOnUse" x1="-279.8737" y1="400.9006" x2="-261.5695" y2="400.9006">
		<stop  offset="0" style="stop-color:#008FCD"/>
		<stop  offset="0.9613" style="stop-color:#3269AE"/>
	</linearGradient>
	<path id="XMLID_115_" class="st0" d="M-270.2,412.3c-0.9,0-1.7-0.1-2.6-0.2c-0.9-0.1-1.7-0.3-2.6-0.6c-0.9-0.3-1.7-0.6-2.4-1
		s-1.5-0.8-2-1.3l1.9-3.1c2.6,1.9,5.2,2.8,7.8,2.8c1.4,0,2.4-0.3,3.2-0.8c0.8-0.5,1.2-1.3,1.2-2.3c0-0.9-0.4-1.6-1.3-2
		c-0.9-0.4-2.3-0.9-4.2-1.4c-1.3-0.3-2.5-0.7-3.4-1c-0.9-0.3-1.7-0.7-2.3-1.2c-0.6-0.4-1-1-1.3-1.6c-0.3-0.6-0.4-1.3-0.4-2.2
		c0-1.1,0.2-2.1,0.6-3c0.4-0.9,1-1.6,1.8-2.2c0.7-0.6,1.6-1.1,2.6-1.4c1-0.3,2.1-0.5,3.3-0.5c1.5,0,3,0.3,4.5,0.8
		c1.4,0.5,2.7,1.2,3.9,2.1l-1.9,2.8c-2-1.6-4.2-2.4-6.5-2.4c-1.1,0-2.1,0.2-2.9,0.7c-0.8,0.5-1.2,1.3-1.2,2.3c0,0.4,0.1,0.8,0.2,1.1
		c0.2,0.3,0.4,0.6,0.8,0.8c0.4,0.2,0.8,0.4,1.4,0.6c0.6,0.2,1.3,0.4,2.2,0.6c1.5,0.4,2.7,0.7,3.8,1.1c1.1,0.4,1.9,0.8,2.6,1.3
		c0.7,0.5,1.2,1.1,1.5,1.7c0.3,0.7,0.5,1.4,0.5,2.4c0,1-0.2,2-0.6,2.8c-0.4,0.8-1,1.6-1.7,2.1c-0.7,0.6-1.7,1-2.7,1.4
		C-267.7,412.1-268.9,412.3-270.2,412.3z"/>
	<path id="XMLID_162_" class="st1" d="M-270.4,412.8c-0.9,0-1.7-0.1-2.6-0.2c-0.9-0.1-1.7-0.4-2.6-0.6c-0.8-0.3-1.6-0.6-2.4-1
		c-0.8-0.4-1.5-0.8-2.1-1.3l-0.3-0.3l2.3-3.9l0.4,0.3c2.4,1.8,4.8,2.7,7.2,2.7c1.2,0,2.1-0.2,2.8-0.7c0.6-0.4,0.9-1,0.9-1.9
		c0-0.7-0.3-1.2-1-1.6c-0.8-0.4-2.1-0.9-3.9-1.3c-1.3-0.3-2.4-0.7-3.3-1c-0.9-0.4-1.7-0.8-2.3-1.2c-0.6-0.5-1.1-1.1-1.4-1.8
		c-0.3-0.7-0.4-1.5-0.4-2.4c0-1.2,0.2-2.3,0.7-3.2c0.4-0.9,1.1-1.7,1.8-2.4c0.8-0.6,1.7-1.1,2.7-1.5c1-0.3,2.1-0.5,3.3-0.5
		c1.5,0,3,0.3,4.4,0.8c1.4,0.5,2.7,1.2,3.8,2.1l0.4,0.3l-2.4,3.6l-0.4-0.3c-1.9-1.5-3.9-2.3-6-2.3c-1,0-1.8,0.2-2.5,0.7
		c-0.6,0.4-0.9,1-0.9,1.9c0,0.4,0.1,0.7,0.2,0.9c0.1,0.2,0.3,0.4,0.6,0.6c0.3,0.2,0.7,0.4,1.3,0.6c0.6,0.2,1.3,0.4,2.1,0.6
		c1.4,0.4,2.6,0.7,3.7,1.1c1.1,0.4,1.9,0.8,2.6,1.3c0.7,0.5,1.3,1.2,1.6,1.9c0.3,0.7,0.5,1.6,0.5,2.6c0,1.1-0.2,2.1-0.6,3
		c-0.4,0.9-1,1.7-1.8,2.3c-0.8,0.6-1.7,1.1-2.8,1.4C-267.9,412.6-269.1,412.8-270.4,412.8z"/>
	<path id="XMLID_135_" class="st2" d="M-255.2,413.5c-1,0-1.9-0.2-2.8-0.5c-0.9-0.3-1.6-0.8-2.4-1.4l2-3.1c0.4,0.3,0.8,0.6,1.2,0.7
		c0.5,0.2,0.9,0.2,1.4,0.2c0.8,0,1.5-0.3,2.1-0.9c0.6-0.6,0.9-1.4,0.9-2.3v-9.6h4.5v9.3c0,1.1-0.2,2.1-0.5,3
		c-0.4,0.9-0.9,1.7-1.5,2.4c-0.6,0.7-1.4,1.2-2.2,1.5C-253.3,413.3-254.2,413.5-255.2,413.5z"/>
	<path id="XMLID_137_" class="st2" d="M-255.2,414c-1,0-2-0.2-2.9-0.5c-0.9-0.3-1.8-0.8-2.5-1.5l-0.3-0.3l2.5-3.9l0.4,0.4
		c0.3,0.3,0.6,0.5,1,0.6c0.4,0.1,0.8,0.2,1.2,0.2c0.7,0,1.2-0.2,1.7-0.8c0.5-0.5,0.8-1.1,0.8-1.9v-10.1h5.4v9.8
		c0,1.2-0.2,2.2-0.6,3.2c-0.4,1-0.9,1.8-1.6,2.5c-0.7,0.7-1.5,1.3-2.4,1.6C-253.2,413.8-254.2,414-255.2,414z"/>
	<rect id="XMLID_139_" x="-253.2" y="389" class="st2" width="5.4" height="5.3"/>
</g>
<text id="XMLID_101_" transform="matrix(1 0 0 1 -234.5462 406.6671)" class="st3 st4 st5">School App</text>
<line id="XMLID_86_" class="st6" x1="-240.7" y1="397.1" x2="-240.7" y2="406.8"/>
</svg>
