<svg xmlns="http://www.w3.org/2000/svg" width="23.204" height="23.248" viewBox="0 0 23.204 23.248"><path d="M25.169,19.505v3.319a2.213,2.213,0,0,1-2.412,2.213,21.893,21.893,0,0,1-9.547-3.4A21.572,21.572,0,0,1,6.573,15a21.893,21.893,0,0,1-3.4-9.591A2.213,2.213,0,0,1,5.378,3H8.7A2.213,2.213,0,0,1,10.91,4.9a14.2,14.2,0,0,0,.774,3.109,2.213,2.213,0,0,1-.5,2.334l-1.4,1.4a17.7,17.7,0,0,0,6.638,6.638l1.4-1.4a2.213,2.213,0,0,1,2.334-.5,14.2,14.2,0,0,0,3.109.774,2.213,2.213,0,0,1,1.9,2.246Z" transform="translate(-2.567 -2.4)" fill="none" stroke="#74c797" stroke-linecap="round" stroke-linejoin="round" stroke-width="1.2"/></svg>