<svg xmlns="http://www.w3.org/2000/svg" width="19.08" height="21.805" viewBox="0 0 19.08 21.805"><path d="M0,19.761a2.045,2.045,0,0,0,2.044,2.044H17.035a2.045,2.045,0,0,0,2.044-2.044V8.177H0Zm13.628-8.347a.513.513,0,0,1,.511-.511h1.7a.513.513,0,0,1,.511.511v1.7a.513.513,0,0,1-.511.511h-1.7a.513.513,0,0,1-.511-.511Zm0,5.451a.513.513,0,0,1,.511-.511h1.7a.513.513,0,0,1,.511.511v1.7a.513.513,0,0,1-.511.511h-1.7a.513.513,0,0,1-.511-.511ZM8.177,11.414a.513.513,0,0,1,.511-.511h1.7a.513.513,0,0,1,.511.511v1.7a.513.513,0,0,1-.511.511h-1.7a.513.513,0,0,1-.511-.511Zm0,5.451a.513.513,0,0,1,.511-.511h1.7a.513.513,0,0,1,.511.511v1.7a.513.513,0,0,1-.511.511h-1.7a.513.513,0,0,1-.511-.511ZM2.726,11.414a.513.513,0,0,1,.511-.511h1.7a.513.513,0,0,1,.511.511v1.7a.513.513,0,0,1-.511.511h-1.7a.513.513,0,0,1-.511-.511Zm0,5.451a.513.513,0,0,1,.511-.511h1.7a.513.513,0,0,1,.511.511v1.7a.513.513,0,0,1-.511.511h-1.7a.513.513,0,0,1-.511-.511ZM17.035,2.726H14.991V.681A.683.683,0,0,0,14.31,0H12.947a.683.683,0,0,0-.681.681V2.726H6.814V.681A.683.683,0,0,0,6.133,0H4.77a.683.683,0,0,0-.681.681V2.726H2.044A2.045,2.045,0,0,0,0,4.77V6.814H19.08V4.77A2.045,2.045,0,0,0,17.035,2.726Z" fill="#7f7fd1"/></svg>