<svg xmlns="http://www.w3.org/2000/svg" width="18.231" height="18.231" viewBox="0 0 18.231 18.231"><path d="M8.166,12.39a15.343,15.343,0,0,0,6.675,6.675l2.228-2.228a1.007,1.007,0,0,1,1.033-.243,11.553,11.553,0,0,0,3.616.577,1.016,1.016,0,0,1,1.013,1.013v3.535a1.016,1.016,0,0,1-1.013,1.013A17.217,17.217,0,0,1,4.5,5.513,1.016,1.016,0,0,1,5.513,4.5H9.058a1.016,1.016,0,0,1,1.013,1.013,11.506,11.506,0,0,0,.577,3.616,1.016,1.016,0,0,1-.253,1.033L8.166,12.39Z" transform="translate(-4.5 -4.5)" fill="#7f7fd1"/></svg>