<?xml version="1.0" encoding="utf-8"?>
<!-- Generator: Adobe Illustrator 24.1.2, SVG Export Plug-In . SVG Version: 6.00 Build 0)  -->
<svg version="1.1" id="Layer_1" xmlns="http://www.w3.org/2000/svg" xmlns:xlink="http://www.w3.org/1999/xlink" x="0px" y="0px"
	 viewBox="0 0 174 174" style="enable-background:new 0 0 174 174;" xml:space="preserve">
<style type="text/css">
	.st0{clip-path:url(#SVGID_2_);}
	.st1{fill:#7D7FD2;}
</style>
<g>
	<defs>
		<rect id="SVGID_1_" x="16.6" y="0" width="141.1" height="173.9"/>
	</defs>
	<clipPath id="SVGID_2_">
		<use xlink:href="#SVGID_1_"  style="overflow:visible;"/>
	</clipPath>
	<g class="st0">
		<path class="st1" d="M157.1,92.2c0.2,16.5,0.4,33,0.5,49.5c0,5.8-0.4,11.7-0.5,17.5c0,8.4-6.5,13.5-14.1,13.6
			c-15.6,0.3-31.2,0.7-46.8,0.6c-18.1-0.1-36.2-0.6-54.2-1c-4.4-0.2-8.7-0.7-13-1.4c-5-0.8-9.8-6.7-10.1-12.1
			c-0.3-5.4-0.5-10.8-0.5-16.1c-0.3-25-0.6-50.1-0.9-75.1c-0.2-14.7-0.2-29.4-0.4-44.1c-0.1-4.2-0.4-8.4,1.3-12.3
			c0.9-2.3,2.1-4.4,3.6-6.4c1.9-2.2,4.6-3.1,7.6-3.1c6.1-0.2,12.1-0.2,18.2-0.6C69-0.3,90.4,0.8,111.7,1c4.5,0,8,1.5,11.3,4.7
			c6.8,6.5,14.2,12.5,21.2,18.7c2.7,2.4,5.2,5,7.9,7.3c2.5,2.1,3.5,4.8,3.6,8c0.2,5.6,0.4,11.2,0.5,16.8c0.2,11.9,0.2,23.8,0.4,35.7
			L157.1,92.2z M109.8,9.4c-2-0.2-3.6-0.4-5.3-0.4C90.4,8.7,76.2,8.5,62.1,8.3c-6.4-0.1-12.8-0.1-19.2-0.2c-3.2,0-6.5-0.1-9.7,0
			c-4.5,0.2-5.9,1.5-6.7,6c-0.8,4.2-1,8.5-0.6,12.7c0.3,2.5,0.4,4.9,0.4,7.4c0.1,39.6,0.1,79.3,0.2,118.9c0,0.8,0,1.6,0.1,2.4
			c0.7,5.1,3.4,8.5,9.2,8.7c21.7,0.9,43.3,0.9,65,0.5c10.9-0.2,21.8-0.3,32.7-0.4c2.7,0,5.4,0.1,8.1-0.1c4.7-0.2,7-2.6,7-7.2
			c-0.1-9-0.3-17.9-0.5-26.9c-0.1-4.6-0.2-9.2-0.3-13.8c-0.4-10.9-1-21.8-1.1-32.6c-0.2-12.2,0-24.5,0-36.7c0-0.8-0.1-1.5-0.1-2.3
			c-0.4-0.1-0.8-0.1-1.2-0.2c-6.8,0.1-13.7,0.4-20.5,0.4c-2.1,0-4.3-0.2-6.3-0.7c-4.2-1-5.6-2.7-6-7c-0.4-3.9-0.7-7.8-1-11.7
			C110.9,20.3,110.4,15.1,109.8,9.4L109.8,9.4z M141.2,35.7l0.2-0.7l-22.2-20.2l-0.5,0.3c1.1,7.2,2.2,14.3,3.3,21.7L141.2,35.7z"/>
		<path class="st1" d="M38.4,38.9c0-3.2-0.1-6.5,0-9.7c0.1-4.3,1.4-5.5,5.7-5.8c6-0.4,12.1-0.7,18.1-1c2.7-0.2,4.7,1.2,5.3,4.1
			c0.6,3,0.9,6,1.2,9c0.4,3.2,0.6,6.5,0.6,9.7c-0.1,2.2-0.5,4.4-1.2,6.5c-0.7,2.3-2.6,3.4-4.9,3.5c-5.9,0.2-11.9,0.4-17.8,0.3
			c-5.5-0.1-6.6-1.3-7-6.8c-0.1-1.7-0.2-3.4-0.3-5c0-1.6,0-3.1,0-4.7L38.4,38.9z M46.1,47.1c2.6,0.8,9.2,0.6,13.3-0.5v-17
			c-3.5-0.8-12-0.7-14.5,0.1L46.1,47.1z"/>
		<path class="st1" d="M85.2,78.6c13.3,0.3,26.7,0.5,40,0.8c1.4,0.1,2.9,0.4,4.2,1c0.6,0.3,1.2,0.7,1.5,1.3c0.4,0.6,0.5,1.3,0.5,1.9
			c0,0.7-0.2,1.4-0.6,1.9c-0.4,0.6-1,1-1.6,1.2c-1.8,0.5-3.7,0.7-5.6,0.7c-10.4-0.2-20.8-0.7-31.3-0.9c-9.5-0.2-19.1,0-28.6-0.1
			c-5.8,0-11.7-0.1-17.5-0.2c-1.6-0.1-3.1-0.4-4.6-0.8c-0.6-0.1-1.1-0.4-1.4-0.9c-0.3-0.5-0.5-1-0.5-1.6c-0.1-0.6,0.1-1.1,0.4-1.6
			c0.3-0.5,0.8-0.8,1.4-0.9c1.1-0.3,2.2-0.5,3.3-0.5c13.5-0.4,26.9-0.7,40.4-1C85.2,78.8,85.2,78.7,85.2,78.6z"/>
		<path class="st1" d="M39.3,99.1c0.8-2.5,2.7-2.8,4.6-2.9c4.1-0.3,8.3-0.6,12.4-0.7c22.2-0.3,44.5-0.6,66.7-0.8
			c1.6,0,3.1,0.1,4.7,0.5c0.8,0.2,1.5,0.6,2.1,1.2c0.5,0.6,0.8,1.4,0.9,2.3c0,0.8-0.2,1.6-0.7,2.3c-0.5,0.7-1.2,1.1-2,1.4
			c-1.4,0.4-2.8,0.7-4.3,0.7c-5.3,0-10.6,0-15.8-0.1c-19.4-0.3-38.9-0.7-58.3-1c-2.5,0-4.9-0.4-7.4-0.7
			C40.7,101,40.7,100.9,39.3,99.1z"/>
		<path class="st1" d="M91.4,72.9c-9.5,0-19.1-0.1-28.6,0c-4.4,0.1-8.7,0.6-13.1,0.9c-2.1,0.1-4.3,0.2-6.4,0.2
			c-2.1,0-3.2-0.9-3.3-2.2c-0.1-1.3,0.8-2.3,2.9-2.6c5.7-0.8,11.3-1.7,17-2c20.2-1.2,40.4-1.5,60.6-1.4c1.8,0,3.6,0.1,5.4,0.3
			c2,0.3,3,1.5,3,3.1c0,1.5-1.1,2.7-3.1,2.9c-2.5,0.3-4.9,0.4-7.4,0.5c-9,0.1-18,0-27,0L91.4,72.9z"/>
		<path class="st1" d="M115.8,136.2c-3,0-6.1,0-9.1,0c-2.8-0.1-4.2-1-4.2-2.8c0-1.8,1.3-2.7,4.1-2.9c5.6-0.4,11.2-0.8,16.8-1.1
			c1.5-0.1,2.9,0,4.3,0.2c0.7,0.1,1.3,0.4,1.8,0.9c0.5,0.5,0.8,1.1,0.8,1.8c0.2,1.6-0.4,3-1.9,3.6c-1.4,0.5-2.8,0.8-4.2,0.9
			c-2.8,0.1-5.6,0-8.4,0C115.8,136.6,115.8,136.4,115.8,136.2z"/>
	</g>
</g>
</svg>
