<?xml version="1.0" encoding="utf-8"?>
<!-- Generator: Adobe Illustrator 24.1.2, SVG Export Plug-In . SVG Version: 6.00 Build 0)  -->
<svg version="1.1" id="Layer_1" xmlns="http://www.w3.org/2000/svg" xmlns:xlink="http://www.w3.org/1999/xlink" x="0px" y="0px"
	 viewBox="0 0 463 463" style="enable-background:new 0 0 463 463;" xml:space="preserve">
<style type="text/css">
	.st0{fill:#7D7FD2;}
</style>
<g>
	<g>
		<g>
			<path class="st0" d="M428.2,193.6L391,164.2V15.5C391,7,384,0,375.5,0h-288C79,0,72,7,72,15.5v148.7l-37.2,29.4
				c-1.8,1.4-2.8,3.6-2.8,5.9v240c0,13,10.5,23.5,23.5,23.5h352c13,0,23.5-10.5,23.5-23.5v-240C431,197.2,430,195,428.2,193.6z
				 M416,439.5c0,0.2,0,0.3,0,0.5L273.9,327.5L416,215V439.5z M47,439.5V215l142.1,112.5L47,440C47,439.8,47,439.7,47,439.5z
				 M261.6,318.1c-17.7,14-42.5,14-60.2,0L172.2,295h118.6L261.6,318.1z M201.4,336.9c0.2-0.2,0.5-0.4,0.7-0.5
				c9.2,4.8,19.3,7.3,29.4,7.3c10.1,0,20.2-2.4,29.4-7.3c0.2,0.2,0.5,0.3,0.7,0.5L401.9,448H61.1L201.4,336.9z M411.4,199.5
				L391,215.7v-32.3L411.4,199.5z M87.5,15h288c0.3,0,0.5,0.2,0.5,0.5v212L309.7,280H153.3L87,227.5V168c0,0,0,0,0-0.1V15.5
				C87,15.2,87.2,15,87.5,15z M72,215.7l-20.4-16.2L72,183.3V215.7z"/>
			<path class="st0" d="M135.5,71h56c4.1,0,7.5-3.4,7.5-7.5s-3.4-7.5-7.5-7.5h-56c-4.1,0-7.5,3.4-7.5,7.5S131.4,71,135.5,71z"/>
			<path class="st0" d="M135.5,111h88c4.1,0,7.5-3.4,7.5-7.5s-3.4-7.5-7.5-7.5h-88c-4.1,0-7.5,3.4-7.5,7.5S131.4,111,135.5,111z"/>
			<path class="st0" d="M176,167.5c0,4.1,3.4,7.5,7.5,7.5h96c4.1,0,7.5-3.4,7.5-7.5s-3.4-7.5-7.5-7.5h-96
				C179.4,160,176,163.4,176,167.5z"/>
			<path class="st0" d="M135.5,215h192c4.1,0,7.5-3.4,7.5-7.5s-3.4-7.5-7.5-7.5h-192c-4.1,0-7.5,3.4-7.5,7.5S131.4,215,135.5,215z"
				/>
			<path class="st0" d="M135.5,255h192c4.1,0,7.5-3.4,7.5-7.5s-3.4-7.5-7.5-7.5h-192c-4.1,0-7.5,3.4-7.5,7.5S131.4,255,135.5,255z"
				/>
		</g>
	</g>
</g>
</svg>
