<svg xmlns="http://www.w3.org/2000/svg" width="25.248" height="25.293" viewBox="0 0 25.248 25.293"><g transform="translate(0.601 1.414)"><path d="M25.5,1.5l6.673,6.673" transform="translate(-8.941 -1.5)" fill="none" stroke="#d93d3d" stroke-linecap="round" stroke-linejoin="round" stroke-width="2"/><path d="M25.288,19.595v3.337a2.224,2.224,0,0,1-2.425,2.224,22.011,22.011,0,0,1-9.6-3.415,21.689,21.689,0,0,1-6.673-6.673A22.011,22.011,0,0,1,3.177,5.425,2.224,2.224,0,0,1,5.39,3H8.727a2.224,2.224,0,0,1,2.224,1.913,14.281,14.281,0,0,0,.779,3.125,2.224,2.224,0,0,1-.5,2.347L9.817,11.8a17.8,17.8,0,0,0,6.673,6.673L17.9,17.059a2.224,2.224,0,0,1,2.347-.5,14.281,14.281,0,0,0,3.125.779,2.224,2.224,0,0,1,1.913,2.258Z" transform="translate(-3.168 -1.888)" fill="none" stroke="#d93d3d" stroke-linecap="round" stroke-linejoin="round" stroke-width="1.2"/></g></svg>