<?xml version="1.0" encoding="utf-8"?>
<!-- Generator: Adobe Illustrator 24.1.2, SVG Export Plug-In . SVG Version: 6.00 Build 0)  -->
<svg version="1.1" id="Layer_1" xmlns="http://www.w3.org/2000/svg" xmlns:xlink="http://www.w3.org/1999/xlink" x="0px" y="0px"
	 viewBox="0 0 512 512" style="enable-background:new 0 0 512 512;" xml:space="preserve">
<style type="text/css">
	.st0{fill:#7D7FD2;}
</style>
<g>
	<g>
		<g>
			<path class="st0" d="M97.3,269.5V308h-21c-7.1,0-12.8,5.7-12.8,12.8s5.7,12.8,12.8,12.8h21v9.5c0,7.1,5.7,12.8,12.8,12.8
				s12.8-5.7,12.8-12.8v-10.5c24.8-3.8,41.2-18.9,41.2-39.3v-8.2c0-20.4-16.4-35.5-41.2-39.3v-38.5h21c7.1,0,12.8-5.7,12.8-12.8
				s-5.7-12.8-12.8-12.8h-21v-9.5c0-7.1-5.7-12.8-12.8-12.8s-12.8,5.7-12.8,12.8v10.5c-24.5,4-41.2,19.6-41.2,40v7.4
				C56,250.5,72.5,265.6,97.3,269.5z M122.9,271.9c8.8,2.1,15.6,6.6,15.6,13.2v8.2c0,6.6-6.8,11.1-15.6,13.2
				C122.9,306.5,122.9,271.9,122.9,271.9z M81.6,222.7c0-6.9,6.9-11.6,15.6-13.9v34.5c-8.8-2.1-15.6-6.6-15.6-13.2V222.7z"/>
			<path class="st0" d="M499.2,115.2H12.8C5.7,115.2,0,120.9,0,128v256c0,7.1,5.7,12.8,12.8,12.8h486.4c7.1,0,12.8-5.7,12.8-12.8
				V128C512,120.9,506.3,115.2,499.2,115.2z M486.4,371.2H25.6V140.8h460.8V371.2z"/>
			<path class="st0" d="M218.2,215.7h131.8c7.1,0,12.8-5.7,12.8-12.8s-5.7-12.8-12.8-12.8H218.2c-7.1,0-12.8,5.7-12.8,12.8
				C205.4,209.9,211.2,215.7,218.2,215.7z"/>
			<path class="st0" d="M218.2,266.9h220.2c7.1,0,12.8-5.7,12.8-12.8c0-7.1-5.7-12.8-12.8-12.8H218.2c-7.1,0-12.8,5.7-12.8,12.8
				C205.4,261.1,211.2,266.9,218.2,266.9z"/>
			<path class="st0" d="M438.4,292.5h-74.2c-7.1,0-12.8,5.7-12.8,12.8s5.7,12.8,12.8,12.8h74.2c7.1,0,12.8-5.7,12.8-12.8
				C451.2,298.2,445.5,292.5,438.4,292.5z"/>
		</g>
	</g>
</g>
</svg>
