<svg xmlns="http://www.w3.org/2000/svg" width="12.267" height="15.104" viewBox="0 0 12.267 15.104"><path d="M186.8,184.012v8.715a1.952,1.952,0,0,0,.519,1.346,1.742,1.742,0,0,0,1.264.546h6.692a1.742,1.742,0,0,0,1.264-.546,1.952,1.952,0,0,0,.519-1.346v-8.715a1.351,1.351,0,0,0-.347-2.657H194.9v-.442a1.389,1.389,0,0,0-1.4-1.4h-3.141a1.389,1.389,0,0,0-1.4,1.4v.442h-1.811a1.351,1.351,0,0,0-.347,2.657Zm8.475,9.9h-6.692a1.12,1.12,0,0,1-1.075-1.185v-8.684h8.843v8.684A1.12,1.12,0,0,1,195.277,193.912Zm-5.61-13a.682.682,0,0,1,.693-.69H193.5a.682.682,0,0,1,.693.69v.442h-4.528Zm-2.518,1.15h9.564a.637.637,0,0,1,0,1.274h-9.564a.637.637,0,0,1,0-1.274Z" transform="translate(-185.798 -179.516)" fill="#7f7fd1"/></svg>