<svg xmlns="http://www.w3.org/2000/svg" width="34.109" height="33.481" viewBox="0 0 34.109 33.481"><g transform="translate(-4.03 -4.077)"><g transform="translate(13.979 4.077)"><path d="M17.615,6.774H17.6a2.824,2.824,0,1,1,2.837-2.824,2.831,2.831,0,0,1-2.824,2.824Z" transform="translate(-10.526 -1.125)" fill="#7f7fd1"/><path d="M14.922,31.841a1.7,1.7,0,0,1-1.683-1.9L13.3,12.637h-.623v6.547a1.512,1.512,0,0,1-.4,1.141,1.325,1.325,0,0,1-1.9,0,1.5,1.5,0,0,1-.4-1.141V11.6a3.6,3.6,0,0,1,.86-2.394,3.184,3.184,0,0,1,2.432-1.122H20.9a3.17,3.17,0,0,1,2.432,1.129,3.585,3.585,0,0,1,.86,2.388v7.582a1.478,1.478,0,0,1-.412,1.141,1.4,1.4,0,0,1-1.933,0,1.478,1.478,0,0,1-.412-1.141V12.637h-.561V29.946a1.727,1.727,0,1,1-3.442.037v-8.8h-.748v8.785A1.774,1.774,0,0,1,14.922,31.841Z" transform="translate(-9.984 -1.913)" fill="#7f7fd1"/></g><g transform="translate(4.03 27.896)"><path d="M469.971,835.763c7.553,0,13.678,1.733,13.678,3.874s-6.126,3.877-13.678,3.877-13.678-1.733-13.678-3.874,6.126-3.877,13.678-3.877c-9.418,0-17.054,2.161-17.054,4.831s7.636,4.831,17.054,4.831,17.054-2.161,17.054-4.831-7.636-4.831-17.054-4.831Z" transform="translate(-452.917 -835.763)" fill="#7f7fd1"/></g></g></svg>