<?xml version="1.0" encoding="utf-8"?>
<!-- Generator: Adobe Illustrator 19.0.0, SVG Export Plug-In . SVG Version: 6.00 Build 0)  -->
<svg version="1.1" id="Layer_1" xmlns="http://www.w3.org/2000/svg" xmlns:xlink="http://www.w3.org/1999/xlink" x="0px" y="0px"
	 viewBox="-388 266.3 64 64" style="enable-background:new -388 266.3 64 64;    height: 33px;width: 33px;display: inline-block;margin-top: -5px;" xml:space="preserve">
<g>
	<g>
		<rect x="-359" y="310.3" width="6" height="2"/>
	</g>
</g>
<g>
	<g>
		<path d="M-360,299.3c0,0.2-1.1,1-3,1s-3-0.8-3-1h-2c0,1.7,2.1,3,5,3s5-1.3,5-3H-360z"/>
	</g>
</g>
<g>
	<g>
		<path d="M-346,299.3c0,0.2-1.1,1-3,1s-3-0.8-3-1h-2c0,1.7,2.1,3,5,3s5-1.3,5-3H-346z"/>
	</g>
</g>
<g>
	<g>
		<rect x="-388" y="287.3" width="3" height="2"/>
	</g>
</g>
<g>
	<g>
		<rect x="-384" y="283.3" width="2" height="2"/>
	</g>
</g>
<g>
	<g>
		<rect x="-388" y="283.3" width="2" height="2"/>
	</g>
</g>
<g>
	<g>
		<rect x="-330" y="284.3" width="2" height="2"/>
	</g>
</g>
<g>
	<g>
		<rect x="-326" y="284.3" width="2" height="2"/>
	</g>
</g>
<g>
	<g>
		<rect x="-357" y="271.3" width="2" height="2"/>
	</g>
</g>
<g>
	<g>
		<rect x="-353" y="271.3" width="2" height="2"/>
	</g>
</g>
<g>
	<g>
		<rect x="-362" y="282.3" width="2" height="2"/>
	</g>
</g>
<g>
	<g>
		<rect x="-358" y="282.3" width="2" height="2"/>
	</g>
</g>
<g>
	<g>
		<rect x="-349" y="271.3" width="2" height="2"/>
	</g>
</g>
<g>
	<g>
		<path d="M-324.3,328.6l-5.2-5.2c-1.3-1.3-3.1-2-4.9-2h-8.5c-2.7,0-4.9-2.2-5-4.8c4.7-6,7.5-13.2,7.9-20.9l0.1-1.2h16v-2h-15.9
			c0.1-2.1-0.2-4.1-0.8-6h8.7v-2h-9.5c-0.7-1.4-1.6-2.8-2.7-3.9c-3.1-3.3-7.2-5.1-11.7-5.1c-4,0-7.7,1.4-10.6,4H-383v2h14.6
			c-1.4,1.8-2.5,3.8-3.1,6H-383v2h11.1c-0.1,1-0.2,2-0.1,3l0.2,3.2c0.4,7.7,3.2,14.8,7.8,20.8h0c0,2.8-2.2,5-5,5h-8.5
			c-1.9,0-3.6,0.7-4.9,2l-5.2,5.2c-0.2,0.2-0.3,0.4-0.3,0.7v1h2v-0.6l5-5c0.9-0.9,2.2-1.5,3.5-1.5h8.5c3.2,0,5.8-2.1,6.7-5
			c0.9,1,1.8,1.9,2.7,2.7c0.2,0.2,0.4,0.3,0.7,0.3h6c0.2,0,0.5-0.1,0.7-0.3c0.9-0.8,1.8-1.7,2.6-2.6c0.9,2.8,3.5,4.8,6.7,4.8h8.5
			c1.3,0,2.6,0.5,3.5,1.5l5,5v0.6h2v-1C-324,329-324.1,328.8-324.3,328.6z M-353.3,319.3h-5.2c-6.7-6.2-10.7-14.7-11.3-23.9
			l-0.2-3.2c-0.1-1,0-2,0.1-2.9h5.4l-1.3,1.3l1.4,1.4l3.7-3.7l-3.7-3.7l-1.4,1.4l1.3,1.3h-5c0.6-2.1,1.7-4,3.2-5.6
			c2.7-2.9,6.3-4.4,10.2-4.4s7.6,1.6,10.2,4.4c0.7,0.8,1.4,1.7,1.9,2.6h-6.8l1.3-1.3l-1.4-1.4l-3.7,3.7l3.7,3.7l1.4-1.4l-1.3-1.3
			h7.8c0.7,1.9,1,3.9,0.9,5.9l0,0.1h-4.7l1.3-1.3l-1.4-1.4l-3.7,3.7l3.7,3.7l1.4-1.4l-1.3-1.3h4.6l-0.1,1.1
			C-342.6,304.6-346.6,313-353.3,319.3z"/>
	</g>
</g>
</svg>
