<?xml version="1.0" encoding="utf-8"?>
<!-- Generator: Adobe Illustrator 21.0.0, SVG Export Plug-In . SVG Version: 6.00 Build 0)  -->
<svg version="1.1" id="Capa_1" xmlns="http://www.w3.org/2000/svg" xmlns:xlink="http://www.w3.org/1999/xlink" x="0px" y="0px"
	 viewBox="0 0 400.8 400.8" style="enable-background:new 0 0 400.8 400.8;" xml:space="preserve">
<path fill="#666" d="M241.4,16c-85,0-154.3,53.2-158.8,120C33,152,0,190.5,0,233.4c0.9,31.6,17.2,60.7,43.6,78.1v67.4c0,3.3,2.7,6,6,6
	c1.5,0,3-0.6,4.1-1.6l51.4-47c8.8,1.4,17.8,2.2,26.7,2.2c56,0,105.3-27.8,124-69.6c6.2-0.5,12.5-1.1,18.7-2.2l63,57.7
	c2.4,2.3,6.2,2.1,8.5-0.3c1-1.1,1.6-2.6,1.6-4.1v-82.7c33.8-24,53.2-58.3,53.2-94.5C400.7,72.8,329.3,16,241.4,16z M131.5,322.6
	c-8.7,0-17.4-0.8-26-2.3c-1.7-0.3-3.5,0.2-4.8,1.4l-41.1,37.8v-53.9c0-1.9-0.9-3.6-2.5-4.7c-24.8-16.7-38.8-41.1-38.8-66.2
	c0-34.5,26.4-65.9,66.4-80.1c0.4,5.1,1.2,10.2,2.5,15.1c5.6,23,18.3,43.7,36.4,59c1.1,1,39.5,38.8,112.4,39.7
	C218.4,301.2,177.7,322.6,131.5,322.6z M335.1,227.1c-1.6,1.1-2.6,2.9-2.6,4.8v69.7l-53.4-48.9c-1.1-1-2.5-1.5-3.9-1.5H274
	c-10.2,1.9-20.6,2.9-31,2.9c-56.2,0-90.2-21.8-106.9-35.9c-17-14.7-29.3-34-35.5-55.6c-1.5-6.4-2.3-12.9-2.3-19.4
	c0.5-60.9,64.4-110.8,143-110.8S384,82.1,384,143.4C384,175.4,366.2,206,335.1,227.1z"/>
</svg>
