<svg id="Capa_1" enable-background="new 0 0 507.921 507.921" height="512" viewBox="0 0 507.921 507.921" width="512" xmlns="http://www.w3.org/2000/svg"><path d="m293.38 237.056h17.352c11.274 0 20.446-9.172 20.446-20.446v-17.352c0-11.274-9.172-20.446-20.446-20.446h-17.352c-11.274 0-20.446 9.172-20.446 20.446v17.352c0 11.274 9.172 20.446 20.446 20.446zm-5.446-37.797c0-3.003 2.443-5.446 5.446-5.446h17.352c3.003 0 5.446 2.443 5.446 5.446v17.352c0 3.003-2.443 5.446-5.446 5.446h-17.352c-3.003 0-5.446-2.443-5.446-5.446z"/><path d="m90.737 252.832h-17.352c-11.274 0-20.446 9.172-20.446 20.446v17.352c0 11.274 9.172 20.446 20.446 20.446h17.352c11.274 0 20.446-9.172 20.446-20.446v-17.352c0-11.274-9.172-20.446-20.446-20.446zm5.446 37.798c0 3.003-2.443 5.446-5.446 5.446h-17.352c-3.003 0-5.446-2.443-5.446-5.446v-17.352c0-3.003 2.443-5.446 5.446-5.446h17.352c3.003 0 5.446 2.443 5.446 5.446z"/><path d="m90.737 178.812h-17.352c-11.274 0-20.446 9.172-20.446 20.446v17.352c0 11.274 9.172 20.446 20.446 20.446h17.352c11.274 0 20.446-9.172 20.446-20.446v-17.352c0-11.273-9.172-20.446-20.446-20.446zm5.446 37.798c0 3.003-2.443 5.446-5.446 5.446h-17.352c-3.003 0-5.446-2.443-5.446-5.446v-17.352c0-3.003 2.443-5.446 5.446-5.446h17.352c3.003 0 5.446 2.443 5.446 5.446z"/><path d="m146.717 237.056h17.352c11.274 0 20.446-9.172 20.446-20.446v-17.352c0-11.274-9.172-20.446-20.446-20.446h-17.352c-11.274 0-20.446 9.172-20.446 20.446v17.352c0 11.274 9.172 20.446 20.446 20.446zm-5.446-37.797c0-3.003 2.443-5.446 5.446-5.446h17.352c3.003 0 5.446 2.443 5.446 5.446v17.352c0 3.003-2.443 5.446-5.446 5.446h-17.352c-3.003 0-5.446-2.443-5.446-5.446z"/><path d="m220.048 237.056h17.352c11.274 0 20.446-9.172 20.446-20.446v-17.352c0-11.274-9.172-20.446-20.446-20.446h-17.352c-11.274 0-20.446 9.172-20.446 20.446v17.352c0 11.274 9.172 20.446 20.446 20.446zm-5.446-37.797c0-3.003 2.443-5.446 5.446-5.446h17.352c3.003 0 5.446 2.443 5.446 5.446v17.352c0 3.003-2.443 5.446-5.446 5.446h-17.352c-3.003 0-5.446-2.443-5.446-5.446z"/><path d="m366.711 237.056h17.352c11.274 0 20.446-9.172 20.446-20.446v-17.352c0-11.274-9.172-20.446-20.446-20.446h-17.352c-11.274 0-20.446 9.172-20.446 20.446v17.352c0 11.274 9.173 20.446 20.446 20.446zm-5.446-37.797c0-3.003 2.443-5.446 5.446-5.446h17.352c3.003 0 5.446 2.443 5.446 5.446v17.352c0 3.003-2.443 5.446-5.446 5.446h-17.352c-3.003 0-5.446-2.443-5.446-5.446z"/><path d="m126.271 290.63c0 11.274 9.172 20.446 20.446 20.446h17.352c11.274 0 20.446-9.172 20.446-20.446v-17.352c0-11.274-9.172-20.446-20.446-20.446h-17.352c-11.274 0-20.446 9.172-20.446 20.446zm15-17.352c0-3.003 2.443-5.446 5.446-5.446h17.352c3.003 0 5.446 2.443 5.446 5.446v17.352c0 3.003-2.443 5.446-5.446 5.446h-17.352c-3.003 0-5.446-2.443-5.446-5.446z"/><path d="m199.602 290.63c0 11.274 9.172 20.446 20.446 20.446h17.352c11.274 0 20.446-9.172 20.446-20.446v-17.352c0-11.274-9.172-20.446-20.446-20.446h-17.352c-11.274 0-20.446 9.172-20.446 20.446zm15-17.352c0-3.003 2.443-5.446 5.446-5.446h17.352c3.003 0 5.446 2.443 5.446 5.446v17.352c0 3.003-2.443 5.446-5.446 5.446h-17.352c-3.003 0-5.446-2.443-5.446-5.446z"/><path d="m272.934 290.63c0 11.274 9.172 20.446 20.446 20.446h17.352c11.274 0 20.446-9.172 20.446-20.446v-17.352c0-11.274-9.172-20.446-20.446-20.446h-17.352c-11.274 0-20.446 9.172-20.446 20.446zm15-17.352c0-3.003 2.443-5.446 5.446-5.446h17.352c3.003 0 5.446 2.443 5.446 5.446v17.352c0 3.003-2.443 5.446-5.446 5.446h-17.352c-3.003 0-5.446-2.443-5.446-5.446z"/><path d="m346.265 290.63c0 11.274 9.172 20.446 20.446 20.446h17.352c11.274 0 20.446-9.172 20.446-20.446v-17.352c0-11.274-9.172-20.446-20.446-20.446h-17.352c-11.274 0-20.446 9.172-20.446 20.446zm15-17.352c0-3.003 2.443-5.446 5.446-5.446h17.352c3.003 0 5.446 2.443 5.446 5.446v17.352c0 3.003-2.443 5.446-5.446 5.446h-17.352c-3.003 0-5.446-2.443-5.446-5.446z"/><path d="m90.737 326.851h-17.352c-11.274 0-20.446 9.172-20.446 20.446v17.352c0 11.274 9.172 20.446 20.446 20.446h17.352c11.274 0 20.446-9.172 20.446-20.446v-17.352c0-11.273-9.172-20.446-20.446-20.446zm5.446 37.798c0 3.003-2.443 5.446-5.446 5.446h-17.352c-3.003 0-5.446-2.443-5.446-5.446v-17.352c0-3.003 2.443-5.446 5.446-5.446h17.352c3.003 0 5.446 2.443 5.446 5.446z"/><path d="m126.271 364.649c0 11.274 9.172 20.446 20.446 20.446h17.352c11.274 0 20.446-9.172 20.446-20.446v-17.352c0-11.274-9.172-20.446-20.446-20.446h-17.352c-11.274 0-20.446 9.172-20.446 20.446zm15-17.351c0-3.003 2.443-5.446 5.446-5.446h17.352c3.003 0 5.446 2.443 5.446 5.446v17.352c0 3.003-2.443 5.446-5.446 5.446h-17.352c-3.003 0-5.446-2.443-5.446-5.446z"/><path d="m199.602 364.649c0 11.274 9.172 20.446 20.446 20.446h17.352c11.274 0 20.446-9.172 20.446-20.446v-17.352c0-11.274-9.172-20.446-20.446-20.446h-17.352c-11.274 0-20.446 9.172-20.446 20.446zm15-17.351c0-3.003 2.443-5.446 5.446-5.446h17.352c3.003 0 5.446 2.443 5.446 5.446v17.352c0 3.003-2.443 5.446-5.446 5.446h-17.352c-3.003 0-5.446-2.443-5.446-5.446z"/><path d="m272.499 364.649c0 11.274 9.172 20.446 20.446 20.446h17.352c11.274 0 20.446-9.172 20.446-20.446v-17.352c0-11.274-9.172-20.446-20.446-20.446h-17.352c-11.274 0-20.446 9.172-20.446 20.446zm15-17.351c0-3.003 2.443-5.446 5.446-5.446h17.352c3.003 0 5.446 2.443 5.446 5.446v17.352c0 3.003-2.443 5.446-5.446 5.446h-17.352c-3.003 0-5.446-2.443-5.446-5.446z"/><path d="m457.448 337.438v-261.66c0-20.034-16.299-36.333-36.333-36.333h-46.545v-17.404c0-4.142-3.358-7.5-7.5-7.5s-7.5 3.358-7.5 7.5v17.404h-77.23v-17.404c0-4.142-3.358-7.5-7.5-7.5s-7.5 3.358-7.5 7.5v17.404h-77.23v-17.404c0-4.142-3.358-7.5-7.5-7.5s-7.5 3.358-7.5 7.5v17.404h-77.23v-17.404c0-4.142-3.358-7.5-7.5-7.5s-7.5 3.358-7.5 7.5v17.404h-46.547c-20.034 0-36.333 16.298-36.333 36.333v326.206c0 23.367 19.01 42.376 42.377 42.376h53.276c4.142 0 7.5-3.358 7.5-7.5s-3.358-7.5-7.5-7.5h-53.276c-15.096 0-27.377-12.281-27.377-27.376v-250.201h427.448v181.179c-5.016-.976-10.19-1.503-15.487-1.503-15.255 0-30.118 4.267-42.982 12.34-3.508 2.202-4.568 6.831-2.366 10.339 2.201 3.508 6.83 4.567 10.339 2.366 10.472-6.572 22.578-10.045 35.009-10.045 36.371 0 65.96 29.59 65.96 65.96 0 36.371-29.59 65.961-65.96 65.961s-65.961-29.589-65.961-65.96c0-12.887 3.715-25.369 10.743-36.096 2.27-3.465 1.302-8.114-2.163-10.384-3.464-2.271-8.114-1.302-10.384 2.163-8.633 13.177-13.196 28.501-13.196 44.317 0 5.81.628 11.474 1.797 16.94h-222.144c-4.142 0-7.5 3.358-7.5 7.5s3.358 7.5 7.5 7.5h226.927c12.416 28.802 41.078 49.021 74.381 49.021 44.642 0 80.96-36.319 80.96-80.961 0-33.86-20.902-62.914-50.473-74.982zm-442.448-200.655v-61.005c0-11.763 9.57-21.333 21.333-21.333h46.545v11.354c-13.881 3.379-24.218 15.909-24.218 30.815 0 17.489 14.229 31.718 31.718 31.718s31.718-14.229 31.718-31.718c0-14.906-10.338-27.436-24.218-30.815v-11.354h77.23v11.354c-13.88 3.379-24.218 15.909-24.218 30.815 0 17.489 14.229 31.718 31.718 31.718s31.718-14.229 31.718-31.718c0-14.906-10.338-27.436-24.218-30.815v-11.354h77.23v11.354c-13.88 3.379-24.218 15.909-24.218 30.815 0 17.489 14.229 31.718 31.718 31.718s31.718-14.229 31.718-31.718c0-14.906-10.338-27.436-24.218-30.815v-11.354h77.23v11.354c-13.88 3.379-24.218 15.909-24.218 30.815 0 17.489 14.229 31.718 31.718 31.718s31.718-14.229 31.718-31.718c0-14.906-10.338-27.436-24.218-30.815v-11.354h46.545c11.763 0 21.333 9.57 21.333 21.333v61.005zm75.379-32.669c4.142 0 7.5-3.358 7.5-7.5v-14.921c5.458 2.755 9.218 8.401 9.218 14.921 0 9.218-7.5 16.718-16.718 16.718s-16.718-7.5-16.718-16.718c0-6.52 3.76-12.166 9.218-14.921v14.921c0 4.142 3.358 7.5 7.5 7.5zm92.23 0c4.142 0 7.5-3.358 7.5-7.5v-14.921c5.458 2.755 9.218 8.401 9.218 14.921 0 9.218-7.5 16.718-16.718 16.718s-16.718-7.5-16.718-16.718c0-6.52 3.76-12.166 9.218-14.921v14.921c0 4.142 3.358 7.5 7.5 7.5zm92.23 0c4.142 0 7.5-3.358 7.5-7.5v-14.921c5.458 2.755 9.218 8.401 9.218 14.921 0 9.218-7.5 16.718-16.718 16.718s-16.718-7.5-16.718-16.718c0-6.52 3.76-12.166 9.218-14.921v14.921c0 4.142 3.358 7.5 7.5 7.5zm92.23 0c4.142 0 7.5-3.358 7.5-7.5v-14.921c5.458 2.755 9.218 8.401 9.218 14.921 0 9.218-7.5 16.718-16.718 16.718s-16.718-7.5-16.718-16.718c0-6.52 3.76-12.166 9.218-14.921v14.921c0 4.142 3.358 7.5 7.5 7.5z"/><path d="m426.983 360.498c-4.142 0-7.5 3.358-7.5 7.5v44.232c0 4.142 3.358 7.5 7.5 7.5h44.395c4.142 0 7.5-3.358 7.5-7.5s-3.358-7.5-7.5-7.5h-36.895v-36.732c0-4.142-3.358-7.5-7.5-7.5z"/></svg>