<?xml version="1.0" encoding="utf-8"?>
<!-- Generator: Adobe Illustrator 21.0.0, SVG Export Plug-In . SVG Version: 6.00 Build 0)  -->
<svg version="1.1" id="Capa_1" xmlns="http://www.w3.org/2000/svg" xmlns:xlink="http://www.w3.org/1999/xlink" x="0px" y="0px"
	 viewBox="0 0 512 512" style="enable-background:new 0 0 512 512;" xml:space="preserve">
<style type="text/css">
	.st0{enable-background:new    ;}
	.st1{fill:#666;}
	.st2{fill:#666;}
</style>
<g class="st0">
	<path fill="#666" class="st1" d="M262.2,165.4c34.8,0,58.1,20.4,58.1,48.8c0,19.8-9.7,33.6-27,44c-16.7,9.8-21.4,16.5-21.4,29.4v7.5h-29.5
		l-0.1-9.2c-1.1-19.1,6.2-30.7,23.8-41.2c15.8-9.7,21.1-16.7,21.1-29.4c0-13.7-10.7-23.6-26.7-23.6c-16.4,0-27,10.2-28,26.2h-29.9
		C203.7,187.6,224.5,165.4,262.2,165.4z M239.1,337.5c0-10.2,8.3-18.2,18.6-18.2c10.3,0,18.4,8,18.4,18.2s-8.1,18.3-18.4,18.3
		C247.3,355.8,239.1,347.7,239.1,337.5z"/>
</g>
<g>
	<path fill="#666" class="st2" d="M256,453c-6.8,0-13.9-0.4-21.1-1.2c-15.2-1.7-30.2-5.2-44.6-10.4c-6.4-2.4-12.7-5-18.5-7.9
		c-12-5.9-23.4-13-33.8-21.3c-6.3-4.9-12.6-10.5-19-17.1c-5.8-5.9-11.2-12.3-16.7-19.6c-5.9-8-11.3-16.7-16.1-25.8
		c-4.6-8.7-8.5-18-11.9-28.3c-3.6-11.1-6.2-22.4-7.7-33.5c-1.2-8.9-1.8-17.4-1.8-26c0-14.7,1.7-29.5,5-43.9
		c4.7-20.2,12.8-39.6,24.1-57.7c8.1-12.9,17.8-24.9,28.8-35.6c16.4-15.9,35.4-28.6,56.4-37.9c24.3-10.6,50-15.9,76.5-15.9
		c20.6,0,41,3.3,60.6,9.8c5,1.7,7.7,7,6,12c-1.7,5-7,7.7-12,6c-17.7-5.9-36-8.8-54.6-8.8c-23.9,0-47.1,4.8-68.9,14.3
		c-18.9,8.3-36,19.8-50.8,34.1c-9.9,9.6-18.7,20.4-26,32c-10.2,16.3-17.5,33.8-21.7,51.9c-3,13-4.6,26.4-4.6,39.6
		c0,7.8,0.5,15.4,1.6,23.4c1.4,10,3.7,20.2,6.9,30.2c3.1,9.3,6.6,17.6,10.7,25.4c4.3,8.2,9.2,16.1,14.5,23.3
		c4.9,6.6,9.8,12.3,14.9,17.6c5.9,6,11.5,11,17.2,15.5c9.4,7.4,19.6,13.9,30.4,19.2c5.3,2.6,10.9,5,16.7,7.1
		c13,4.7,26.4,7.9,40.1,9.4c6.5,0.7,13,1,19.1,1c16.1,0,32-2.2,47.3-6.5c5-1.4,10.3,1.5,11.7,6.6c1.4,5-1.5,10.3-6.6,11.7
		C291.5,450.6,273.8,453,256,453z"/>
</g>
<g>
	<path fill="#666" class="st2" d="M347,428.6c-3.3,0-6.4-1.7-8.2-4.7c-2.6-4.5-1.1-10.3,3.4-13c7.1-4.1,13.7-8.6,19.5-13.2
		c15.1-11.8,28.2-26,38.9-42.5c7-10.8,12.8-22.5,17.2-34.8c2.8-7.8,5.1-16.1,6.8-24.5c2.2-11,3.3-22.4,3.3-33.8
		c0-15.7-2.2-31.5-6.4-46.7c-3.3-11.8-8-23.4-13.9-34.5c-6.5-12.1-14.4-23.4-23.6-33.6c-3.5-3.9-3.2-9.9,0.7-13.4
		c3.9-3.5,9.9-3.2,13.4,0.7c10.2,11.4,19,24,26.2,37.4c6.6,12.3,11.8,25.2,15.5,38.3c4.7,16.9,7.2,34.4,7.2,51.9
		c0,12.7-1.2,25.3-3.7,37.6c-1.9,9.3-4.4,18.5-7.6,27.2c-4.9,13.7-11.4,26.7-19.2,38.6c-11.8,18.2-26.4,34.1-43.1,47.1
		c-6.5,5.1-13.8,10-21.6,14.6C350.3,428.2,348.6,428.6,347,428.6z"/>
</g>
</svg>
