<?xml version="1.0" encoding="utf-8"?>
<!-- Generator: Adobe Illustrator 21.0.0, SVG Export Plug-In . SVG Version: 6.00 Build 0)  -->
<svg version="1.1" id="Capa_1" xmlns="http://www.w3.org/2000/svg" xmlns:xlink="http://www.w3.org/1999/xlink" x="0px" y="0px"
	 viewBox="0 0 290.2 290.2" style="enable-background:new 0 0 290.2 290.2;" xml:space="preserve">
<path fill="#666" shape-rendering="auto" image-rendering="auto" color-rendering="auto" color-interpolation="sRGB" d="M145.3,49.3
	c-0.6,0-1.3,0.1-1.9,0.3l-136,60.1c-4.6,1.5-4.6,8,0,9.5l16.7,6v35.2c-5.8,2.1-10,7.6-10,14.1s4.2,12,10,14.1v15.9
	c-0.1,6.8,10.1,6.8,10,0v-15.9c5.8-2.1,10-7.6,10-14.1s-4.2-12-10-14.1v-31.6l26,10.7v74.2c-0.4,2.5,1.1,5,3.6,5.6
	c53.5,15.3,114.2,15.4,162.9,0c2.4-0.7,3.9-3.2,3.5-5.7v-74.1l51.7-20.2c4.6-1.6,4.5-8.2-0.3-9.5v0L146.8,49.6
	C146.3,49.4,145.8,49.3,145.3,49.3L145.3,49.3z M145.1,59.6l120.4,54.8l-120.4,44.8L23.7,114.4L145.1,59.6z M70.1,143l73.3,26.2
	c1.1,0.4,2.3,0.4,3.4,0l73.3-26.2v67.8c-44.7,13.3-100.6,13.3-150-0.1L70.1,143z M29.1,169.5c2.8,0,5,2.2,5,5s-2.2,5-5,5s-5-2.2-5-5
	C24.1,171.7,26.3,169.5,29.1,169.5z"/>
</svg>
