<?xml version="1.0" standalone="no"?>
<svg viewBox="0 0 200 200" xmlns="http://www.w3.org/2000/svg">
  <path fill="#FA4D56" d="M50.6,-69.9C64.2,-59.8,72.9,-43.2,74.9,-26.7C77,-10.3,72.4,5.9,64.5,18.1C56.6,30.3,45.3,38.6,34,44.3C22.7,49.9,11.4,52.8,-3.4,57.5C-18.1,62.1,-36.1,68.4,-47.3,62.7C-58.4,57,-62.6,39.4,-69.1,21.9C-75.5,4.4,-84.2,-12.9,-80.4,-26.6C-76.6,-40.3,-60.2,-50.3,-44.7,-59.8C-29.2,-69.2,-14.6,-78.1,1.9,-80.7C18.5,-83.4,37,-79.9,50.6,-69.9Z" transform="translate(100 100)" />
</svg>
