<?xml version="1.0" standalone="no"?>
<svg viewBox="0 0 200 200" xmlns="http://www.w3.org/2000/svg">
  <path fill="#E8DAFF" d="M28.4,-48.7C38.4,-37.7,49.3,-32.6,53.1,-24.3C56.8,-15.9,53.5,-4.4,52.1,7.8C50.8,19.9,51.5,32.5,47.8,47.2C44.1,61.8,36,78.4,24.2,81.4C12.4,84.4,-3.1,73.9,-16.4,65.6C-29.6,57.2,-40.6,51,-52.8,42.6C-64.9,34.2,-78.3,23.7,-82.8,10.2C-87.4,-3.3,-83.3,-19.7,-72.7,-29.2C-62.2,-38.8,-45.2,-41.4,-32,-51C-18.8,-60.6,-9.4,-77.2,-0.1,-77C9.2,-76.8,18.3,-59.8,28.4,-48.7Z" transform="translate(100 100)" />
</svg>
