<?xml version="1.0" standalone="no"?>
<svg viewBox="0 0 200 200" xmlns="http://www.w3.org/2000/svg">
  <path fill="#24A148" d="M26.2,-52.1C33.9,-41,40.1,-33.8,50.7,-25.8C61.4,-17.8,76.6,-8.9,77.8,0.7C79.1,10.4,66.5,20.7,56,29C45.5,37.4,37.2,43.7,28.2,47.1C19.2,50.6,9.6,51.2,0,51.2C-9.6,51.2,-19.2,50.5,-31.8,49.1C-44.5,47.8,-60.2,45.8,-64.9,37.5C-69.7,29.2,-63.5,14.6,-61.7,1C-60,-12.6,-62.7,-25.2,-59,-35.3C-55.4,-45.5,-45.3,-53.3,-34.4,-62.5C-23.5,-71.8,-11.7,-82.6,-1.2,-80.4C9.3,-78.3,18.5,-63.2,26.2,-52.1Z" transform="translate(100 100)" />
</svg>
