<svg xmlns="http://www.w3.org/2000/svg" xmlns:xlink="http://www.w3.org/1999/xlink" viewBox="0 0 206.39 206.39"><defs><style>.cls-1{fill:url(#linear-gradient);}.cls-2{fill:url(#linear-gradient-2);}.cls-3{fill:url(#linear-gradient-3);}.cls-4{opacity:0.18;isolation:isolate;}</style><linearGradient id="linear-gradient" y1="651.2" x2="206.39" y2="651.2" gradientTransform="translate(0 -548)" gradientUnits="userSpaceOnUse"><stop offset="0.01" stop-color="#7cfef0"/><stop offset="0.52" stop-color="#3a86ff"/><stop offset="1" stop-color="#8338ec"/></linearGradient><linearGradient id="linear-gradient-2" x1="23.22" y1="669.89" x2="206.37" y2="669.89" gradientTransform="translate(0 -548)" gradientUnits="userSpaceOnUse"><stop offset="0.01" stop-color="#ffbe0b"/><stop offset="0.5" stop-color="#ff006e"/><stop offset="1" stop-color="#8338ec"/></linearGradient><linearGradient id="linear-gradient-3" x1="0" y1="616.53" x2="161.66" y2="616.53" xlink:href="#linear-gradient-2"/></defs><g id="Layer_2" data-name="Layer 2"><g id="Layer_1-2" data-name="Layer 1"><g id="Layer_2-2" data-name="Layer 2"><g id="Ñëîé_1" data-name="Ñëîé 1"><polygon class="cls-1" points="206.39 0 0 137.06 0 206.39 206.39 0"/><path class="cls-2" d="M145.85,74.17A51.59,51.59,0,0,1,103.2,154.8H74.82l-51.6,51.59h80a103.2,103.2,0,0,0,79.45-169Z"/><path class="cls-3" d="M51.6,102.79V51.6h51.6a51,51,0,0,1,7.31.52l51.15-34A102.56,102.56,0,0,0,103.2,0H0V137.06Z"/><polygon class="cls-4" points="51.6 102.79 0 137.06 51.6 87.04 51.6 102.79"/></g></g></g></g></svg>