<svg id="Group_887" data-name="Group 887" xmlns="http://www.w3.org/2000/svg" width="17.607" height="18.864" viewBox="0 0 17.607 18.864">
  <g id="Group_886" data-name="Group 886" transform="translate(0)">
    <path id="Path_1390" data-name="Path 1390" d="M34.359,18.236H32.473V.314A.3.3,0,0,0,32.158,0H19.582a.3.3,0,0,0-.314.314V18.236H17.381a.314.314,0,0,0,0,.629H34.359a.314.314,0,0,0,0-.629Zm-13.205,0V1.886h9.432V18.236Zm10.061,0V1.572a.3.3,0,0,0-.314-.314H20.84a.3.3,0,0,0-.314.314V18.236H19.9V.629H31.844V18.236h-.629Z" transform="translate(-17.067)" fill="#707070"/>
    <path id="Path_1391" data-name="Path 1391" d="M292.649,247.467h-1.258a.3.3,0,0,0-.314.314v.314h-.629a.314.314,0,0,0,0,.629h.629v.314a.3.3,0,0,0,.314.314h1.258a.3.3,0,0,0,.314-.314v-1.258A.3.3,0,0,0,292.649,247.467Zm-.314,1.258h-.629V248.1h.629v.629Z" transform="translate(-280.073 -238.349)" fill="#707070"/>
  </g>
</svg>
