 <svg
        xmlns="http://www.w3.org/2000/svg"
        width="11.718"
        height="14.428"
        viewBox="0 0 11.718 14.428"
      >
        <g
          id="Group_860"
          data-name="Group 860"
          transform="translate(-39.997 0.001)"
        >
          <path
            id="Path_1367"
            data-name="Path 1367"
            d="M262.737,161.765a.338.338,0,0,0,.338-.338v-6.386a.338.338,0,0,0-.676,0v6.386A.338.338,0,0,0,262.737,161.765Z"
            transform="translate(-214.887 -149.477)"
            fill="#6c59d8"
          />
          <path
            id="Path_1368"
            data-name="Path 1368"
            d="M144.737,161.765a.338.338,0,0,0,.338-.338v-6.386a.338.338,0,0,0-.676,0v6.386A.338.338,0,0,0,144.737,161.765Z"
            transform="translate(-100.874 -149.477)"
            fill="#6c59d8"
          />
          <path
            id="Path_1369"
            data-name="Path 1369"
            d="M51.7,2.879a1.291,1.291,0,0,0-1.28-1.124h-1.73V1.333A1.327,1.327,0,0,0,47.356,0h-3a1.327,1.327,0,0,0-1.338,1.335v.422h-1.73a1.291,1.291,0,0,0-.331,2.538v8.325a1.864,1.864,0,0,0,.5,1.286,1.664,1.664,0,0,0,1.207.522h6.393A1.663,1.663,0,0,0,50.26,13.9a1.864,1.864,0,0,0,.5-1.286V4.294A1.291,1.291,0,0,0,51.7,2.879ZM43.694,1.333a.651.651,0,0,1,.662-.659h3a.651.651,0,0,1,.662.659v.422H43.694ZM50.08,12.619a1.07,1.07,0,0,1-1.027,1.132H42.66a1.07,1.07,0,0,1-1.027-1.132v-8.3H50.08Zm.345-8.971H41.288a.608.608,0,0,1,0-1.216h9.136a.608.608,0,0,1,0,1.216Z"
            transform="translate(0 0)"
            fill="#6c59d8"
          />
          <path
            id="Path_1370"
            data-name="Path 1370"
            d="M203.737,161.765a.338.338,0,0,0,.338-.338v-6.386a.338.338,0,0,0-.676,0v6.386A.338.338,0,0,0,203.737,161.765Z"
            transform="translate(-157.881 -149.477)"
            fill="#6c59d8"
          />
        </g>
  </svg>