<svg id="Groupe_865" data-name="Groupe 865" xmlns="http://www.w3.org/2000/svg" width="14.934" height="16" viewBox="0 0 14.934 16">
  <g id="Groupe_862" data-name="Groupe 862">
    <g id="Groupe_861" data-name="Groupe 861" transform="translate(0)">
      <path id="Tracé_1373" data-name="Tracé 1373" d="M31.734,15.467h-1.6V.267A.252.252,0,0,0,29.867,0H19.2a.252.252,0,0,0-.267.267v15.2h-1.6a.267.267,0,0,0,0,.533h14.4a.267.267,0,0,0,0-.533Zm-11.2,0V1.6h8V15.467Zm8.533,0V1.333a.252.252,0,0,0-.267-.267H20.267A.252.252,0,0,0,20,1.333V15.467h-.533V.533H29.6V15.467h-.533Z" transform="translate(-17.067 0)" fill="#6c59d8"/>
      <path id="Tracé_1374" data-name="Tracé 1374" d="M292.267,247.467H291.2a.252.252,0,0,0-.267.267V248H290.4a.267.267,0,0,0,0,.533h.533v.267a.252.252,0,0,0,.267.267h1.067a.252.252,0,0,0,.267-.267v-1.067A.252.252,0,0,0,292.267,247.467ZM292,248.534h-.533V248H292v.533Z" transform="translate(-281.601 -239.734)" fill="#6c59d8"/>
    </g>
  </g>
</svg>