<svg id="Groupe_653" data-name="Groupe 653" xmlns="http://www.w3.org/2000/svg" width="21.522" height="21.522" viewBox="0 0 21.522 21.522">
  <g id="Groupe_641" data-name="Groupe 641" transform="translate(1.872 12.165)">
    <path id="Tracé_1207" data-name="Tracé 1207" d="M367.171,452.923a.468.468,0,0,1-.331-.8l6.55-6.55a.468.468,0,0,1,.662.662l-6.55,6.55A.467.467,0,0,1,367.171,452.923Z" transform="translate(-366.703 -445.437)" fill="#8b7be6"/>
  </g>
  <g id="Groupe_642" data-name="Groupe 642" transform="translate(12.165 12.165)">
    <path id="Tracé_1208" data-name="Tracé 1208" d="M405.754,452.923a.468.468,0,0,1-.331-.8l6.55-6.55a.468.468,0,0,1,.662.662l-6.55,6.55A.468.468,0,0,1,405.754,452.923Z" transform="translate(-405.285 -445.437)" fill="#8b7be6"/>
  </g>
  <g id="Groupe_643" data-name="Groupe 643" transform="translate(1.872 12.165)">
    <path id="Tracé_1209" data-name="Tracé 1209" d="M373.721,452.923a.467.467,0,0,1-.331-.137l-6.55-6.55a.468.468,0,0,1,.662-.662l6.55,6.55a.468.468,0,0,1-.331.8Z" transform="translate(-366.703 -445.437)" fill="#8b7be6"/>
  </g>
  <g id="Groupe_644" data-name="Groupe 644" transform="translate(5.147 1.872)">
    <path id="Tracé_1210" data-name="Tracé 1210" d="M379.448,414.34a.468.468,0,0,1-.468-.468v-6.55a.468.468,0,1,1,.936,0v6.55A.468.468,0,0,1,379.448,414.34Z" transform="translate(-378.98 -406.854)" fill="#8b7be6"/>
  </g>
  <g id="Groupe_645" data-name="Groupe 645" transform="translate(1.872 5.147)">
    <path id="Tracé_1211" data-name="Tracé 1211" d="M373.721,420.067h-6.55a.468.468,0,1,1,0-.936h6.55a.468.468,0,1,1,0,.936Z" transform="translate(-366.703 -419.131)" fill="#8b7be6"/>
  </g>
  <g id="Groupe_646" data-name="Groupe 646" transform="translate(12.165 5.147)">
    <path id="Tracé_1212" data-name="Tracé 1212" d="M412.3,420.067h-6.55a.468.468,0,1,1,0-.936h6.55a.468.468,0,1,1,0,.936Z" transform="translate(-405.286 -419.131)" fill="#8b7be6"/>
  </g>
  <g id="Groupe_647" data-name="Groupe 647" transform="translate(12.165 12.165)">
    <path id="Tracé_1213" data-name="Tracé 1213" d="M406.69,448.243a1.4,1.4,0,1,1,1.4-1.4A1.405,1.405,0,0,1,406.69,448.243Zm0-1.872a.468.468,0,1,0,.468.468A.469.469,0,0,0,406.69,446.372Z" transform="translate(-405.286 -445.436)" fill="#8b7be6"/>
  </g>
  <g id="Groupe_648" data-name="Groupe 648" transform="translate(16.844 16.844)">
    <path id="Tracé_1214" data-name="Tracé 1214" d="M424.226,465.782a1.4,1.4,0,1,1,1.4-1.4A1.405,1.405,0,0,1,424.226,465.782Zm0-1.872a.468.468,0,1,0,.468.468A.469.469,0,0,0,424.226,463.91Z" transform="translate(-422.822 -462.975)" fill="#8b7be6"/>
  </g>
  <g id="Groupe_649" data-name="Groupe 649">
    <path id="Tracé_1215" data-name="Tracé 1215" d="M370.449,411.068H360.156a.468.468,0,0,1-.468-.468V400.307a.468.468,0,0,1,.468-.468h10.293a.468.468,0,0,1,.468.468V410.6A.468.468,0,0,1,370.449,411.068Zm-9.826-.936h9.358v-9.358h-9.358Z" transform="translate(-359.688 -399.839)" fill="#8b7be6"/>
  </g>
  <g id="Groupe_650" data-name="Groupe 650" transform="translate(10.293)">
    <path id="Tracé_1216" data-name="Tracé 1216" d="M409.031,411.068H398.738a.468.468,0,0,1-.468-.468V400.307a.468.468,0,0,1,.468-.468h10.293a.468.468,0,0,1,.468.468V410.6A.468.468,0,0,1,409.031,411.068Zm-9.825-.936h9.357v-9.358h-9.357Z" transform="translate(-398.27 -399.839)" fill="#8b7be6"/>
  </g>
  <g id="Groupe_651" data-name="Groupe 651" transform="translate(0 10.294)">
    <path id="Tracé_1217" data-name="Tracé 1217" d="M370.449,449.651H360.156a.468.468,0,0,1-.468-.468V438.89a.468.468,0,0,1,.468-.468h10.293a.468.468,0,0,1,.468.468v10.293A.468.468,0,0,1,370.449,449.651Zm-9.826-.936h9.358v-9.358h-9.358Z" transform="translate(-359.688 -438.422)" fill="#8b7be6"/>
  </g>
  <g id="Groupe_652" data-name="Groupe 652" transform="translate(10.293 10.294)">
    <path id="Tracé_1218" data-name="Tracé 1218" d="M409.031,449.651H398.738a.468.468,0,0,1-.468-.468V438.89a.468.468,0,0,1,.468-.468h10.293a.468.468,0,0,1,.468.468v10.293A.468.468,0,0,1,409.031,449.651Zm-9.825-.936h9.357v-9.358h-9.357Z" transform="translate(-398.27 -438.422)" fill="#8b7be6"/>
  </g>
</svg>
