<svg id="Group_835" data-name="Group 835" xmlns="http://www.w3.org/2000/svg" width="19.225" height="15.42" viewBox="0 0 19.225 15.42">
  <path id="Path_1342" data-name="Path 1342" d="M289.273,103.1a12.073,12.073,0,0,1-2.518-.505,4.56,4.56,0,0,0-3.2.153.282.282,0,0,0,.222.518,4.011,4.011,0,0,1,2.812-.131,12.627,12.627,0,0,0,2.638.528h.022a.282.282,0,0,0,.021-.562Z" transform="translate(-272.747 -100.435)" fill="#f25b95"/>
  <path id="Path_1343" data-name="Path 1343" d="M289.273,134.974a12.07,12.07,0,0,1-2.518-.505,4.56,4.56,0,0,0-3.2.153.282.282,0,0,0,.222.518,4.011,4.011,0,0,1,2.812-.131,12.627,12.627,0,0,0,2.638.528h.022a.282.282,0,0,0,.021-.562Z" transform="translate(-272.747 -131.113)" fill="#f25b95"/>
  <path id="Path_1344" data-name="Path 1344" d="M289.273,294.351a12.069,12.069,0,0,1-2.518-.505,4.56,4.56,0,0,0-3.2.153.282.282,0,0,0,.222.518,4.012,4.012,0,0,1,2.812-.131,12.629,12.629,0,0,0,2.638.528h.022a.282.282,0,0,0,.021-.562Z" transform="translate(-272.747 -284.506)" fill="#f25b95"/>
  <path id="Path_1345" data-name="Path 1345" d="M289.273,326.227a12.074,12.074,0,0,1-2.518-.506,4.56,4.56,0,0,0-3.2.153.282.282,0,0,0,.222.518,4.011,4.011,0,0,1,2.812-.131,12.631,12.631,0,0,0,2.638.528h.022a.282.282,0,0,0,.021-.562Z" transform="translate(-272.747 -315.185)" fill="#f25b95"/>
  <path id="Path_1346" data-name="Path 1346" d="M289.273,166.849a12.072,12.072,0,0,1-2.518-.506,4.56,4.56,0,0,0-3.2.153.282.282,0,0,0,.222.517,4.012,4.012,0,0,1,2.812-.131,12.628,12.628,0,0,0,2.638.528h.022a.282.282,0,0,0,.021-.562Z" transform="translate(-272.747 -161.791)" fill="#f25b95"/>
  <path id="Path_1347" data-name="Path 1347" d="M289.273,230.6a12.066,12.066,0,0,1-2.518-.505,4.56,4.56,0,0,0-3.2.153.282.282,0,0,0,.222.517,4.012,4.012,0,0,1,2.812-.131,12.627,12.627,0,0,0,2.638.528h.022a.282.282,0,0,0,.021-.563Z" transform="translate(-272.747 -223.148)" fill="#f25b95"/>
  <path id="Path_1348" data-name="Path 1348" d="M289.273,198.725a12.072,12.072,0,0,1-2.518-.505,4.56,4.56,0,0,0-3.2.153.282.282,0,0,0,.222.518,4.012,4.012,0,0,1,2.812-.131,12.628,12.628,0,0,0,2.638.528h.022a.282.282,0,0,0,.021-.562Z" transform="translate(-272.747 -192.47)" fill="#f25b95"/>
  <path id="Path_1349" data-name="Path 1349" d="M289.273,262.476a12.067,12.067,0,0,1-2.518-.505,4.56,4.56,0,0,0-3.2.153.282.282,0,1,0,.222.517,4.012,4.012,0,0,1,2.812-.131,12.623,12.623,0,0,0,2.638.528h.022a.282.282,0,0,0,.021-.562Z" transform="translate(-272.747 -253.827)" fill="#f25b95"/>
  <path id="Path_1350" data-name="Path 1350" d="M65.23,103.661h.022a12.626,12.626,0,0,0,2.638-.528,4.011,4.011,0,0,1,2.812.131.282.282,0,1,0,.222-.518,4.56,4.56,0,0,0-3.2-.153,12.073,12.073,0,0,1-2.518.505.282.282,0,0,0,.021.562Z" transform="translate(-62.51 -100.435)" fill="#f25b95"/>
  <path id="Path_1351" data-name="Path 1351" d="M65.23,135.537h.022a12.622,12.622,0,0,0,2.638-.528,4.011,4.011,0,0,1,2.812.131.282.282,0,1,0,.222-.518,4.56,4.56,0,0,0-3.2-.153,12.07,12.07,0,0,1-2.518.505.282.282,0,0,0,.021.562Z" transform="translate(-62.51 -131.113)" fill="#f25b95"/>
  <path id="Path_1352" data-name="Path 1352" d="M65.23,294.914h.022a12.624,12.624,0,0,0,2.638-.528,4.011,4.011,0,0,1,2.812.131.282.282,0,0,0,.222-.518,4.56,4.56,0,0,0-3.2-.153,12.066,12.066,0,0,1-2.518.506.282.282,0,0,0,.021.562Z" transform="translate(-62.51 -284.506)" fill="#f25b95"/>
  <path id="Path_1353" data-name="Path 1353" d="M65.23,326.789h.022a12.623,12.623,0,0,0,2.638-.528,4.011,4.011,0,0,1,2.812.131.282.282,0,1,0,.222-.517,4.56,4.56,0,0,0-3.2-.153,12.074,12.074,0,0,1-2.518.505.282.282,0,0,0,.021.562Z" transform="translate(-62.51 -315.184)" fill="#f25b95"/>
  <path id="Path_1354" data-name="Path 1354" d="M65.23,167.412h.022a12.625,12.625,0,0,0,2.638-.528,4.011,4.011,0,0,1,2.812.131.282.282,0,1,0,.222-.518,4.56,4.56,0,0,0-3.2-.153,12.072,12.072,0,0,1-2.518.506.282.282,0,0,0,.021.562Z" transform="translate(-62.51 -161.792)" fill="#f25b95"/>
  <path id="Path_1355" data-name="Path 1355" d="M65.23,231.163h.022a12.624,12.624,0,0,0,2.638-.528,4.011,4.011,0,0,1,2.812.131.282.282,0,1,0,.222-.518,4.56,4.56,0,0,0-3.2-.153,12.067,12.067,0,0,1-2.518.505.282.282,0,0,0,.021.563Z" transform="translate(-62.51 -223.148)" fill="#f25b95"/>
  <path id="Path_1356" data-name="Path 1356" d="M65.23,199.286h.022a12.624,12.624,0,0,0,2.638-.528,4.011,4.011,0,0,1,2.812.131.282.282,0,1,0,.222-.518,4.559,4.559,0,0,0-3.2-.153,12.074,12.074,0,0,1-2.518.505.282.282,0,0,0,.021.562Z" transform="translate(-62.51 -192.469)" fill="#f25b95"/>
  <path id="Path_1357" data-name="Path 1357" d="M65.23,263.039h.022a12.623,12.623,0,0,0,2.638-.528,4.011,4.011,0,0,1,2.812.131.282.282,0,0,0,.222-.518,4.56,4.56,0,0,0-3.2-.153,12.065,12.065,0,0,1-2.518.505.282.282,0,0,0,.021.562Z" transform="translate(-62.51 -253.828)" fill="#f25b95"/>
  <path id="Path_1358" data-name="Path 1358" d="M18.537,52.27H18.1v-.257a.618.618,0,0,0-.667-.616,8.674,8.674,0,0,1-2.751-.326.282.282,0,1,0-.138.546,9.167,9.167,0,0,0,2.934.342.055.055,0,0,1,.059.055V63.378a9.979,9.979,0,0,1-3.525-.5,4.666,4.666,0,0,0-4.114.67V52.289a4.029,4.029,0,0,1,3.356-1,.282.282,0,0,0,.09-.556,4.556,4.556,0,0,0-3.728,1.054,4.6,4.6,0,0,0-4.395-.9A9.568,9.568,0,0,1,1.8,51.4a.618.618,0,0,0-.667.616v.257H.688A.689.689,0,0,0,0,52.958v11.42a.689.689,0,0,0,.688.688h7.3a.278.278,0,0,1,.253.154,1.523,1.523,0,0,0,2.751,0,.278.278,0,0,1,.253-.154h7.3a.689.689,0,0,0,.688-.688V59.037a.282.282,0,0,0-.563,0v5.341a.125.125,0,0,1-.125.125h-7.3a.843.843,0,0,0-.762.476.959.959,0,0,1-1.732,0,.843.843,0,0,0-.762-.476H.688a.125.125,0,0,1-.125-.125V52.958a.125.125,0,0,1,.125-.125h.441V63.618a.282.282,0,0,0,.21.272,8.209,8.209,0,0,0,4.041-.475,4.041,4.041,0,0,1,3.565.553,1.163,1.163,0,0,0,1.337,0,4.039,4.039,0,0,1,3.565-.553,8.211,8.211,0,0,0,4.041.475.282.282,0,0,0,.21-.272V52.833h.441a.125.125,0,0,1,.125.125v4.765a.282.282,0,1,0,.563,0V52.958A.689.689,0,0,0,18.537,52.27ZM1.692,52.013a.054.054,0,0,1,.059-.055,10.112,10.112,0,0,0,3.629-.535,4.015,4.015,0,0,1,3.951.865V63.546a4.646,4.646,0,0,0-4.114-.67c-.152.046-.319.093-.473.135l-.006,0a9.211,9.211,0,0,1-3.046.366c0-.783,0-11.155,0-11.365Z" transform="translate(0 -50.669)" fill="#f25b95"/>
</svg>
