<svg id="Layer_1" height="512" viewBox="0 0 128 128" width="512" xmlns="http://www.w3.org/2000/svg" data-name="Layer 1"><path fill="#919191"  d="m84.614 77.22a20.616 20.616 0 0 0 3.367-9.92 10.249 10.249 0 0 0 8.008-6.6l.734.454a1.75 1.75 0 0 0 2.671-1.488v-12.032a1.75 1.75 0 0 0 -1.75-1.75h-2.373v-21.764l1.713-.575a1.75 1.75 0 0 0 0-3.318l-32.427-10.886a1.751 1.751 0 0 0 -1.113 0l-32.428 10.886a1.75 1.75 0 0 0 0 3.318l10.228 3.433v12.107a1.931 1.931 0 0 0 .194.9 22.832 22.832 0 0 0 -1.464 6.977 10.307 10.307 0 0 0 .044 20.338 20.617 20.617 0 0 0 3.37 9.925 41.2 41.2 0 0 0 -13.088 6.15l-.056.042-.014.011c-9.764 6.953-15.365 17.384-15.365 28.635v4.937a1.75 1.75 0 1 0 3.5 0v-4.937c0-9.706 4.682-18.749 12.877-25.021l31.008 26.415v3.543a1.75 1.75 0 0 0 3.5 0v-3.544l31.059-26.456a31.506 31.506 0 0 1 12.827 25.063v4.937a1.75 1.75 0 0 0 3.5 0v-4.937c0-16.271-11.599-30.263-28.522-34.843zm.177 3.689-12.159 10.5-4.611-4.889a20.68 20.68 0 0 0 14.175-6.3q1.319.305 2.595.689zm-41.349-15.109v-17.635a19.445 19.445 0 0 1 1.139-6.54c1.08.26 2.483.507 4.33.757a115.474 115.474 0 0 0 15.089.935 115.474 115.474 0 0 0 15.088-.935c1.848-.25 3.251-.5 4.33-.757a19.445 19.445 0 0 1 1.139 6.54v17.635a17.28 17.28 0 0 1 -17.257 17.256h-6.6a17.28 17.28 0 0 1 -17.258-17.256zm44.615-2.079v-2.952a1.729 1.729 0 0 0 .489.427 1.748 1.748 0 0 0 1.771-.041l2.295-1.418a6.772 6.772 0 0 1 -4.554 3.98zm7.836-7.19-1.451-.9a1.751 1.751 0 0 0 -1.841 0l-1.453.9v-7.147h4.745zm-4.122-10.647h-2.371a1.742 1.742 0 0 0 -1.4.709 22.812 22.812 0 0 0 -1.436-6.609 1.931 1.931 0 0 0 .194-.9v-12.106l5.015-1.683zm-27.771-33.038 26.929 9.04-26.929 9.039-26.929-9.04zm-.557 21.584a1.751 1.751 0 0 0 1.113 0l18.7-6.278v9.9c-2.33.664-9.768 1.76-19.257 1.76s-16.927-1.1-19.257-1.76v-9.9zm-28.571 22.7a6.826 6.826 0 0 1 5.07-6.584v13.164a6.826 6.826 0 0 1 -5.07-6.584zm25.106 29.389-4.611 4.889-12.155-10.5c.852-.259 1.719-.485 2.6-.687a20.68 20.68 0 0 0 14.166 6.298zm4.022 23.831-29.784-25.371a37.434 37.434 0 0 1 5.22-2.7l14.912 12.873a1.75 1.75 0 0 0 2.417-.124l7.235-7.671 7.235 7.671a1.75 1.75 0 0 0 2.417.124l14.928-12.89a37.663 37.663 0 0 1 5.243 2.684z"/><path fill="#919191"  d="m54.5 62.792a7.994 7.994 0 0 0 7.827-9.614 5.05 5.05 0 0 1 3.356-.021 8.039 8.039 0 1 0 1.469-3.189 8.455 8.455 0 0 0 -6.28.026 7.988 7.988 0 1 0 -6.373 12.8zm19-12.486a4.493 4.493 0 1 1 -4.49 4.494 4.5 4.5 0 0 1 4.49-4.494zm-19.006 0a4.493 4.493 0 1 1 -4.494 4.494 4.5 4.5 0 0 1 4.5-4.494z"/><path fill="#919191"  d="m37.407 106.537a1.75 1.75 0 0 0 -1.75 1.75v8.713a1.75 1.75 0 0 0 3.5 0v-8.713a1.75 1.75 0 0 0 -1.75-1.75z"/><path fill="#919191"  d="m90.593 106.537a1.75 1.75 0 0 0 -1.75 1.75v8.713a1.75 1.75 0 0 0 3.5 0v-8.713a1.75 1.75 0 0 0 -1.75-1.75z"/><path fill="#919191"  d="m70.315 71.688a13.7 13.7 0 0 1 -6.315 1.305 13.706 13.706 0 0 1 -6.314-1.3 1.75 1.75 0 1 0 -1.723 3.047 17.006 17.006 0 0 0 8.037 1.753 17 17 0 0 0 8.038-1.757 1.75 1.75 0 0 0 -1.723-3.047z"/></svg>