<svg xmlns="http://www.w3.org/2000/svg" height="512pt" version="1.1" viewBox="0 0 512 512" width="512pt">
<g id="surface1">
<path d="M 437.019531 74.980469 C 388.664062 26.628906 324.378906 0 256 0 C 187.617188 0 123.332031 26.628906 74.980469 74.980469 C 26.628906 123.332031 0 187.621094 0 256 C 0 324.382812 26.628906 388.667969 74.980469 437.019531 C 123.332031 485.371094 187.617188 512 256 512 C 324.378906 512 388.664062 485.371094 437.019531 437.019531 C 485.371094 388.667969 512 324.378906 512 256 C 512 187.621094 485.371094 123.332031 437.019531 74.980469 Z M 437.019531 74.980469 " style=" stroke:none;fill-rule:nonzero;fill:rgb(100%,81.960784%,16.862745%);fill-opacity:1;" />
<path d="M 437.019531 74.980469 C 388.664062 26.628906 324.378906 0 256 0 L 256 512 C 324.378906 512 388.664062 485.371094 437.019531 437.019531 C 485.371094 388.667969 512 324.378906 512 256 C 512 187.621094 485.371094 123.332031 437.019531 74.980469 Z M 437.019531 74.980469 " style=" stroke:none;fill-rule:nonzero;fill:rgb(100%,55.686275%,11.372549%);fill-opacity:1;" />
<path d="M 396.453125 240.871094 L 356.289062 240.871094 C 348.003906 240.871094 341.289062 247.589844 341.289062 255.871094 C 341.289062 264.15625 348.003906 270.871094 356.289062 270.871094 L 360.445312 270.871094 C 353.195312 322.027344 309.125 361.5 256 361.5 C 202.828125 361.5 158.730469 321.960938 151.535156 270.742188 L 155.84375 270.742188 C 164.125 270.742188 170.84375 264.027344 170.84375 255.742188 C 170.84375 247.457031 164.125 240.742188 155.84375 240.742188 L 115.675781 240.742188 C 107.390625 240.742188 100.675781 247.457031 100.675781 255.742188 C 100.675781 264.027344 107.390625 270.742188 115.675781 270.742188 L 121.304688 270.742188 C 128.675781 338.546875 186.265625 391.5 256 391.5 C 325.6875 391.5 383.25 338.613281 390.679688 270.871094 L 396.453125 270.871094 C 404.738281 270.871094 411.453125 264.15625 411.453125 255.871094 C 411.453125 247.589844 404.738281 240.871094 396.453125 240.871094 Z M 396.453125 240.871094 " style=" stroke:none;fill-rule:nonzero;fill:rgb(100%,42.745098%,8.235294%);fill-opacity:1;" />
<path d="M 336.335938 182.632812 C 328.050781 182.632812 321.335938 175.917969 321.335938 167.632812 L 321.335938 151.566406 C 321.335938 143.28125 328.050781 136.566406 336.335938 136.566406 C 344.617188 136.566406 351.335938 143.28125 351.335938 151.566406 L 351.335938 167.632812 C 351.335938 175.917969 344.617188 182.632812 336.335938 182.632812 Z M 336.335938 182.632812 " style=" stroke:none;fill-rule:nonzero;fill:rgb(100%,29.411765%,0%);fill-opacity:1;" />
<path d="M 175.664062 182.632812 C 167.382812 182.632812 160.664062 175.917969 160.664062 167.632812 L 160.664062 151.566406 C 160.664062 143.28125 167.382812 136.566406 175.664062 136.566406 C 183.949219 136.566406 190.664062 143.28125 190.664062 151.566406 L 190.664062 167.632812 C 190.664062 175.917969 183.949219 182.632812 175.664062 182.632812 Z M 175.664062 182.632812 " style=" stroke:none;fill-rule:nonzero;fill:rgb(100%,42.745098%,8.235294%);fill-opacity:1;" />
<path d="M 396.453125 240.871094 L 356.289062 240.871094 C 348.003906 240.871094 341.289062 247.589844 341.289062 255.871094 C 341.289062 264.15625 348.003906 270.871094 356.289062 270.871094 L 360.445312 270.871094 C 353.195312 322.027344 309.125 361.5 256 361.5 L 256 391.5 C 325.6875 391.5 383.25 338.613281 390.679688 270.871094 L 396.453125 270.871094 C 404.738281 270.871094 411.453125 264.15625 411.453125 255.871094 C 411.453125 247.589844 404.738281 240.871094 396.453125 240.871094 Z M 396.453125 240.871094 " style=" stroke:none;fill-rule:nonzero;fill:rgb(100%,29.411765%,0%);fill-opacity:1;" />
</g>
</svg>