<?xml version="1.0" encoding="iso-8859-1"?>
<!-- Generator: Adobe Illustrator 19.0.0, SVG Export Plug-In . SVG Version: 6.00 Build 0)  -->
<svg version="1.1" id="Capa_1" xmlns="http://www.w3.org/2000/svg" xmlns:xlink="http://www.w3.org/1999/xlink" x="0px" y="0px"
	 viewBox="0 0 496 496" style="enable-background:new 0 0 496 496;" xml:space="preserve">
<g>
	<g>
		<path d="M456,64H280V0H40v64C17.944,64,0,81.944,0,104v304c0,22.056,17.944,40,40,40h96v32h-32v16h288v-16h-32v-32h96
			c22.056,0,40-17.944,40-40V104C496,81.944,478.056,64,456,64z M56,16h208v128H56V16z M56,160h208v80H56V160z M16,104
			c0-13.232,10.768-24,24-24v176h240V80h24v288H16V104z M344,480H152v-32h192V480z M480,408c0,13.232-10.768,24-24,24H40
			c-13.232,0-24-10.768-24-24v-24h464V408z M480,368H320V80h136c13.232,0,24,10.768,24,24V368z"/>
	</g>
</g>
<g>
	<g>
		<polygon points="176,192 176,176 160,176 160,192 72,192 72,208 160,208 160,224 176,224 176,208 248,208 248,192 		"/>
	</g>
</g>
<g>
	<g>
		<path d="M112,27.056v105.888L217.888,80L112,27.056z M128,52.944L182.112,80L128,107.056V52.944z"/>
	</g>
</g>
<g>
	<g>
		<path d="M353.6,104v80h92.8v-80H353.6z M430.4,168h-60.8v-48h60.8V168z"/>
	</g>
</g>
<g>
	<g>
		<path d="M353.6,264v80h92.8v-80H353.6z M430.4,328h-60.8v-48h60.8V328z"/>
	</g>
</g>
<g>
	<g>
		<rect x="352" y="200" width="96" height="16"/>
	</g>
</g>
<g>
	<g>
		<rect x="432" y="232" width="16" height="16"/>
	</g>
</g>
<g>
	<g>
		<rect x="352" y="232" width="64" height="16"/>
	</g>
</g>
<g>
	<g>
		<rect x="40" y="272" width="240" height="16"/>
	</g>
</g>
<g>
	<g>
		<rect x="264" y="336" width="16" height="16"/>
	</g>
</g>
<g>
	<g>
		<rect x="40" y="336" width="208" height="16"/>
	</g>
</g>
<g>
	<g>
		<polygon points="74.288,304 40,304 40,320 74.288,320 152,320 152,304 		"/>
	</g>
</g>
<g>
	<g>
		<rect x="168" y="304" width="112" height="16"/>
	</g>
</g>
<g>
	<g>
		<rect x="32" y="400" width="16" height="16"/>
	</g>
</g>
<g>
	<g>
		<rect x="64" y="400" width="16" height="16"/>
	</g>
</g>
<g>
	<g>
		<rect x="96" y="400" width="16" height="16"/>
	</g>
</g>
<g>
</g>
<g>
</g>
<g>
</g>
<g>
</g>
<g>
</g>
<g>
</g>
<g>
</g>
<g>
</g>
<g>
</g>
<g>
</g>
<g>
</g>
<g>
</g>
<g>
</g>
<g>
</g>
<g>
</g>
</svg>
