<svg id="Groupe_858" data-name="Groupe 858" xmlns="http://www.w3.org/2000/svg" width="23.659" height="23.66" viewBox="0 0 23.659 23.66">
  <ellipse id="Ellipse_1" data-name="Ellipse 1" cx="11.83" cy="11.83" rx="11.83" ry="11.83" transform="translate(0)" fill="#f2f2f2"/>
  <g id="Groupe_449" data-name="Groupe 449" transform="translate(4.034 4.581)">
    <path id="Tracé_1011" data-name="Tracé 1011" d="M549.627,724.1c.291-.247.459-.182.459-.182a.264.264,0,0,0-.067.047l.024-.015a2.4,2.4,0,0,0,1.132-2.2,4.321,4.321,0,0,1-.331-.286c-.727-.7-.72-2.474-.9-2.349-.4.269-.658-.533-.708-1.009-.031-.292.04-.479.145-.535a.312.312,0,0,1,.144,0,.292.292,0,0,1,.079.058.366.366,0,0,0,.074.059c.056.082.081.171.13.158a11.161,11.161,0,0,0,1.989-1.469,4.5,4.5,0,0,1,2.409-1.187s.054.373.718.924.836,1.732.974,1.644c.084-.054.192.022.263-.193.166-.06.31.142.269.539-.05.476-.307,1.278-.708,1.009-.175-.125-.169,1.647-.9,2.349q-.078.076-.16.147c-.055.048-.113.093-.171.138a2.4,2.4,0,0,0,1.132,2.2l.024.014a.26.26,0,0,0-.066-.047s.168-.065.459.182c.085.072.248.179.414.332.182.07.588.214,1.057.381a1.019,1.019,0,0,0-.094-1.346c-1.226-1.312.152-1.126.094-2.563-.037-.914-1.018-1.258-.707-2.236.5-1.557-.249-4.28-1.422-4.737-2.777-1.871-5.46-.868-6.392,1.662-.976,2.649.7,3.007-.513,4.223a1.458,1.458,0,0,0-.382,1.44c.311.792,1.061,1.6.535,2.1s-.88.93-.61,1.491c.518-.186.986-.351,1.207-.435C549.395,724.271,549.547,724.17,549.627,724.1Z" transform="translate(-544.926 -712.967)" fill="#866a5e"/>
    <path id="Tracé_1012" data-name="Tracé 1012" d="M591.219,788.863l0,0,0,0Z" transform="translate(-580.594 -775.511)" fill="#f7ddcb"/>
    <path id="Tracé_1013" data-name="Tracé 1013" d="M559.176,766.911c.165.234.429.661.725,1.178a3.2,3.2,0,0,0,3.553-.007c.294-.514.557-.937.721-1.171.664-.941.5-1.311.483-1.43a.594.594,0,0,0-.165-.353l-.024-.014a2.4,2.4,0,0,1-1.132-2.2,3.333,3.333,0,0,1-.373.26,2.641,2.641,0,0,1-.524.236,2.483,2.483,0,0,1-.512.106,2.541,2.541,0,0,1-.651-.019,2.466,2.466,0,0,1-.514-.14,2.8,2.8,0,0,1-.529-.279c-.076-.051-.149-.107-.221-.164a2.4,2.4,0,0,1-1.132,2.2l-.024.015a.6.6,0,0,0-.165.352C558.673,765.6,558.512,765.97,559.176,766.911Z" transform="translate(-553.764 -754.129)" fill="#f7ddcb"/>
    <path id="Tracé_1014" data-name="Tracé 1014" d="M558,732.639a2.464,2.464,0,0,0,.514.14,2.553,2.553,0,0,0,.651.019,2.488,2.488,0,0,0,.512-.106,2.639,2.639,0,0,0,.524-.237,3.29,3.29,0,0,0,.373-.26c.058-.045.116-.09.171-.138s.108-.1.16-.148c.727-.7.72-2.474.9-2.349.4.269.658-.533.708-1.009.042-.4-.1-.6-.268-.539-.071.215-.178.139-.263.193-.138.088-.31-1.093-.974-1.644s-.718-.924-.718-.924a4.5,4.5,0,0,0-2.409,1.187,11.168,11.168,0,0,1-1.989,1.469c-.049.013-.074-.076-.13-.158a.367.367,0,0,1-.074-.059.293.293,0,0,0-.079-.058.311.311,0,0,0-.144,0c-.1.055-.175.242-.145.535.05.476.307,1.278.708,1.009.175-.125.169,1.647.9,2.349a4.3,4.3,0,0,0,.331.286c.072.057.144.113.221.164A2.822,2.822,0,0,0,558,732.639Z" transform="translate(-551.004 -723.408)" fill="#ffe6d4"/>
    <path id="Tracé_1015" data-name="Tracé 1015" d="M591.239,788.859l.013.01.011-.015h-.02Z" transform="translate(-580.611 -775.505)" fill="#f5f5f5"/>
    <path id="Tracé_1016" data-name="Tracé 1016" d="M565.71,792.294a15.665,15.665,0,0,1,1.774,3.988,15.684,15.684,0,0,1,1.779-4,3.194,3.194,0,0,1-3.553.007Z" transform="translate(-559.573 -778.333)" fill="#f5f5f5"/>
    <path id="Tracé_1017" data-name="Tracé 1017" d="M583.291,779.407a.044.044,0,0,1,.029,0c-.229-.144-1.352-.551-2.248-.871-.469-.168-.874-.312-1.057-.381a1.735,1.735,0,0,1,.346.425c.336.6.354.969.591,1.145.221.165-1.579.3-1.822.312l-.011.015,1.3.979a20.953,20.953,0,0,1-2.469,2.41,6.654,6.654,0,0,0-.866.925,4.744,4.744,0,0,0-.566.9h0c.038.168.072.326.084.412,0,.027.007.052.01.077a11.765,11.765,0,0,0,5.081-1.306C581.719,783.312,581.68,780.12,583.291,779.407Z" transform="translate(-568.478 -766.686)" fill="#1a2830"/>
    <path id="Tracé_1018" data-name="Tracé 1018" d="M543.419,785.164a10.684,10.684,0,0,1-.819-.9,6.657,6.657,0,0,0-.866-.925,20.959,20.959,0,0,1-2.469-2.41l1.315-.992s-2.087-.137-1.849-.314.255-.545.591-1.145a1.757,1.757,0,0,1,.37-.447c-.221.083-.689.249-1.207.435a15.813,15.813,0,0,0-2.105.837.381.381,0,0,0-.025.042c.03-.033.058-.048.082-.037,1.685.746,1.564,4.2,1.6,5.186a11.781,11.781,0,0,0,5.137,1.171c.113,0,.224-.005.336-.009,0-.026-.006-.051-.01-.077C543.491,785.491,543.457,785.332,543.419,785.164Z" transform="translate(-535.381 -766.584)" fill="#24353f"/>
    <path id="Tracé_1019" data-name="Tracé 1019" d="M557.087,775.194a.257.257,0,0,1,.066.047.6.6,0,0,1,.165.352c.02.119.18.489-.484,1.43-.164.233-.427.657-.721,1.171a15.683,15.683,0,0,0-1.779,4,15.662,15.662,0,0,0-1.774-3.989c-.3-.517-.56-.944-.725-1.178-.664-.942-.5-1.311-.483-1.43a.6.6,0,0,1,.165-.352.259.259,0,0,1,.067-.047s-.168-.065-.46.182c-.081.068-.233.169-.391.31a1.757,1.757,0,0,0-.37.447c-.336.6-.354.969-.591,1.145s1.849.314,1.849.314l-1.315.992a20.962,20.962,0,0,0,2.468,2.41,6.647,6.647,0,0,1,.866.925,10.712,10.712,0,0,0,.819.9h0a4.736,4.736,0,0,1,.566-.9,6.647,6.647,0,0,1,.866-.925,20.957,20.957,0,0,0,2.468-2.41l-1.3-.979-.013-.01,0,0h.027c.243-.017,2.043-.148,1.822-.312-.237-.177-.255-.545-.591-1.145a1.734,1.734,0,0,0-.346-.425c-.166-.153-.33-.261-.414-.332C557.256,775.129,557.087,775.194,557.087,775.194Z" transform="translate(-546.424 -764.241)" fill="#132026"/>
    <path id="Tracé_1020" data-name="Tracé 1020" d="M607.562,785.267a.045.045,0,0,0-.029,0c-1.611.713-1.571,3.9-1.6,5.042a11.862,11.862,0,0,0,2.61-1.828A9.908,9.908,0,0,0,607.562,785.267Z" transform="translate(-592.721 -772.547)" fill="#132026"/>
    <path id="Tracé_1021" data-name="Tracé 1021" d="M531.877,785.269c-.024-.011-.052,0-.082.037a14.07,14.07,0,0,0-.973,3.383,11.835,11.835,0,0,0,2.659,1.765C533.441,789.472,533.562,786.014,531.877,785.269Z" transform="translate(-530.821 -772.547)" fill="#132026"/>
  </g>
</svg>
