<svg id="Group_454" data-name="Group 454" xmlns="http://www.w3.org/2000/svg" width="34.837" height="34.837" viewBox="0 0 34.837 34.837">
  <ellipse id="Ellipse_2" data-name="Ellipse 2" cx="17.418" cy="17.418" rx="17.418" ry="17.418" transform="translate(0 0)" fill="#f2f2f2"/>
  <g id="Group_451" data-name="Group 451" transform="translate(4.446 5.773)">
    <path id="Path_1022" data-name="Path 1022" d="M746.125,737.953h0Z" transform="translate(-727.878 -730.509)" fill="none"/>
    <path id="Path_1023" data-name="Path 1023" d="M708.059,740.224l-.013-.019A.038.038,0,0,0,708.059,740.224Z" transform="translate(-699.663 -732.177)" fill="none"/>
    <path id="Path_1024" data-name="Path 1024" d="M743.816,739.047c.005.046.015.057.03.022a1.439,1.439,0,0,1,.239-.4A1.506,1.506,0,0,0,743.816,739.047Z" transform="translate(-726.167 -731.042)" fill="none"/>
    <path id="Path_1025" data-name="Path 1025" d="M713.336,766.557a4.54,4.54,0,0,0,4.189-2.321,3.767,3.767,0,0,1-1.259-2.752,3.857,3.857,0,0,1-1.78,1.026,3.157,3.157,0,0,1-1.082.229,3.11,3.11,0,0,1-1.085-.232,4.532,4.532,0,0,1-2.03-1.248,3.858,3.858,0,0,1-1.274,2.984A4.715,4.715,0,0,0,713.336,766.557Z" transform="translate(-700.381 -747.777)" fill="#e2ae83"/>
    <path id="Path_1026" data-name="Path 1026" d="M722.393,756.818a4.545,4.545,0,0,0-2.563,0,.745.745,0,0,0,.266,1.407c.827.208.375-.254.455-.461s.56.031.56.031.481-.239.561-.031-.372.669.454.461A.745.745,0,0,0,722.393,756.818Z" transform="translate(-708.088 -744.348)" fill="#edb888"/>
    <path id="Path_1027" data-name="Path 1027" d="M706.931,736.164a2.216,2.216,0,0,1,4.334,0,1.547,1.547,0,0,1-1.092,1.524,3.854,3.854,0,0,0,1.78-1.026l.321-.271c1.308-1.11.649-3.428,1.443-3.283s1.7-2.053,1.078-2.535a.739.739,0,0,0-.4-.176.175.175,0,0,1-.078,0h0a.688.688,0,0,0-.329.186,1.443,1.443,0,0,0-.239.4c-.015.036-.025.024-.03-.022-.141.263-.227.516-.33.516-.2,0-.474-2.28-.739-2.208-.183.049-.114.387-.578.254s-1.637-1.337-1.637-1.047.7.994-.5.6-2.311-1.856-2.311-1.1-.5-.734-.53,0c-.033.955-2.353,2.061-2.253,2.784s.131.993-.373.245a.038.038,0,0,1-.014-.019c-.517-.771-.705-.389-.875-.519a1.012,1.012,0,0,0-.175.109c-.624.482.284,2.68,1.078,2.535s.135,2.173,1.443,3.283l.053.045a4.533,4.533,0,0,0,2.03,1.248A1.542,1.542,0,0,1,706.931,736.164Z" transform="translate(-696.067 -722.956)" fill="#edb888"/>
    <path id="Path_1028" data-name="Path 1028" d="M704.275,717.241l.014.019c.5.748.471.471.373-.245s2.22-1.83,2.253-2.784c.025-.734.53.755.53,0s1.109.7,2.311,1.1.5-.306.5-.6,1.173.914,1.636,1.047.4-.2.578-.254c.265-.072.54,2.208.739,2.208.1,0,.189-.253.33-.516a1.506,1.506,0,0,1,.269-.375.689.689,0,0,1,.329-.186h0a.174.174,0,0,0,.078,0c.26-.065.377-.758.287-1.423-.1-.729.418.331.325.033s.04-3.115-1.65-4.308c-.563-.431.6.2.431,0a5.639,5.639,0,0,0-2.32-1.425,8.331,8.331,0,0,0-4.109-.118,3.587,3.587,0,0,0-1.922,1.211c0,.2-.5-.1-.928.133s.133,0,.331.3-.563.2-1.16,1.078-.8,3.622-.1,4.586l0,0C703.569,716.852,703.758,716.47,704.275,717.241Z" transform="translate(-695.892 -709.214)" fill="#534d46"/>
    <path id="Path_1029" data-name="Path 1029" d="M680.415,791.739H699.9l-.05.249,2.855-1.295c-.091-.259-.184-.509-.277-.747l-2.4,1.086.018-.089H680.256l.006.032-2.269-1.029c-.093.239-.186.488-.277.747l2.738,1.242Z" transform="translate(-677.189 -769.035)" fill="#f6f5fa"/>
    <path id="Path_1030" data-name="Path 1030" d="M681.781,776.772h20.3l-.04.2,1.822-.817a7.747,7.747,0,0,0-.368-.707l-1.276.572.009-.044h-8.63a5.978,5.978,0,0,0,2.571-1.193h6.286c.019-.11.03-.184.03-.208s-.019-.038-.047-.062a5.694,5.694,0,0,0-1.164-.526h-4.318a4.624,4.624,0,0,0,.687-1.174l-.41-.106-1.082-.279c-.011.028-.026.057-.038.084a4.54,4.54,0,0,1-4.189,2.321,4.715,4.715,0,0,1-4.321-2.315c-.008-.019-.019-.038-.026-.057l-.9.233-.529.136a4.433,4.433,0,0,0,.688,1.155h-4.258a4.713,4.713,0,0,0-1.194.553.058.058,0,0,0-.017.035,2.061,2.061,0,0,0,.031.208h6.24a6.143,6.143,0,0,0,2.606,1.193h-8.619l0-.02-1.132-.508a7.825,7.825,0,0,0-.368.707l1.7.76Z" transform="translate(-678.966 -756.056)" fill="#f6f5fa"/>
    <path id="Path_1031" data-name="Path 1031" d="M682.186,782.5c.05-.071.1-.138.149-.2Q682.26,782.392,682.186,782.5Z" transform="translate(-680.501 -763.37)" fill="#f6f5fa"/>
    <path id="Path_1032" data-name="Path 1032" d="M679.8,787.235c.013-.031.027-.062.041-.091Z" transform="translate(-678.734 -766.958)" fill="#f6f5fa"/>
    <path id="Path_1033" data-name="Path 1033" d="M681.7,783.5c.022-.035.044-.071.066-.1Z" transform="translate(-680.142 -764.182)" fill="#f6f5fa"/>
    <path id="Path_1034" data-name="Path 1034" d="M684.459,780.736l.044-.022Z" transform="translate(-682.185 -762.194)" fill="#f6f5fa"/>
    <path id="Path_1035" data-name="Path 1035" d="M683.8,781.146l.04-.03Z" transform="translate(-681.698 -762.492)" fill="#f6f5fa"/>
    <path id="Path_1036" data-name="Path 1036" d="M683.011,781.77q.038-.043.076-.082C683.062,781.714,683.036,781.741,683.011,781.77Z" transform="translate(-681.112 -762.915)" fill="#f6f5fa"/>
    <path id="Path_1037" data-name="Path 1037" d="M681.046,788.62h19.793l-.018.089,2.4-1.086h0c-.091-.222-.174-.434-.264-.635-.014-.03-.027-.062-.041-.091s-.025-.059-.038-.086h0l-1.822.817.041-.2h-20.3c.01.046.02.1.03.145l-1.7-.761h0c-.014.027-.025.058-.039.086s-.027.061-.041.091c-.09.2-.173.413-.264.635h0l2.269,1.029Z" transform="translate(-677.979 -766.711)" fill="#24353f"/>
    <path id="Path_1038" data-name="Path 1038" d="M679.857,795.069h18.981l-.023.115,3.362-1.519h0c-.081-.29-.189-.562-.282-.834h0l-2.855,1.295.05-.25H679.607l.041.2-2.738-1.242h0c-.093.272-.2.543-.282.834h0l3.243,1.465Z" transform="translate(-676.381 -771.172)" fill="#24353f"/>
    <path id="Path_1039" data-name="Path 1039" d="M767.942,781.116l.041.03Z" transform="translate(-744.044 -762.492)" fill="#f6f5fa"/>
    <path id="Path_1040" data-name="Path 1040" d="M767.27,780.714l.044.022Z" transform="translate(-743.546 -762.194)" fill="#f6f5fa"/>
    <path id="Path_1041" data-name="Path 1041" d="M769.942,783.4c.022.033.044.069.066.1Z" transform="translate(-745.526 -764.182)" fill="#f6f5fa"/>
    <path id="Path_1042" data-name="Path 1042" d="M769.138,782.3c.05.061.1.127.149.2Q769.213,782.393,769.138,782.3Z" transform="translate(-744.93 -763.37)" fill="#f6f5fa"/>
    <path id="Path_1043" data-name="Path 1043" d="M768.594,781.688c.025.026.051.053.076.082C768.645,781.741,768.619,781.714,768.594,781.688Z" transform="translate(-744.527 -762.915)" fill="#f6f5fa"/>
    <path id="Path_1044" data-name="Path 1044" d="M698.125,797.569l.023-.115H679.167l.012.061-3.243-1.465q-.122.376-.242.763l3.675,1.66-.045-.224H698l-.055.274,3.647-1.647c.039-.044.077-.09.116-.134q-.108-.35-.219-.692Z" transform="translate(-675.691 -773.557)" fill="#f6f5fa"/>
    <path id="Path_1045" data-name="Path 1045" d="M771.94,787.144c.014.029.027.06.041.091Z" transform="translate(-747.007 -766.958)" fill="#f6f5fa"/>
    <path id="Path_1046" data-name="Path 1046" d="M766.643,780.507h0Z" transform="translate(-743.076 -762.04)" fill="#f6f5fa"/>
    <path id="Path_1047" data-name="Path 1047" d="M741.044,780.538a2.063,2.063,0,0,1-.03.207h-6.286a5.976,5.976,0,0,1-2.571,1.193h8.63c0,.015-.006.029-.009.044l1.276-.572h0l-.046-.072c-.022-.035-.044-.071-.066-.1l-.059-.085c-.05-.071-.1-.138-.149-.2-.022-.026-.043-.052-.065-.077s-.051-.056-.076-.082a1.6,1.6,0,0,0-.128-.118l-.04-.03a1.014,1.014,0,0,0-.13-.082l-.044-.022a.687.687,0,0,0-.157-.053h-.008a.57.57,0,0,0-.09-.008C741.026,780.5,741.044,780.522,741.044,780.538Z" transform="translate(-717.529 -762.018)" fill="#24353f"/>
    <path id="Path_1048" data-name="Path 1048" d="M701.334,816.823a17.272,17.272,0,0,0,2.638.8h7.379a17.269,17.269,0,0,0,2.638-.8Z" transform="translate(-694.689 -788.95)" fill="#f6f5fa"/>
    <path id="Path_1049" data-name="Path 1049" d="M702.989,806.721H684.811l.016.078-2.059-.926a17.456,17.456,0,0,0,2.345,1.644H702.7a17.482,17.482,0,0,0,2.23-1.548l-1.963.883Z" transform="translate(-680.932 -780.836)" fill="#f6f5fa"/>
    <path id="Path_1050" data-name="Path 1050" d="M711.52,819.894a17.417,17.417,0,0,0,7.379,0Z" transform="translate(-702.237 -791.225)" fill="#24353f"/>
    <path id="Path_1051" data-name="Path 1051" d="M691.823,812.218a17.316,17.316,0,0,0,2.464,1.193h12.656a17.342,17.342,0,0,0,2.464-1.193Z" transform="translate(-687.642 -785.538)" fill="#24353f"/>
    <path id="Path_1052" data-name="Path 1052" d="M745.122,774.786h4.347c-1.236-.464-3.116-1.052-4.07-1.279l.41.106A4.624,4.624,0,0,1,745.122,774.786Z" transform="translate(-727.135 -756.854)" fill="#24353f"/>
    <path id="Path_1053" data-name="Path 1053" d="M693.79,774.751a4.434,4.434,0,0,1-.688-1.155l.529-.136a42.239,42.239,0,0,0-4.122,1.292h4.281Z" transform="translate(-685.927 -756.819)" fill="#24353f"/>
    <path id="Path_1054" data-name="Path 1054" d="M682.664,782.016h8.619a6.142,6.142,0,0,1-2.606-1.193h-6.24a2.08,2.08,0,0,1-.031-.207.059.059,0,0,1,.017-.035.75.75,0,0,0-.093.035l-.044.022a1.033,1.033,0,0,0-.13.082l-.04.03a1.592,1.592,0,0,0-.129.118q-.038.039-.076.082c-.021.024-.043.05-.064.077-.05.061-.1.127-.149.2-.02.028-.039.055-.059.085s-.044.069-.066.1l-.046.072h0l1.133.508Z" transform="translate(-680.011 -762.095)" fill="#24353f"/>
    <path id="Path_1055" data-name="Path 1055" d="M697.989,800.433H679.314l.045.224L675.685,799h0l0,.01a17.487,17.487,0,0,0,1.836,1.771l2.059.926-.016-.078h18.178l-.026.129,1.963-.882a17.564,17.564,0,0,0,1.906-1.814l-3.647,1.647Z" transform="translate(-675.681 -775.741)" fill="#24353f"/>
    <path id="Path_1056" data-name="Path 1056" d="M721.954,755.192a2.216,2.216,0,0,0-4.334,0,1.542,1.542,0,0,0,1.075,1.521,3.112,3.112,0,0,0,1.085.232,3.156,3.156,0,0,0,1.082-.229A1.547,1.547,0,0,0,721.954,755.192Zm-1.159.669c-.827.208-.374-.254-.454-.461s-.561.031-.561.031-.48-.239-.56-.031.372.669-.455.461a.745.745,0,0,1-.266-1.407,4.547,4.547,0,0,1,2.563,0A.745.745,0,0,1,720.794,755.861Z" transform="translate(-706.755 -741.984)" fill="#534d46"/>
  </g>
</svg>
