<svg id="Capa_1" enable-background="new 0 0 511.683 511.683" height="512" viewBox="0 0 511.683 511.683" width="512" xmlns="http://www.w3.org/2000/svg"><g><g><circle cx="89.257" cy="346.272" fill="#5c90ae" r="32.872"/></g><g><circle cx="408.935" cy="346.272" fill="#5c90ae" r="32.872"/></g><g><path d="m70.87 132.539c-13.8 0-25.33.5-34.51 1.16-14.85 1.07-26.36 13.4-26.36 28.29v167.41s16.1 13.54 46.39 16.36c.27-17.91 14.88-32.36 32.87-32.36 18.15 0 32.87 14.72 32.87 32.87h253.93c0-18.15 14.72-32.87 32.88-32.87 18.15 0 32.87 14.72 32.87 32.87h43.521c9.232 0 16.629-7.634 16.344-16.862-.448-14.547-1.515-37.108-4.056-62.058-3.24-31.83-8.87-67.54-18.67-95.47-2.29-6.53-8.51-10.87-15.43-10.87h-18.69c-7.67 0-15.05-2.88-20.69-8.07l-13.38-12.33c-5.64-5.19-13.02-8.07-20.68-8.07z" fill="#ffce69"/></g><g><path d="m497.62 267.349h-58.56c-6.86 0-13.18-3.74-16.48-9.76l-27.22-49.65c-7.911-14.444-3.143-33.081 10.72-41.94 5.1-3.25 11.02-4.99 17.07-4.99h40.37c6.925 0 13.135 4.339 15.428 10.874 9.799 27.926 15.43 63.64 18.672 95.466z" fill="#f9f6f4"/></g><g><path d="m56.852 175.662v37.976c0 11.075 8.978 20.052 20.052 20.052h267.028v-37.338c0-11.427-9.264-20.691-20.691-20.691h-266.389z" fill="#f9f6f4"/></g><g><path d="m336.272 346.272h-169.896v-44.073c0-4.483 3.634-8.118 8.118-8.118h153.661c4.483 0 8.118 3.634 8.118 8.118v44.073z" fill="#fff1a0"/></g><g><path d="m511.671 329.099c-.453-14.702-1.532-37.525-4.102-62.762-2.731-32.772-8.266-66.656-19.182-97.769-3.704-10.56-13.807-17.354-24.867-17.56h-18.69c-5.171 0-10.114-1.928-13.914-5.424l-13.385-12.335c-7.506-6.907-17.255-10.712-27.452-10.712h-114.469c-5.523 0-10 4.478-10 10s4.477 10 10 10h114.47c5.165 0 10.104 1.928 13.903 5.424l5.744 5.294c-3.149 1.073-6.185 2.502-9.033 4.317-18.248 11.662-24.525 36.144-14.104 55.174l27.22 49.648c5.056 9.224 14.73 14.954 25.249 14.954h49.473c.699 7.752 1.257 15.181 1.703 22.112h-10.817c-5.523 0-10 4.478-10 10s4.477 10 10 10h11.884c.159 3.736.283 7.185.378 10.253.108 3.54-2.806 6.555-6.35 6.555h-34.698c-4.566-19.016-22.148-32.869-41.723-32.869-19.553.014-37.111 13.866-41.672 32.869h-20.965v-34.071c0-9.99-8.127-18.117-18.118-18.117h-153.66c-9.99 0-18.117 8.127-18.117 18.117v34.071h-25.424c-4.564-19.029-22.151-32.87-41.711-32.87-18.881.01-36.012 12.952-41.203 31.107-13.763-2.585-23.263-7.427-28.039-10.346v-162.17c0-9.58 7.502-17.626 17.077-18.315 10.468-.753 21.837-1.135 33.793-1.135h116.765c5.523 0 10-4.478 10-10s-4.477-10-10-10h-116.765c-12.433 0-24.285.399-35.229 1.187-19.986 1.44-35.641 18.247-35.641 38.263v167.41c0 2.952 1.304 5.753 3.563 7.653.69.58 15.869 13.097 43.651 17.608 3.912 19.637 21.274 34.484 42.043 34.484 20.197 0 37.166-14.043 41.683-32.875h236.312c4.517 18.832 21.486 32.875 41.683 32.875s37.166-14.043 41.683-32.875h34.712c14.684 0 26.793-12.495 26.341-27.17zm-335.295-25.018h149.896v32.188h-149.896zm-87.119 65.063c-12.612 0-22.872-10.261-22.872-22.873 0-12.385 10.464-22.871 22.874-22.872 12.611.001 22.871 10.261 22.871 22.872-.001 12.613-10.261 22.873-22.873 22.873zm319.679 0c-12.612 0-22.873-10.261-22.873-22.873 0-12.442 10.418-22.871 22.875-22.872 12.611.001 22.87 10.261 22.87 22.872 0 12.613-10.261 22.873-22.872 22.873zm22.413-116.363-27.218-49.646c-5.412-9.881-2.163-22.64 7.324-28.703 3.514-2.239 7.558-3.423 11.696-3.423h40.37c2.635 0 5.116 1.687 5.992 4.184 9.259 26.389 13.713 54.473 16.948 82.156h-47.4c-3.213 0-6.168-1.75-7.712-4.568z"/><path d="m56.852 165.662c-5.523 0-10 4.478-10 10v37.977c0 16.571 13.481 30.053 30.052 30.053h267.028c5.523 0 10-4.478 10-10v-37.339c0-16.923-13.768-30.69-30.691-30.69h-266.389zm133.487 58.029h-53.956v-38.029h53.956zm20-38.029h53.956v38.029h-53.956zm-143.487 27.976v-27.977h49.531v38.029h-39.479c-5.543.001-10.052-4.509-10.052-10.052zm267.08-17.286v27.339h-49.637v-38.029h38.946c5.895 0 10.691 4.796 10.691 10.69z"/><path d="m222.392 136.361c2.066 5.045 8.036 7.491 13.06 5.41 5.033-2.084 7.494-8.027 5.41-13.06-2.085-5.036-8.031-7.487-13.06-5.41-5.027 2.076-7.505 8.037-5.41 13.06z"/></g></g></svg>