<svg xmlns="http://www.w3.org/2000/svg"  viewBox="0 0 26.855 32.606">
  <g id="Groupe_77" data-name="Groupe 77" transform="translate(-10.017 -89.394)">
    <g id="Groupe_37" data-name="Groupe 37" transform="translate(10.017 91.008)">
      <path id="Icon_awesome-car" data-name="Icon awesome-car" d="M26.226,10.375h-3.14l-.873-2.182A5.845,5.845,0,0,0,16.759,4.5H10.1A5.847,5.847,0,0,0,4.643,8.193L3.77,10.375H.63a.629.629,0,0,0-.611.782l.315,1.259a.629.629,0,0,0,.611.477H2A3.333,3.333,0,0,0,.839,15.41v2.518a3.33,3.33,0,0,0,.839,2.2v2.836a1.679,1.679,0,0,0,1.678,1.678H5.035a1.679,1.679,0,0,0,1.678-1.678V21.285H20.142v1.678a1.679,1.679,0,0,0,1.678,1.678H23.5a1.679,1.679,0,0,0,1.678-1.678V20.127a3.328,3.328,0,0,0,.839-2.2V15.41a3.335,3.335,0,0,0-1.158-2.518h1.053a.629.629,0,0,0,.611-.477l.315-1.259a.63.63,0,0,0-.611-.782ZM7.759,9.439A2.518,2.518,0,0,1,10.1,7.857h6.661A2.518,2.518,0,0,1,19.1,9.439l1.045,2.614H6.714L7.759,9.439ZM5.035,17.917a1.583,1.583,0,0,1-1.678-1.673,1.583,1.583,0,0,1,1.678-1.673,3.229,3.229,0,0,1,2.518,2.51C7.553,18.085,6.043,17.917,5.035,17.917Zm16.785,0c-1.007,0-2.518.167-2.518-.837a3.229,3.229,0,0,1,2.518-2.51A1.583,1.583,0,0,1,23.5,16.244,1.583,1.583,0,0,1,21.82,17.917Z" transform="translate(0 6.351)"/>
      <circle id="Ellipse_6" data-name="Ellipse 6" cx="8.5" cy="8.5" r="8.5" transform="translate(5.049 -1.395)" fill="#fff"/>
    </g>
    <path id="Icon_weather-time-4" data-name="Icon weather-time-4" d="M4.488,11.96a7.96,7.96,0,0,1,1.1-4.081A8.111,8.111,0,0,1,8.547,4.917a8.1,8.1,0,0,1,7.217-.447A8.191,8.191,0,0,1,18.352,6.2a7.949,7.949,0,0,1,1.73,2.6,8.062,8.062,0,0,1-4.319,10.627,8.091,8.091,0,0,1-6.316,0,7.989,7.989,0,0,1-4.326-4.311A7.813,7.813,0,0,1,4.488,11.96Zm1.788,0a6.127,6.127,0,0,0,1.867,4.455,6.089,6.089,0,0,0,4.47,1.867,6.129,6.129,0,0,0,3.165-.851,6.4,6.4,0,0,0,2.314-2.307,6.28,6.28,0,0,0,0-6.337,6.361,6.361,0,0,0-2.314-2.314,6.313,6.313,0,0,0-6.33,0A6.492,6.492,0,0,0,7.127,8.788,6.1,6.1,0,0,0,6.276,11.96Zm5.71,0v-4.8a.6.6,0,1,1,1.2,0v4.434L15.771,13.1a.588.588,0,0,1,.274.368.542.542,0,0,1-.065.447.561.561,0,0,1-.519.3.5.5,0,0,1-.3-.087L12.4,12.523a.593.593,0,0,1-.3-.209A.548.548,0,0,1,11.986,11.96Z" transform="translate(10.838 85.566)"/>
  </g>
</svg>
