<?xml version="1.0" encoding="utf-8"?>
<!-- Generator: Adobe Illustrator 19.0.0, SVG Export Plug-In . SVG Version: 6.00 Build 0)  -->
<svg version="1.1" id="Calque_1" xmlns="http://www.w3.org/2000/svg" xmlns:xlink="http://www.w3.org/1999/xlink" x="0px" y="0px"
	 viewBox="-837 835.79 26 30" style="enable-background:new -837 835.79 26 30;" xml:space="preserve">
<style type="text/css">
	.st0{display:none;}
	.st1{display:inline;}
	.st2{fill:#FFFFFF;stroke:#666666;stroke-linejoin:round;stroke-miterlimit:10;}
	.st3{fill:#E6E6E6;}
	.st4{fill:#666666;}
	.st5{fill:#E6E6E6;stroke:#666666;stroke-linejoin:round;stroke-miterlimit:10;}
	.st6{font-family:'MyriadPro-Regular';}
	.st7{font-size:6.6063px;}
	.st8{letter-spacing:1;}
	.st9{opacity:0.3;}
	.st10{fill:#FFFFFF;}
	.st11{fill:#0071BC;}
	.st12{fill:#B3B3B3;}
	.st13{fill:#FFFFFF;stroke:#000000;stroke-linejoin:round;stroke-miterlimit:10;}
	.st14{fill:#0071BC;stroke:#000000;stroke-linejoin:round;stroke-miterlimit:10;}
</style>
<g id="Icons_Outline" class="st0">
	<g class="st1">
		<polygon class="st2" points="-833.5,865.29 -833.5,836.29 -817,836.29 -811.5,841.79 -811.5,865.29 		"/>
		<g>
			<path class="st3" d="M-817,842.79c-0.276,0-1-0.724-1-1v-5c0-0.202,0.372-0.385,0.559-0.462c0.062-0.025,0.252-0.038,0.316-0.038
				c0.13,0,0.32,0.051,0.416,0.146l5.031,5c0.143,0.143,0.201,0.608,0.124,0.795s-0.244,0.559-0.446,0.559H-817z"/>
			<path class="st4" d="M-817,836.79l5,5h-5V836.79 M-817,835.79c-0.129,0-0.259,0.025-0.382,0.076
				c-0.374,0.155-0.617,0.519-0.617,0.924v5c0,0.552,0.448,1,1,1h5c0.404,0,0.769-0.244,0.924-0.617
				c0.155-0.374,0.069-0.804-0.217-1.09l-5-5C-816.484,835.892-816.74,835.79-817,835.79L-817,835.79z"/>
		</g>
		<rect x="-836.5" y="841.29" class="st5" width="9" height="9"/>
		<g>
			<text transform="matrix(1 0 0 1 -835.2095 848.182)" class="st4 st6 st7 st8">W</text>
		</g>
		<g class="st9">
			<g>
				<rect x="-825" y="844.79" width="11" height="2"/>
			</g>
			<g>
				<rect x="-825" y="848.79" width="11" height="2"/>
			</g>
			<g>
				<rect x="-831" y="852.79" width="17" height="2"/>
			</g>
			<g>
				<rect x="-831" y="856.79" width="17" height="2"/>
			</g>
			<g>
				<rect x="-831" y="860.79" width="17" height="2"/>
			</g>
		</g>
	</g>
</g>
<g id="expanded">
	<g>
		<path class="st10" d="M-818,841.79v-5h-15v4h5.5c0.276,0,0.5,0.224,0.5,0.5v9c0,0.276-0.224,0.5-0.5,0.5h-5.5v14h21v-22h-5
			C-817.552,842.79-818,842.342-818,841.79z M-814,862.79h-17v-2h17V862.79z M-814,858.79h-17v-2h17V858.79z M-814,854.79h-17v-2h17
			V854.79z M-814,850.79h-11v-2h11V850.79z M-814,846.79h-11v-2h11V846.79z"/>
		<path d="M-811.013,841.727c-0.015-0.238-0.105-0.469-0.28-0.644l-5-5c-0.191-0.191-0.447-0.293-0.707-0.293c0,0,0,0,0,0H-833.5
			c-0.276,0-0.5,0.224-0.5,0.5v4.5h-2.5c-0.276,0-0.5,0.224-0.5,0.5v9c0,0.276,0.224,0.5,0.5,0.5h2.5v14.5
			c0,0.276,0.224,0.5,0.5,0.5h22c0.276,0,0.5-0.224,0.5-0.5v-23.5C-811,841.768-811.01,841.749-811.013,841.727z M-812,864.79h-21
			v-14h5.5c0.276,0,0.5-0.224,0.5-0.5v-9c0-0.276-0.224-0.5-0.5-0.5h-5.5v-4h15v5c0,0.552,0.448,1,1,1h5V864.79z M-836,841.79h8v8
			h-8V841.79z M-817,841.79v-5l5,5H-817z"/>
		<polygon class="st3" points="-817,836.79 -817,841.79 -812,841.79 		"/>
		<path class="st11" d="M-828,849.79v-8h-8v8H-828z M-835.104,844.026v-0.509h1.658v0.509H-834l0.727,3.059
			c0.033,0.166,0.053,0.351,0.053,0.351h0.02c0,0,0.027-0.185,0.066-0.351l0.978-3.567h0.562l0.971,3.567
			c0.046,0.166,0.066,0.351,0.066,0.351h0.026c0,0,0.013-0.185,0.046-0.351l0.727-3.059h-0.555v-0.509h1.665v0.509h-0.45
			l-1.044,4.156h-0.753l-0.912-3.311c-0.046-0.165-0.06-0.37-0.06-0.37h-0.026c0,0-0.013,0.205-0.06,0.37l-0.912,3.311h-0.753
			l-1.037-4.156H-835.104z"/>
		<path class="st10" d="M-833.617,848.183h0.753l0.912-3.311c0.046-0.165,0.06-0.37,0.06-0.37h0.026c0,0,0.013,0.205,0.06,0.37
			l0.912,3.311h0.753l1.044-4.156h0.45v-0.509h-1.665v0.509h0.555l-0.727,3.059c-0.033,0.166-0.046,0.351-0.046,0.351h-0.026
			c0,0-0.02-0.185-0.066-0.351l-0.971-3.567h-0.562l-0.978,3.567c-0.04,0.166-0.066,0.351-0.066,0.351h-0.02
			c0,0-0.02-0.185-0.053-0.351l-0.727-3.059h0.555v-0.509h-1.658v0.509h0.449L-833.617,848.183z"/>
		<rect x="-825" y="844.79" class="st12" width="11" height="2"/>
		<rect x="-825" y="848.79" class="st12" width="11" height="2"/>
		<rect x="-831" y="852.79" class="st12" width="17" height="2"/>
		<rect x="-831" y="856.79" class="st12" width="17" height="2"/>
		<rect x="-831" y="860.79" class="st12" width="17" height="2"/>
	</g>
</g>
<g id="Icons" class="st0">
	<g class="st1">
		<polygon class="st13" points="-833.5,865.29 -833.5,836.29 -817,836.29 -811.5,841.79 -811.5,865.29 		"/>
		<g>
			<path class="st3" d="M-817,842.29c-0.276,0-0.5-0.224-0.5-0.5v-5c0-0.202,0.122-0.385,0.309-0.462
				c0.062-0.025,0.127-0.038,0.191-0.038c0.13,0,0.258,0.051,0.354,0.146l5,5c0.143,0.143,0.186,0.358,0.108,0.545
				s-0.26,0.309-0.462,0.309H-817z"/>
			<path d="M-817,836.79l5,5h-5V836.79 M-817,835.79c-0.129,0-0.259,0.025-0.382,0.076c-0.374,0.155-0.617,0.519-0.617,0.924v5
				c0,0.552,0.448,1,1,1h5c0.404,0,0.769-0.244,0.924-0.617c0.155-0.374,0.069-0.804-0.217-1.09l-5-5
				C-816.484,835.892-816.74,835.79-817,835.79L-817,835.79z"/>
		</g>
		<rect x="-836.5" y="841.29" class="st14" width="9" height="9"/>
		<g>
			<path class="st10" d="M-835.104,843.518h1.658v0.509H-834l0.727,3.059c0.033,0.166,0.053,0.351,0.053,0.351h0.02
				c0,0,0.027-0.185,0.066-0.351l0.978-3.567h0.562l0.971,3.567c0.046,0.166,0.066,0.351,0.066,0.351h0.026
				c0,0,0.013-0.185,0.046-0.351l0.727-3.059h-0.555v-0.509h1.665v0.509h-0.45l-1.044,4.156h-0.753l-0.912-3.311
				c-0.046-0.165-0.06-0.37-0.06-0.37h-0.026c0,0-0.013,0.205-0.06,0.37l-0.912,3.311h-0.753l-1.037-4.156h-0.449V843.518z"/>
		</g>
		<g class="st9">
			<g>
				<rect x="-825" y="844.79" width="11" height="2"/>
			</g>
			<g>
				<rect x="-825" y="848.79" width="11" height="2"/>
			</g>
			<g>
				<rect x="-831" y="852.79" width="17" height="2"/>
			</g>
			<g>
				<rect x="-831" y="856.79" width="17" height="2"/>
			</g>
			<g>
				<rect x="-831" y="860.79" width="17" height="2"/>
			</g>
		</g>
	</g>
</g>
</svg>
