<?xml version="1.0" encoding="utf-8"?>
<!-- Generator: Adobe Illustrator 19.0.0, SVG Export Plug-In . SVG Version: 6.00 Build 0)  -->
<svg version="1.1" id="Layer_1" xmlns="http://www.w3.org/2000/svg" xmlns:xlink="http://www.w3.org/1999/xlink" x="0px" y="0px"
	 viewBox="-594 594.79 512 512" style="enable-background:new -594 594.79 512 512;" xml:space="preserve">
<style type="text/css">
	.st0{fill:#E6E6E6;stroke:#000000;stroke-width:14;stroke-miterlimit:10;}
	.st1{fill:none;stroke:#000000;stroke-width:14;stroke-miterlimit:10;}
	.st2{fill:#ED701B;}
	.st3{fill:#E6E6E6;}
	.st4{fill:#FFFFFF;}
</style>
<polyline class="st0" points="-156.12,701.184 -255.473,701.184 -255.503,600.58 "/>
<polygon class="st1" points="-255.144,600.58 -534.76,600.58 -534.76,1106.79 -148.12,1106.79 -148.12,706.394 -255.144,600.58 "/>
<polygon class="st2" points="-193.373,1017.686 -578.862,1017.686 -578.862,887.798 -110.942,887.798 "/>
<polygon class="st3" points="-541.661,1054.87 -541.661,1017.686 -578.862,1017.686 "/>
<g>
	<path class="st4" d="M-464.445,990.246V915.59h36.816c9.136,0,15.456,1.6,18.928,4.768c3.456,3.168,5.184,8.928,5.184,17.232
		c0,7.536-0.864,12.704-2.592,15.472c-1.728,2.768-5.28,4.688-10.64,5.744v0.48c8.288,0.512,12.416,5.344,12.416,14.48v16.464
		h-14.176v-13.632c0-7.68-3.776-11.536-11.376-11.536h-20.384v25.152h-14.176V990.246L-464.445,990.246z M-450.27,953.158h20.336
		c4.848,0,8.064-0.864,9.648-2.592c1.6-1.728,2.384-5.2,2.384-10.416c0-5.328-0.688-8.768-2.064-10.32
		c-1.36-1.552-4.352-2.32-8.992-2.32h-21.328v25.648L-450.27,953.158L-450.27,953.158z"/>
	<path class="st4" d="M-347.086,975.91h-32.208l-4.656,14.336h-14.992l24.832-74.656h21.28l25.2,74.656h-14.704L-347.086,975.91z
		 M-350.366,965.462l-12.912-38.88l-12.688,38.88H-350.366z"/>
	<path class="st4" d="M-321.165,990.246V915.59h36.816c9.136,0,15.456,1.6,18.912,4.768c3.472,3.168,5.2,8.928,5.2,17.232
		c0,7.536-0.864,12.704-2.592,15.472c-1.728,2.768-5.28,4.688-10.64,5.744v0.48c8.288,0.512,12.4,5.344,12.4,14.48v16.464h-14.16
		v-13.632c0-7.68-3.792-11.536-11.376-11.536h-20.384v25.152h-14.176L-321.165,990.246L-321.165,990.246z M-306.99,953.158h20.336
		c4.864,0,8.08-0.864,9.664-2.592c1.6-1.728,2.368-5.2,2.368-10.416c0-5.328-0.672-8.768-2.048-10.32
		c-1.36-1.552-4.352-2.32-8.992-2.32h-21.328V953.158z"/>
</g>
</svg>
