<?xml version="1.0" encoding="utf-8"?>
<!-- Generator: Adobe Illustrator 19.0.0, SVG Export Plug-In . SVG Version: 6.00 Build 0)  -->
<svg version="1.1" id="Calque_1" xmlns="http://www.w3.org/2000/svg" xmlns:xlink="http://www.w3.org/1999/xlink" x="0px" y="0px"
	 viewBox="-837 835.79 26 30" style="enable-background:new -837 835.79 26 30;" xml:space="preserve">
<style type="text/css">
	.st0{display:none;}
	.st1{display:inline;}
	.st2{fill:#FFFFFF;stroke:#666666;stroke-linejoin:round;stroke-miterlimit:10;}
	.st3{fill:#E6E6E6;stroke:#666666;stroke-linejoin:round;stroke-miterlimit:10;}
	.st4{fill:#666666;}
	.st5{font-family:'MyriadPro-Regular';}
	.st6{font-size:6.6063px;}
	.st7{letter-spacing:1;}
	.st8{opacity:0.3;}
	.st9{fill:#E6E6E6;}
	.st10{fill:#FFFFFF;}
	.st11{fill:#009245;}
	.st12{fill:#B3B3B3;}
	.st13{fill:#FFFFFF;stroke:#000000;stroke-linejoin:round;stroke-miterlimit:10;}
	.st14{fill:#009245;stroke:#000000;stroke-linejoin:round;stroke-miterlimit:10;}
</style>
<g id="Icons_Outline" class="st0">
	<g class="st1">
		<polygon class="st2" points="-833.5,865.29 -833.5,836.29 -817,836.29 -811.5,841.79 -811.5,865.29 		"/>
		<rect x="-836.5" y="841.29" class="st3" width="9" height="9"/>
		<text transform="matrix(1 0 0 1 -834.0864 848.182)" class="st4 st5 st6 st7">X</text>
		<g class="st8">
			<rect x="-818" y="860.79" width="4" height="2"/>
			<rect x="-818" y="856.79" width="4" height="2"/>
			<rect x="-818" y="852.79" width="4" height="2"/>
			<rect x="-818" y="848.79" width="4" height="2"/>
			<rect x="-818" y="844.79" width="4" height="2"/>
			<rect x="-825" y="860.79" width="5" height="2"/>
			<rect x="-825" y="856.79" width="5" height="2"/>
			<rect x="-825" y="852.79" width="5" height="2"/>
			<rect x="-825" y="848.79" width="5" height="2"/>
			<rect x="-825" y="844.79" width="5" height="2"/>
			<rect x="-831" y="860.79" width="4" height="2"/>
			<rect x="-831" y="856.79" width="4" height="2"/>
			<rect x="-831" y="852.79" width="4" height="2"/>
		</g>
		<g>
			<path class="st9" d="M-817,842.79c-0.276,0-1-0.724-1-1v-5c0-0.202,0.372-0.385,0.559-0.462c0.062-0.025,0.252-0.038,0.316-0.038
				c0.13,0,0.32,0.051,0.416,0.146l5.031,5c0.143,0.143,0.201,0.608,0.124,0.795s-0.244,0.559-0.446,0.559H-817z"/>
			<path class="st4" d="M-817,836.79l5,5h-5V836.79 M-817,835.79c-0.129,0-0.259,0.025-0.382,0.076
				c-0.374,0.155-0.617,0.519-0.617,0.924v5c0,0.552,0.448,1,1,1h5c0.404,0,0.769-0.244,0.924-0.617
				c0.155-0.374,0.069-0.804-0.217-1.09l-5-5C-816.484,835.892-816.74,835.79-817,835.79L-817,835.79z"/>
		</g>
	</g>
</g>
<g id="expanded">
	<g>
		<path class="st10" d="M-818,841.79v-5h-15v4h5.5c0.276,0,0.5,0.224,0.5,0.5v9c0,0.276-0.224,0.5-0.5,0.5h-5.5v14h21v-22h-5
			C-817.552,842.79-818,842.342-818,841.79z M-827,862.79h-4v-2h4V862.79z M-827,858.79h-4v-2h4V858.79z M-827,854.79h-4v-2h4
			V854.79z M-820,862.79h-5v-2h5V862.79z M-820,858.79h-5v-2h5V858.79z M-820,854.79h-5v-2h5V854.79z M-820,850.79h-5v-2h5V850.79z
			 M-820,846.79h-5v-2h5V846.79z M-814,862.79h-4v-2h4V862.79z M-814,858.79h-4v-2h4V858.79z M-814,854.79h-4v-2h4V854.79z
			 M-814,850.79h-4v-2h4V850.79z M-814,846.79h-4v-2h4V846.79z"/>
		<path d="M-811.013,841.727c-0.015-0.238-0.105-0.469-0.28-0.644l-5-5c-0.191-0.191-0.447-0.293-0.707-0.293c0,0,0,0,0,0H-833.5
			c-0.276,0-0.5,0.224-0.5,0.5v4.5h-2.5c-0.276,0-0.5,0.224-0.5,0.5v9c0,0.276,0.224,0.5,0.5,0.5h2.5v14.5
			c0,0.276,0.224,0.5,0.5,0.5h22c0.276,0,0.5-0.224,0.5-0.5v-23.5C-811,841.768-811.01,841.749-811.013,841.727z M-812,864.79h-21
			v-14h5.5c0.276,0,0.5-0.224,0.5-0.5v-9c0-0.276-0.224-0.5-0.5-0.5h-5.5v-4h15v5c0,0.552,0.448,1,1,1h5V864.79z M-836,841.79h8v8
			h-8V841.79z M-817,841.79v-5l5,5H-817z"/>
		<path class="st11" d="M-828,849.79v-8h-8v8H-828z M-833.889,847.667h0.437l1.202-1.844l-1.182-1.797h-0.43v-0.509h1.625v0.509
			h-0.496l0.773,1.223c0.072,0.099,0.119,0.185,0.119,0.185h0.014c0,0,0.039-0.086,0.111-0.185l0.747-1.223h-0.482v-0.509h1.579
			v0.509h-0.436l-1.209,1.856l1.188,1.784h0.442v0.516h-1.625v-0.516h0.489l-0.78-1.216c-0.072-0.106-0.119-0.192-0.119-0.192
			h-0.013c-0.007,0-0.04,0.086-0.105,0.192l-0.753,1.216h0.488v0.516h-1.586V847.667z"/>
		<path class="st10" d="M-832.303,848.183v-0.516h-0.488l0.753-1.216c0.065-0.106,0.099-0.192,0.105-0.192h0.013
			c0,0,0.047,0.086,0.119,0.192l0.78,1.216h-0.489v0.516h1.625v-0.516h-0.442l-1.188-1.784l1.209-1.856h0.436v-0.509h-1.579v0.509
			h0.482l-0.747,1.223c-0.072,0.099-0.111,0.185-0.111,0.185h-0.014c0,0-0.047-0.086-0.119-0.185l-0.773-1.223h0.496v-0.509h-1.625
			v0.509h0.43l1.182,1.797l-1.202,1.844h-0.437v0.516H-832.303z"/>
		<rect x="-818" y="860.79" class="st12" width="4" height="2"/>
		<rect x="-818" y="856.79" class="st12" width="4" height="2"/>
		<rect x="-818" y="852.79" class="st12" width="4" height="2"/>
		<rect x="-818" y="848.79" class="st12" width="4" height="2"/>
		<rect x="-818" y="844.79" class="st12" width="4" height="2"/>
		<rect x="-825" y="860.79" class="st12" width="5" height="2"/>
		<rect x="-825" y="856.79" class="st12" width="5" height="2"/>
		<rect x="-825" y="852.79" class="st12" width="5" height="2"/>
		<rect x="-825" y="848.79" class="st12" width="5" height="2"/>
		<rect x="-825" y="844.79" class="st12" width="5" height="2"/>
		<rect x="-831" y="860.79" class="st12" width="4" height="2"/>
		<rect x="-831" y="856.79" class="st12" width="4" height="2"/>
		<rect x="-831" y="852.79" class="st12" width="4" height="2"/>
		<polygon class="st9" points="-817,836.79 -817,841.79 -812,841.79 		"/>
	</g>
</g>
<g id="Icons" class="st0">
	<g class="st1">
		<polygon class="st13" points="-833.5,865.29 -833.5,836.29 -817,836.29 -811.5,841.79 -811.5,865.29 		"/>
		<rect x="-836.5" y="841.29" class="st14" width="9" height="9"/>
		<g>
			<path class="st10" d="M-833.889,847.667h0.437l1.202-1.844l-1.182-1.797h-0.43v-0.509h1.625v0.509h-0.496l0.773,1.223
				c0.072,0.099,0.119,0.185,0.119,0.185h0.014c0,0,0.039-0.086,0.111-0.185l0.747-1.223h-0.482v-0.509h1.579v0.509h-0.436
				l-1.209,1.856l1.188,1.784h0.442v0.516h-1.625v-0.516h0.489l-0.78-1.216c-0.072-0.106-0.119-0.192-0.119-0.192h-0.013
				c-0.007,0-0.04,0.086-0.105,0.192l-0.753,1.216h0.488v0.516h-1.586V847.667z"/>
		</g>
		<g class="st8">
			<rect x="-818" y="860.79" width="4" height="2"/>
			<rect x="-818" y="856.79" width="4" height="2"/>
			<rect x="-818" y="852.79" width="4" height="2"/>
			<rect x="-818" y="848.79" width="4" height="2"/>
			<rect x="-818" y="844.79" width="4" height="2"/>
			<rect x="-825" y="860.79" width="5" height="2"/>
			<rect x="-825" y="856.79" width="5" height="2"/>
			<rect x="-825" y="852.79" width="5" height="2"/>
			<rect x="-825" y="848.79" width="5" height="2"/>
			<rect x="-825" y="844.79" width="5" height="2"/>
			<rect x="-831" y="860.79" width="4" height="2"/>
			<rect x="-831" y="856.79" width="4" height="2"/>
			<rect x="-831" y="852.79" width="4" height="2"/>
		</g>
		<g>
			<path class="st9" d="M-817,842.29c-0.276,0-0.5-0.224-0.5-0.5v-5c0-0.202,0.122-0.385,0.309-0.462
				c0.062-0.025,0.127-0.038,0.191-0.038c0.13,0,0.258,0.051,0.354,0.146l5,5c0.143,0.143,0.186,0.358,0.108,0.545
				s-0.26,0.309-0.462,0.309H-817z"/>
			<path d="M-817,836.79l5,5h-5V836.79 M-817,835.79c-0.129,0-0.259,0.025-0.382,0.076c-0.374,0.155-0.617,0.519-0.617,0.924v5
				c0,0.552,0.448,1,1,1h5c0.404,0,0.769-0.244,0.924-0.617c0.155-0.374,0.069-0.804-0.217-1.09l-5-5
				C-816.484,835.892-816.74,835.79-817,835.79L-817,835.79z"/>
		</g>
	</g>
</g>
</svg>
