<?xml version="1.0" encoding="utf-8"?>
<!-- Generator: Adobe Illustrator 19.0.0, SVG Export Plug-In . SVG Version: 6.00 Build 0)  -->
<svg version="1.1" id="Capa_1" xmlns="http://www.w3.org/2000/svg" xmlns:xlink="http://www.w3.org/1999/xlink" x="0px" y="0px"
	 viewBox="-822 822.79 56 56" style="enable-background:new -822 822.79 56 56;" xml:space="preserve">
<style type="text/css">
	.st0{fill:#E9E9E0;}
	.st1{fill:#D9D7CA;}
	.st2{fill:#556080;}
	.st3{fill:#FFFFFF;}
	.st4{fill:#C8BDB8;}
</style>
<g>
	<path class="st0" d="M-785.015,822.79h-29.022c-0.808,0-1.463,0.655-1.463,1.926v53.074c0,0.345,0.655,1,1.463,1h40.074
		c0.808,0,1.463-0.655,1.463-1v-42.022c0-0.696-0.093-0.92-0.257-1.085l-11.636-11.636
		C-784.558,822.883-784.782,822.79-785.015,822.79z"/>
	<polygon class="st1" points="-784.5,822.941 -784.5,834.79 -772.651,834.79 	"/>
	<path class="st2" d="M-773.963,878.79h-40.074c-0.808,0-1.463-0.655-1.463-1.463V861.79h43v15.537
		C-772.5,878.135-773.155,878.79-773.963,878.79z"/>
	<g>
		<path class="st3" d="M-796.734,865.714v1.326l-4.799,7.205l-0.273,0.219h5.072v1.326h-6.699v-1.326l4.799-7.205l0.287-0.219
			h-5.086v-1.326H-796.734z"/>
		<path class="st3" d="M-792.729,875.79h-1.668v-10.076h1.668V875.79z"/>
		<path class="st3" d="M-788.586,875.79h-1.641v-10.076h2.898c0.428,0,0.852,0.068,1.271,0.205s0.795,0.342,1.128,0.615
			s0.602,0.604,0.807,0.991c0.205,0.387,0.308,0.822,0.308,1.306c0,0.511-0.087,0.973-0.26,1.388
			c-0.173,0.415-0.415,0.764-0.725,1.046s-0.684,0.501-1.121,0.656c-0.437,0.155-0.921,0.232-1.449,0.232h-1.217L-788.586,875.79
			L-788.586,875.79z M-788.586,866.958v3.992h1.504c0.2,0,0.398-0.034,0.595-0.103c0.196-0.068,0.376-0.18,0.54-0.335
			c0.164-0.155,0.296-0.371,0.396-0.649c0.1-0.278,0.15-0.622,0.15-1.032c0-0.164-0.023-0.354-0.068-0.567
			c-0.046-0.214-0.139-0.419-0.28-0.615c-0.142-0.196-0.34-0.36-0.595-0.492c-0.255-0.132-0.593-0.198-1.012-0.198L-788.586,866.958
			L-788.586,866.958z"/>
	</g>
	<g>
		<path class="st4" d="M-793.5,846.79v-2h2v-2h-2v-2h2v-2h-2v-2h2v-2h-2v-2h2v-2h-2v-2h-2v2h-2v2h2v2h-2v2h2v2h-2v2h2v2h-2v2h2v2h-4
			v5c0,2.757,2.243,5,5,5s5-2.243,5-5v-5H-793.5z M-791.5,851.79c0,1.654-1.346,3-3,3s-3-1.346-3-3v-3h6V851.79z"/>
		<path class="st4" d="M-795.5,852.79h2c0.552,0,1-0.447,1-1c0-0.553-0.448-1-1-1h-2c-0.552,0-1,0.447-1,1
			C-796.5,852.343-796.052,852.79-795.5,852.79z"/>
	</g>
</g>
</svg>
